<?xml version="1.0" encoding="utf-8"?><svg version="1.1" xmlns="http://www.w3.org/2000/svg" xmlns:xlink="http://www.w3.org/1999/xlink" width="210.000000" height="297.000000" viewbox="0 0 210.000000 297.000000">  <g style="stroke-width: 2.000000; stroke: #000 ;stroke-linecap: round; stroke-linejoin: round; fill: none;">  
    <path d="M 45 35 L30 35"/>
    <path d="M 45 40 L30 40"/>
    <path d="M 45 45 L30 45"/>
    <path d="M 50 30 L50 45"/>
    <path d="M 55 30 L55 45"/>
    <path d="M 60 30 L60 45"/>
    <path d="M 75 35 L60 35"/>
    <path d="M 75 40 L60 40"/>
    <path d="M 75 45 L60 45"/>
    <path d="M 90 35 L75 35"/>
    <path d="M 90 40 L75 40"/>
    <path d="M 90 45 L75 45"/>
    <path d="M 105 35 L90 35"/>
    <path d="M 105 40 L90 40"/>
    <path d="M 105 45 L90 45"/>
    <path d="M 120 35 L105 35"/>
    <path d="M 120 40 L105 40"/>
    <path d="M 120 45 L105 45"/>
    <path d="M 125 30 L125 45"/>
    <path d="M 130 30 L130 45"/>
    <path d="M 135 30 L135 45"/>
    <path d="M 150 35 L135 35"/>
    <path d="M 150 40 L135 40"/>
    <path d="M 150 45 L135 45"/>
    <path d="M 165 35 L150 35"/>
    <path d="M 165 40 L150 40"/>
    <path d="M 165 45 L150 45"/>
    <path d="M 170 30 L170 45"/>
    <path d="M 175 30 L175 45"/>
    <path d="M 180 30 L180 45"/>
    <path d="M 45 50 L30 50"/>
    <path d="M 45 55 L30 55"/>
    <path d="M 45 60 L30 60"/>
    <path d="M 50 45 L50 60"/>
    <path d="M 55 45 L55 60"/>
    <path d="M 60 45 L60 60"/>
    <path d="M 65 45 L65 60"/>
    <path d="M 70 45 L70 60"/>
    <path d="M 75 45 L75 60"/>
    <path d="M 90 50 L75 50"/>
    <path d="M 90 55 L75 55"/>
    <path d="M 90 60 L75 60"/>
    <path d="M 105 50 L90 50"/>
    <path d="M 105 55 L90 55"/>
    <path d="M 105 60 L90 60"/>
    <path d="M 110 45 L110 60"/>
    <path d="M 115 45 L115 60"/>
    <path d="M 120 45 L120 60"/>
    <path d="M 135 50 L120 50"/>
    <path d="M 135 55 L120 55"/>
    <path d="M 135 60 L120 60"/>
    <path d="M 150 50 L135 50"/>
    <path d="M 150 55 L135 55"/>
    <path d="M 150 60 L135 60"/>
    <path d="M 155 45 L155 60"/>
    <path d="M 160 45 L160 60"/>
    <path d="M 165 45 L165 60"/>
    <path d="M 180 50 L165 50"/>
    <path d="M 180 55 L165 55"/>
    <path d="M 180 60 L165 60"/>
    <path d="M 45 65 L30 65"/>
    <path d="M 45 70 L30 70"/>
    <path d="M 45 75 L30 75"/>
    <path d="M 60 65 L45 65"/>
    <path d="M 60 70 L45 70"/>
    <path d="M 60 75 L45 75"/>
    <path d="M 65 60 L65 75"/>
    <path d="M 70 60 L70 75"/>
    <path d="M 75 60 L75 75"/>
    <path d="M 80 60 L80 75"/>
    <path d="M 85 60 L85 75"/>
    <path d="M 90 60 L90 75"/>
    <path d="M 95 60 L95 75"/>
    <path d="M 100 60 L100 75"/>
    <path d="M 105 60 L105 75"/>
    <path d="M 110 60 L110 75"/>
    <path d="M 115 60 L115 75"/>
    <path d="M 120 60 L120 75"/>
    <path d="M 135 65 L120 65"/>
    <path d="M 135 70 L120 70"/>
    <path d="M 135 75 L120 75"/>
    <path d="M 140 60 L140 75"/>
    <path d="M 145 60 L145 75"/>
    <path d="M 150 60 L150 75"/>
    <path d="M 165 65 L150 65"/>
    <path d="M 165 70 L150 70"/>
    <path d="M 165 75 L150 75"/>
    <path d="M 180 65 L165 65"/>
    <path d="M 180 70 L165 70"/>
    <path d="M 180 75 L165 75"/>
    <path d="M 45 80 L30 80"/>
    <path d="M 45 85 L30 85"/>
    <path d="M 45 90 L30 90"/>
    <path d="M 50 75 L50 90"/>
    <path d="M 55 75 L55 90"/>
    <path d="M 60 75 L60 90"/>
    <path d="M 75 80 L60 80"/>
    <path d="M 75 85 L60 85"/>
    <path d="M 75 90 L60 90"/>
    <path d="M 80 75 L80 90"/>
    <path d="M 85 75 L85 90"/>
    <path d="M 90 75 L90 90"/>
    <path d="M 105 80 L90 80"/>
    <path d="M 105 85 L90 85"/>
    <path d="M 105 90 L90 90"/>
    <path d="M 110 75 L110 90"/>
    <path d="M 115 75 L115 90"/>
    <path d="M 120 75 L120 90"/>
    <path d="M 135 80 L120 80"/>
    <path d="M 135 85 L120 85"/>
    <path d="M 135 90 L120 90"/>
    <path d="M 150 80 L135 80"/>
    <path d="M 150 85 L135 85"/>
    <path d="M 150 90 L135 90"/>
    <path d="M 165 80 L150 80"/>
    <path d="M 165 85 L150 85"/>
    <path d="M 165 90 L150 90"/>
    <path d="M 170 75 L170 90"/>
    <path d="M 175 75 L175 90"/>
    <path d="M 180 75 L180 90"/>
    <path d="M 45 95 L30 95"/>
    <path d="M 45 100 L30 100"/>
    <path d="M 45 105 L30 105"/>
    <path d="M 60 95 L45 95"/>
    <path d="M 60 100 L45 100"/>
    <path d="M 60 105 L45 105"/>
    <path d="M 75 95 L60 95"/>
    <path d="M 75 100 L60 100"/>
    <path d="M 75 105 L60 105"/>
    <path d="M 90 95 L75 95"/>
    <path d="M 90 100 L75 100"/>
    <path d="M 90 105 L75 105"/>
    <path d="M 105 95 L90 95"/>
    <path d="M 105 100 L90 100"/>
    <path d="M 105 105 L90 105"/>
    <path d="M 120 95 L105 95"/>
    <path d="M 120 100 L105 100"/>
    <path d="M 120 105 L105 105"/>
    <path d="M 135 95 L120 95"/>
    <path d="M 135 100 L120 100"/>
    <path d="M 135 105 L120 105"/>
    <path d="M 140 90 L140 105"/>
    <path d="M 145 90 L145 105"/>
    <path d="M 150 90 L150 105"/>
    <path d="M 155 90 L155 105"/>
    <path d="M 160 90 L160 105"/>
    <path d="M 165 90 L165 105"/>
    <path d="M 170 90 L170 105"/>
    <path d="M 175 90 L175 105"/>
    <path d="M 180 90 L180 105"/>
    <path d="M 35 105 L35 120"/>
    <path d="M 40 105 L40 120"/>
    <path d="M 45 105 L45 120"/>
    <path d="M 60 110 L45 110"/>
    <path d="M 60 115 L45 115"/>
    <path d="M 60 120 L45 120"/>
    <path d="M 75 110 L60 110"/>
    <path d="M 75 115 L60 115"/>
    <path d="M 75 120 L60 120"/>
    <path d="M 90 110 L75 110"/>
    <path d="M 90 115 L75 115"/>
    <path d="M 90 120 L75 120"/>
    <path d="M 105 110 L90 110"/>
    <path d="M 105 115 L90 115"/>
    <path d="M 105 120 L90 120"/>
    <path d="M 120 110 L105 110"/>
    <path d="M 120 115 L105 115"/>
    <path d="M 120 120 L105 120"/>
    <path d="M 125 105 L125 120"/>
    <path d="M 130 105 L130 120"/>
    <path d="M 135 105 L135 120"/>
    <path d="M 140 105 L140 120"/>
    <path d="M 145 105 L145 120"/>
    <path d="M 150 105 L150 120"/>
    <path d="M 155 105 L155 120"/>
    <path d="M 160 105 L160 120"/>
    <path d="M 165 105 L165 120"/>
    <path d="M 170 105 L170 120"/>
    <path d="M 175 105 L175 120"/>
    <path d="M 180 105 L180 120"/>
    <path d="M 35 120 L35 135"/>
    <path d="M 40 120 L40 135"/>
    <path d="M 45 120 L45 135"/>
    <path d="M 60 125 L45 125"/>
    <path d="M 60 130 L45 130"/>
    <path d="M 60 135 L45 135"/>
    <path d="M 65 120 L65 135"/>
    <path d="M 70 120 L70 135"/>
    <path d="M 75 120 L75 135"/>
    <path d="M 90 125 L75 125"/>
    <path d="M 90 130 L75 130"/>
    <path d="M 90 135 L75 135"/>
    <path d="M 95 120 L95 135"/>
    <path d="M 100 120 L100 135"/>
    <path d="M 105 120 L105 135"/>
    <path d="M 120 125 L105 125"/>
    <path d="M 120 130 L105 130"/>
    <path d="M 120 135 L105 135"/>
    <path d="M 135 125 L120 125"/>
    <path d="M 135 130 L120 130"/>
    <path d="M 135 135 L120 135"/>
    <path d="M 150 125 L135 125"/>
    <path d="M 150 130 L135 130"/>
    <path d="M 150 135 L135 135"/>
    <path d="M 155 120 L155 135"/>
    <path d="M 160 120 L160 135"/>
    <path d="M 165 120 L165 135"/>
    <path d="M 170 120 L170 135"/>
    <path d="M 175 120 L175 135"/>
    <path d="M 180 120 L180 135"/>
    <path d="M 45 140 L30 140"/>
    <path d="M 45 145 L30 145"/>
    <path d="M 45 150 L30 150"/>
    <path d="M 50 135 L50 150"/>
    <path d="M 55 135 L55 150"/>
    <path d="M 60 135 L60 150"/>
    <path d="M 75 140 L60 140"/>
    <path d="M 75 145 L60 145"/>
    <path d="M 75 150 L60 150"/>
    <path d="M 90 140 L75 140"/>
    <path d="M 90 145 L75 145"/>
    <path d="M 90 150 L75 150"/>
    <path d="M 95 135 L95 150"/>
    <path d="M 100 135 L100 150"/>
    <path d="M 105 135 L105 150"/>
    <path d="M 110 135 L110 150"/>
    <path d="M 115 135 L115 150"/>
    <path d="M 120 135 L120 150"/>
    <path d="M 125 135 L125 150"/>
    <path d="M 130 135 L130 150"/>
    <path d="M 135 135 L135 150"/>
    <path d="M 150 140 L135 140"/>
    <path d="M 150 145 L135 145"/>
    <path d="M 150 150 L135 150"/>
    <path d="M 155 135 L155 150"/>
    <path d="M 160 135 L160 150"/>
    <path d="M 165 135 L165 150"/>
    <path d="M 180 140 L165 140"/>
    <path d="M 180 145 L165 145"/>
    <path d="M 180 150 L165 150"/>
    <path d="M 45 155 L30 155"/>
    <path d="M 45 160 L30 160"/>
    <path d="M 45 165 L30 165"/>
    <path d="M 60 155 L45 155"/>
    <path d="M 60 160 L45 160"/>
    <path d="M 60 165 L45 165"/>
    <path d="M 75 155 L60 155"/>
    <path d="M 75 160 L60 160"/>
    <path d="M 75 165 L60 165"/>
    <path d="M 90 155 L75 155"/>
    <path d="M 90 160 L75 160"/>
    <path d="M 90 165 L75 165"/>
    <path d="M 105 155 L90 155"/>
    <path d="M 105 160 L90 160"/>
    <path d="M 105 165 L90 165"/>
    <path d="M 110 150 L110 165"/>
    <path d="M 115 150 L115 165"/>
    <path d="M 120 150 L120 165"/>
    <path d="M 135 155 L120 155"/>
    <path d="M 135 160 L120 160"/>
    <path d="M 135 165 L120 165"/>
    <path d="M 140 150 L140 165"/>
    <path d="M 145 150 L145 165"/>
    <path d="M 150 150 L150 165"/>
    <path d="M 165 155 L150 155"/>
    <path d="M 165 160 L150 160"/>
    <path d="M 165 165 L150 165"/>
    <path d="M 170 150 L170 165"/>
    <path d="M 175 150 L175 165"/>
    <path d="M 180 150 L180 165"/>
    <path d="M 45 170 L30 170"/>
    <path d="M 45 175 L30 175"/>
    <path d="M 45 180 L30 180"/>
    <path d="M 50 165 L50 180"/>
    <path d="M 55 165 L55 180"/>
    <path d="M 60 165 L60 180"/>
    <path d="M 65 165 L65 180"/>
    <path d="M 70 165 L70 180"/>
    <path d="M 75 165 L75 180"/>
    <path d="M 90 170 L75 170"/>
    <path d="M 90 175 L75 175"/>
    <path d="M 90 180 L75 180"/>
    <path d="M 95 165 L95 180"/>
    <path d="M 100 165 L100 180"/>
    <path d="M 105 165 L105 180"/>
    <path d="M 110 165 L110 180"/>
    <path d="M 115 165 L115 180"/>
    <path d="M 120 165 L120 180"/>
    <path d="M 125 165 L125 180"/>
    <path d="M 130 165 L130 180"/>
    <path d="M 135 165 L135 180"/>
    <path d="M 150 170 L135 170"/>
    <path d="M 150 175 L135 175"/>
    <path d="M 150 180 L135 180"/>
    <path d="M 155 165 L155 180"/>
    <path d="M 160 165 L160 180"/>
    <path d="M 165 165 L165 180"/>
    <path d="M 170 165 L170 180"/>
    <path d="M 175 165 L175 180"/>
    <path d="M 180 165 L180 180"/>
    <path d="M 35 180 L35 195"/>
    <path d="M 40 180 L40 195"/>
    <path d="M 45 180 L45 195"/>
    <path d="M 60 185 L45 185"/>
    <path d="M 60 190 L45 190"/>
    <path d="M 60 195 L45 195"/>
    <path d="M 75 185 L60 185"/>
    <path d="M 75 190 L60 190"/>
    <path d="M 75 195 L60 195"/>
    <path d="M 90 185 L75 185"/>
    <path d="M 90 190 L75 190"/>
    <path d="M 90 195 L75 195"/>
    <path d="M 105 185 L90 185"/>
    <path d="M 105 190 L90 190"/>
    <path d="M 105 195 L90 195"/>
    <path d="M 120 185 L105 185"/>
    <path d="M 120 190 L105 190"/>
    <path d="M 120 195 L105 195"/>
    <path d="M 125 180 L125 195"/>
    <path d="M 130 180 L130 195"/>
    <path d="M 135 180 L135 195"/>
    <path d="M 150 185 L135 185"/>
    <path d="M 150 190 L135 190"/>
    <path d="M 150 195 L135 195"/>
    <path d="M 155 180 L155 195"/>
    <path d="M 160 180 L160 195"/>
    <path d="M 165 180 L165 195"/>
    <path d="M 180 185 L165 185"/>
    <path d="M 180 190 L165 190"/>
    <path d="M 180 195 L165 195"/>
    <path d="M 35 195 L35 210"/>
    <path d="M 40 195 L40 210"/>
    <path d="M 45 195 L45 210"/>
    <path d="M 50 195 L50 210"/>
    <path d="M 55 195 L55 210"/>
    <path d="M 60 195 L60 210"/>
    <path d="M 75 200 L60 200"/>
    <path d="M 75 205 L60 205"/>
    <path d="M 75 210 L60 210"/>
    <path d="M 90 200 L75 200"/>
    <path d="M 90 205 L75 205"/>
    <path d="M 90 210 L75 210"/>
    <path d="M 95 195 L95 210"/>
    <path d="M 100 195 L100 210"/>
    <path d="M 105 195 L105 210"/>
    <path d="M 120 200 L105 200"/>
    <path d="M 120 205 L105 205"/>
    <path d="M 120 210 L105 210"/>
    <path d="M 125 195 L125 210"/>
    <path d="M 130 195 L130 210"/>
    <path d="M 135 195 L135 210"/>
    <path d="M 140 195 L140 210"/>
    <path d="M 145 195 L145 210"/>
    <path d="M 150 195 L150 210"/>
    <path d="M 155 195 L155 210"/>
    <path d="M 160 195 L160 210"/>
    <path d="M 165 195 L165 210"/>
    <path d="M 170 195 L170 210"/>
    <path d="M 175 195 L175 210"/>
    <path d="M 180 195 L180 210"/>
    <path d="M 35 210 L35 225"/>
    <path d="M 40 210 L40 225"/>
    <path d="M 45 210 L45 225"/>
    <path d="M 60 215 L45 215"/>
    <path d="M 60 220 L45 220"/>
    <path d="M 60 225 L45 225"/>
    <path d="M 75 215 L60 215"/>
    <path d="M 75 220 L60 220"/>
    <path d="M 75 225 L60 225"/>
    <path d="M 90 215 L75 215"/>
    <path d="M 90 220 L75 220"/>
    <path d="M 90 225 L75 225"/>
    <path d="M 105 215 L90 215"/>
    <path d="M 105 220 L90 220"/>
    <path d="M 105 225 L90 225"/>
    <path d="M 120 215 L105 215"/>
    <path d="M 120 220 L105 220"/>
    <path d="M 120 225 L105 225"/>
    <path d="M 125 210 L125 225"/>
    <path d="M 130 210 L130 225"/>
    <path d="M 135 210 L135 225"/>
    <path d="M 140 210 L140 225"/>
    <path d="M 145 210 L145 225"/>
    <path d="M 150 210 L150 225"/>
    <path d="M 165 215 L150 215"/>
    <path d="M 165 220 L150 220"/>
    <path d="M 165 225 L150 225"/>
    <path d="M 170 210 L170 225"/>
    <path d="M 175 210 L175 225"/>
    <path d="M 180 210 L180 225"/>
    <path d="M 35 225 L35 240"/>
    <path d="M 40 225 L40 240"/>
    <path d="M 45 225 L45 240"/>
    <path d="M 50 225 L50 240"/>
    <path d="M 55 225 L55 240"/>
    <path d="M 60 225 L60 240"/>
    <path d="M 65 225 L65 240"/>
    <path d="M 70 225 L70 240"/>
    <path d="M 75 225 L75 240"/>
    <path d="M 90 230 L75 230"/>
    <path d="M 90 235 L75 235"/>
    <path d="M 90 240 L75 240"/>
    <path d="M 95 225 L95 240"/>
    <path d="M 100 225 L100 240"/>
    <path d="M 105 225 L105 240"/>
    <path d="M 110 225 L110 240"/>
    <path d="M 115 225 L115 240"/>
    <path d="M 120 225 L120 240"/>
    <path d="M 125 225 L125 240"/>
    <path d="M 130 225 L130 240"/>
    <path d="M 135 225 L135 240"/>
    <path d="M 140 225 L140 240"/>
    <path d="M 145 225 L145 240"/>
    <path d="M 150 225 L150 240"/>
    <path d="M 155 225 L155 240"/>
    <path d="M 160 225 L160 240"/>
    <path d="M 165 225 L165 240"/>
    <path d="M 180 230 L165 230"/>
    <path d="M 180 235 L165 235"/>
    <path d="M 180 240 L165 240"/>
    <path d="M 30 30 L180 30 L180 240 L30 240 Z"/>
  </g></svg>