<?xml version="1.0" encoding="utf-8"?><svg version="1.1" xmlns="http://www.w3.org/2000/svg" xmlns:xlink="http://www.w3.org/1999/xlink" width="140.000000" height="100.000000" viewbox="0 0 140.000000 100.000000">  <g style="stroke-width: 0.375000; stroke: #ff0 ;stroke-linecap: round; stroke-linejoin: round; fill: none;">  
    <path d="M 70 10.909839918081 L50.133274539861 18.21862230062 L72.607129471108 12.028957175724 L48.340704220173 20.37139978599 L75.214258942217 13.148074433367 L46.548133900485 22.52417727136 L77.821388413325 14.267191691011 L44.755563580798 24.676954756729 L80.428517884433 15.386308948654 L42.96299326111 26.829732242099 L83.035647355541 16.505426206297 L41.170422941423 28.982509727468 L85.64277682665 17.624543463941 L39.377852621735 31.135287212838 L88.203217194327 18.807694248167 L38.368167930192 33.661749312273 L90.065964769276 20.947722048804 L37.821718166615 36.409321314683 L91.928712344225 23.08774984944 L37.275268403039 39.156893317092 L93.791459919175 25.227777650077 L36.728818639463 41.904465319502 L95.654207494124 27.367805450713 L36.182368875887 44.652037321912 L97.516955069073 29.50783325135 L35.63591911231 47.399609324322 L99.379702644022 31.647861051987 L35.157765945836 50.144900957009 L100.86500889352 34.03306777788 L35.886272878371 52.849903156969 L102.06300325744 36.604907006818 L36.614779810905 55.554905356929 L103.26099762135 39.176746235755 L37.343286743439 58.259907556889 L104.45899198527 41.748585464693 L38.071793675974 60.964909756849 L105.65698634919 44.32042469363 L38.800300608508 63.669911956809 L106.8549807131 46.892263922567 L39.528807541042 66.374914156769 L108.05297507702 49.464103151505 L40.54520563499 68.973880303301 L108.08152094982 52.23508039152 L41.745331535296 71.505175836413 L107.80224683376 55.05847435687 L42.945457435603 74.036471369525 L107.5229727177 57.88186832222 L44.145583335909 76.567766902637 L107.24369860164 60.705262287571 L45.345709236216 79.099062435749 L106.96442448557 63.528656252921 L46.545835136522 81.630357968861 L106.68515036951 66.352050218271 L47.745961036829 84.161653501973 L106.40587625345 69.175444183621 L49.024532845917 86.576511445206 L105.26828824597 71.414622432159 L51.821261799795 86.737962400857 L102.74409776042 72.710002649753 L54.617990753673 86.899413356509 L100.21990727487 74.005382867347 L57.41471970755 87.060864312161 L97.695716789318 75.300763084941 L60.211448661428 87.222315267812 L95.171526303768 76.596143302535 L63.008177615306 87.383766223464 L92.647335818218 77.891523520129 L65.804906569183 87.545217179116 L90.123145332667 79.186903737723 L68.601635523061 87.706668134767 L87.598954847117 80.482283955318"/>
  </g><g style="stroke-width: 0.375000; stroke: #f0f ;stroke-linecap: round; stroke-linejoin: round; fill: none;">  
    <path d="M 93.911992507429 74.388411399092 L97.677861528723 56.707448952317 L92.007387026287 75.927188801834 L96.590999621638 54.473411233146 L90.102781545146 77.465966204577 L95.504137714552 52.239373513974 L88.198176064005 79.004743607319 L94.417275807467 50.005335794803 L86.293570582863 80.543521010061 L93.330413900381 47.771298075631 L84.388965101722 82.082298412803 L92.243551993295 45.537260356459 L82.48435962058 83.621075815546 L91.15669008621 43.303222637288 L80.478505531432 84.653450790318 L89.277309805919 42.086562662669 L78.128653990569 83.965296977651 L86.845233987064 41.579413229964 L75.778802449706 83.277143164984 L84.413158168208 41.07226379726 L73.428950908843 82.588989352317 L81.981082349352 40.565114364555 L71.07909936798 81.90083553965 L79.549006530496 40.057964931851 L68.729247827117 81.212681726983 L77.116930711641 39.550815499146 L66.379396286254 80.524527914316 L74.68039070975 39.103931615626 L64.05943754504 79.74226446987 L72.200135124386 39.247199082363 L61.743198545356 78.948290395782 L69.719879539022 39.3904665491 L59.426959545671 78.154316321693 L67.239623953658 39.533734015837 L57.110720545987 77.360342247605 L64.759368368294 39.677001482575 L54.794481546302 76.566368173516 L62.279112782929 39.820268949312 L52.789843133551 75.348023617806 L60.010236320318 40.581966847038 L51.338762880208 73.375785287294 L57.961187425474 41.986812732639 L49.887682626865 71.403546956781 L55.912138530629 43.391658618241 L48.436602373522 69.431308626269 L53.863089635784 44.796504503842 L46.985522120179 67.459070295756 L51.81404074094 46.201350389444 L45.534441866837 65.486831965244 L49.764991846095 47.606196275045 L44.083361613494 63.514593634731"/>
  </g><g style="stroke-width: 0.375000; stroke: #0ff ;stroke-linecap: round; stroke-linejoin: round; fill: none;">  
    <path d="M 66.286002459505 74.427579740896 L74.544545478964 78.990995926112 L65.435576523209 72.215422451368 L76.776978751863 79.500326612988 L64.585150586913 70.00326516184 L79.009412024762 80.009657299863 L63.734724650617 67.791107872311 L81.241845297661 80.518987986739 L62.884298714321 65.578950582783 L83.23996086443 80.624024099684 L64.197973037044 63.908892701977 L83.90779660367 78.433779480484 L65.990813132124 62.358864140882 L84.57563234291 76.243534861284 L67.783653227204 60.808835579787 L85.24346808215 74.053290242085 L69.576493322284 59.258807018692 L85.91130382139 71.863045622885 L71.658216879602 58.229210891014 L86.147784990584 69.596048411303 L73.92194659109 57.527504442375 L86.276456877296 67.309868275769 L76.185676302579 56.825797993736 L86.405128764008 65.023688140235 L78.449406014067 56.124091545097 L86.53380065072 62.737508004701"/>
  </g><g style="stroke-width: 0.500000; stroke: #000 ;stroke-linecap: round; stroke-linejoin: round; fill: none;">  
  </g></svg>