<?xml version="1.0" encoding="utf-8"?><svg version="1.1" xmlns="http://www.w3.org/2000/svg" xmlns:xlink="http://www.w3.org/1999/xlink" width="100.000000" height="140.000000" viewbox="0 0 100.000000 140.000000">  <g style="stroke-width: 0.500000; stroke: #0ff ;stroke-linecap: round; stroke-linejoin: round; fill: none;">  
    <path d="M 74.911287364751 94.911287364751 L74.911287364751 45.088712635249 L25.088712635249 45.088712635249 L25.088712635249 94.911287364751 Z"/>
  </g><g style="stroke-width: 0.500000; stroke: #f0f ;stroke-linecap: round; stroke-linejoin: round; fill: none;">  
    <path d="M 73.401470230631 95.700143502913 L73.339724019095 45.621073967222 Z"/>
    <path d="M 27.19614713249 97.159418222289 L26.46246758813 47.7958147474 Z"/>
  </g><g style="stroke-width: 1.000000; stroke: #000 ;stroke-linecap: round; stroke-linejoin: round; fill: none;">  
    <path d="M 73.401470230631 95.700143502913 L27.19614713249 97.159418222289 L27.179843142615 96.06244925618 L73.400117547608 94.603054216237 L73.398725954563 93.474407079105 L27.163539152741 94.965480290072 L27.147235162866 93.868511323963 L73.397412181562 92.408875642884 L73.395981678494 91.248670655296 L27.130931172991 92.771542357855 L27.114627183117 91.674573391746 L73.394706815516 90.214697069532 L73.393237402426 89.022934231488 L27.098323193242 90.577604425637 L27.082019203367 89.480635459529 L73.39200144947 88.020518496179 L73.390493126358 86.797197807679 L27.065715213493 88.38366649342 L27.049411223618 87.286697527311 L73.389296083424 85.826339922826 L73.38774885029 84.571461383871 L27.033107233744 86.189728561203 L27.016803243869 85.092759595094 L73.386590717378 83.632161349474 L73.385004574221 82.345724960062 L27.000499253994 83.995790628985 L26.98419526412 82.898821662877 L73.383885351332 81.437982776121 L73.382260298153 80.119988536254 L26.967891274245 81.801852696768 L26.95158728437 80.704883730659 L73.381179985286 79.243804202768 L73.379516022085 77.894252112445 L26.935283294496 79.607914764551 L26.918979304621 78.510945798442 L73.37847461924 77.049625629416 L73.376771746017 75.668515688637 L26.902675314746 77.413976832333 L26.886371324872 76.317007866225 L73.375769253194 74.855447056063 L73.374027469948 73.442779264828 L26.870067334997 75.220038900116 L26.853763345122 74.123069934007 L73.373063887148 72.66126848271 L73.37128319388 71.21704284102 L26.837459355248 73.026100967899 L26.821155365373 71.92913200179 L73.370358521102 70.467089909358 L73.368538917812 68.991306417211 L26.804851375498 70.832163035681 L26.788547385624 69.735194069573 L73.367653155056 68.272911336005 L73.365794641744 66.765569993402 L26.772243395749 68.638225103464 L26.755939405874 67.541256137355 L73.36494778901 66.078732762653 L73.363050365675 64.539833569594 L26.739635416 66.444287171247 L26.723331426125 65.347318205138 L73.362242422964 63.8845541893 L73.360306089607 62.314097145785 L26.70702743625 64.250349239029 L26.690723446376 63.153380272921 L73.359537056918 61.690375615947 L73.357561813539 60.088360721977 L26.674419456501 62.056411306812 L26.658115466626 60.959442340704 L73.356831690872 59.496197042595 L73.354817537471 57.862624298168 L26.641811476752 59.862473374595 L26.625507486877 58.765504408486 L73.354126324826 57.302018469242 L73.352073261402 55.63688787436 L26.609203497002 57.668535442378 L26.592899507128 56.571566476269 L73.35142095878 55.107839895889 L73.349328985334 53.411151450551 L26.576595517253 55.47459751016 L26.560291527378 54.377628544052 L73.348715592734 52.913661322537 L73.346584709266 51.185415026743 L26.543987537504 53.280659577943 L26.527683547629 52.183690611834 L73.346010226688 50.719482749184 L73.343840433198 48.959678602934 L26.511379557754 51.086721645726 L26.49507556788 49.989752679617 L73.343304860642 48.525304175831 L73.341096157129 46.733942179126 L26.478771578005 48.892783713508 L26.46246758813 47.7958147474 L73.340599494596 46.331125602479"/>
  </g></svg>