<?xml version="1.0" encoding="utf-8"?><svg version="1.1" xmlns="http://www.w3.org/2000/svg" xmlns:xlink="http://www.w3.org/1999/xlink" width="350.000000" height="350.000000" viewbox="0 0 350.000000 350.000000">  <g style="stroke-width: 2.000000; stroke: #339 ;stroke-linecap: round; stroke-linejoin: round; fill: none;">  
    <path d="M 74 14 L74 74 L44 74 L44 14 L14 14 L14 74"/>
    <path d="M 80 20 L80 80 L50 80 L50 20 L20 20 L20 80"/>
    <path d="M 86 26 L86 86 L56 86 L56 26 L26 26 L26 86"/>
    <path d="M 92 32 L92 92 L62 92 L62 32 L32 32 L32 92"/>
    <path d="M 98 38 L98 98 L68 98 L68 38 L38 38 L38 98"/>
    <path d="M 74 74 L134 74 L134 44 L74 44 L74 14 L134 14"/>
    <path d="M 80 80 L140 80 L140 50 L80 50 L80 20 L140 20"/>
    <path d="M 86 86 L146 86 L146 56 L86 56 L86 26 L146 26"/>
    <path d="M 92 92 L152 92 L152 62 L92 62 L92 32 L152 32"/>
    <path d="M 98 98 L158 98 L158 68 L98 68 L98 38 L158 38"/>
    <path d="M 134 74 L194 74 L194 44 L134 44 L134 14 L194 14"/>
    <path d="M 140 80 L200 80 L200 50 L140 50 L140 20 L200 20"/>
    <path d="M 146 86 L206 86 L206 56 L146 56 L146 26 L206 26"/>
    <path d="M 152 92 L212 92 L212 62 L152 62 L152 32 L212 32"/>
    <path d="M 158 98 L218 98 L218 68 L158 68 L158 38 L218 38"/>
    <path d="M 254 74 L254 14 L224 14 L224 74 L194 74 L194 14"/>
    <path d="M 260 80 L260 20 L230 20 L230 80 L200 80 L200 20"/>
    <path d="M 266 86 L266 26 L236 26 L236 86 L206 86 L206 26"/>
    <path d="M 272 92 L272 32 L242 32 L242 92 L212 92 L212 32"/>
    <path d="M 278 98 L278 38 L248 38 L248 98 L218 98 L218 38"/>
    <path d="M 254 74 L314 74 L314 44 L254 44 L254 14 L314 14"/>
    <path d="M 260 80 L320 80 L320 50 L260 50 L260 20 L320 20"/>
    <path d="M 266 86 L326 86 L326 56 L266 56 L266 26 L326 26"/>
    <path d="M 272 92 L332 92 L332 62 L272 62 L272 32 L332 32"/>
    <path d="M 278 98 L338 98 L338 68 L278 68 L278 38 L338 38"/>
    <path d="M 14 134 L74 134 L74 104 L14 104 L14 74 L74 74"/>
    <path d="M 20 140 L80 140 L80 110 L20 110 L20 80 L80 80"/>
    <path d="M 26 146 L86 146 L86 116 L26 116 L26 86 L86 86"/>
    <path d="M 32 152 L92 152 L92 122 L32 122 L32 92 L92 92"/>
    <path d="M 38 158 L98 158 L98 128 L38 128 L38 98 L98 98"/>
    <path d="M 134 134 L74 134 L74 104 L134 104 L134 74 L74 74"/>
    <path d="M 140 140 L80 140 L80 110 L140 110 L140 80 L80 80"/>
    <path d="M 146 146 L86 146 L86 116 L146 116 L146 86 L86 86"/>
    <path d="M 152 152 L92 152 L92 122 L152 122 L152 92 L92 92"/>
    <path d="M 158 158 L98 158 L98 128 L158 128 L158 98 L98 98"/>
    <path d="M 194 74 L194 134 L164 134 L164 74 L134 74 L134 134"/>
    <path d="M 200 80 L200 140 L170 140 L170 80 L140 80 L140 140"/>
    <path d="M 206 86 L206 146 L176 146 L176 86 L146 86 L146 146"/>
    <path d="M 212 92 L212 152 L182 152 L182 92 L152 92 L152 152"/>
    <path d="M 218 98 L218 158 L188 158 L188 98 L158 98 L158 158"/>
    <path d="M 194 134 L254 134 L254 104 L194 104 L194 74 L254 74"/>
    <path d="M 200 140 L260 140 L260 110 L200 110 L200 80 L260 80"/>
    <path d="M 206 146 L266 146 L266 116 L206 116 L206 86 L266 86"/>
    <path d="M 212 152 L272 152 L272 122 L212 122 L212 92 L272 92"/>
    <path d="M 218 158 L278 158 L278 128 L218 128 L218 98 L278 98"/>
    <path d="M 254 134 L314 134 L314 104 L254 104 L254 74 L314 74"/>
    <path d="M 260 140 L320 140 L320 110 L260 110 L260 80 L320 80"/>
    <path d="M 266 146 L326 146 L326 116 L266 116 L266 86 L326 86"/>
    <path d="M 272 152 L332 152 L332 122 L272 122 L272 92 L332 92"/>
    <path d="M 278 158 L338 158 L338 128 L278 128 L278 98 L338 98"/>
    <path d="M 74 194 L14 194 L14 164 L74 164 L74 134 L14 134"/>
    <path d="M 80 200 L20 200 L20 170 L80 170 L80 140 L20 140"/>
    <path d="M 86 206 L26 206 L26 176 L86 176 L86 146 L26 146"/>
    <path d="M 92 212 L32 212 L32 182 L92 182 L92 152 L32 152"/>
    <path d="M 98 218 L38 218 L38 188 L98 188 L98 158 L38 158"/>
    <path d="M 134 194 L74 194 L74 164 L134 164 L134 134 L74 134"/>
    <path d="M 140 200 L80 200 L80 170 L140 170 L140 140 L80 140"/>
    <path d="M 146 206 L86 206 L86 176 L146 176 L146 146 L86 146"/>
    <path d="M 152 212 L92 212 L92 182 L152 182 L152 152 L92 152"/>
    <path d="M 158 218 L98 218 L98 188 L158 188 L158 158 L98 158"/>
    <path d="M 134 194 L194 194 L194 164 L134 164 L134 134 L194 134"/>
    <path d="M 140 200 L200 200 L200 170 L140 170 L140 140 L200 140"/>
    <path d="M 146 206 L206 206 L206 176 L146 176 L146 146 L206 146"/>
    <path d="M 152 212 L212 212 L212 182 L152 182 L152 152 L212 152"/>
    <path d="M 158 218 L218 218 L218 188 L158 188 L158 158 L218 158"/>
    <path d="M 194 194 L254 194 L254 164 L194 164 L194 134 L254 134"/>
    <path d="M 200 200 L260 200 L260 170 L200 170 L200 140 L260 140"/>
    <path d="M 206 206 L266 206 L266 176 L206 176 L206 146 L266 146"/>
    <path d="M 212 212 L272 212 L272 182 L212 182 L212 152 L272 152"/>
    <path d="M 218 218 L278 218 L278 188 L218 188 L218 158 L278 158"/>
    <path d="M 314 194 L314 134 L284 134 L284 194 L254 194 L254 134"/>
    <path d="M 320 200 L320 140 L290 140 L290 200 L260 200 L260 140"/>
    <path d="M 326 206 L326 146 L296 146 L296 206 L266 206 L266 146"/>
    <path d="M 332 212 L332 152 L302 152 L302 212 L272 212 L272 152"/>
    <path d="M 338 218 L338 158 L308 158 L308 218 L278 218 L278 158"/>
    <path d="M 74 254 L14 254 L14 224 L74 224 L74 194 L14 194"/>
    <path d="M 80 260 L20 260 L20 230 L80 230 L80 200 L20 200"/>
    <path d="M 86 266 L26 266 L26 236 L86 236 L86 206 L26 206"/>
    <path d="M 92 272 L32 272 L32 242 L92 242 L92 212 L32 212"/>
    <path d="M 98 278 L38 278 L38 248 L98 248 L98 218 L38 218"/>
    <path d="M 74 254 L134 254 L134 224 L74 224 L74 194 L134 194"/>
    <path d="M 80 260 L140 260 L140 230 L80 230 L80 200 L140 200"/>
    <path d="M 86 266 L146 266 L146 236 L86 236 L86 206 L146 206"/>
    <path d="M 92 272 L152 272 L152 242 L92 242 L92 212 L152 212"/>
    <path d="M 98 278 L158 278 L158 248 L98 248 L98 218 L158 218"/>
    <path d="M 134 254 L194 254 L194 224 L134 224 L134 194 L194 194"/>
    <path d="M 140 260 L200 260 L200 230 L140 230 L140 200 L200 200"/>
    <path d="M 146 266 L206 266 L206 236 L146 236 L146 206 L206 206"/>
    <path d="M 152 272 L212 272 L212 242 L152 242 L152 212 L212 212"/>
    <path d="M 158 278 L218 278 L218 248 L158 248 L158 218 L218 218"/>
    <path d="M 254 254 L194 254 L194 224 L254 224 L254 194 L194 194"/>
    <path d="M 260 260 L200 260 L200 230 L260 230 L260 200 L200 200"/>
    <path d="M 266 266 L206 266 L206 236 L266 236 L266 206 L206 206"/>
    <path d="M 272 272 L212 272 L212 242 L272 242 L272 212 L212 212"/>
    <path d="M 278 278 L218 278 L218 248 L278 248 L278 218 L218 218"/>
    <path d="M 314 254 L254 254 L254 224 L314 224 L314 194 L254 194"/>
    <path d="M 320 260 L260 260 L260 230 L320 230 L320 200 L260 200"/>
    <path d="M 326 266 L266 266 L266 236 L326 236 L326 206 L266 206"/>
    <path d="M 332 272 L272 272 L272 242 L332 242 L332 212 L272 212"/>
    <path d="M 338 278 L278 278 L278 248 L338 248 L338 218 L278 218"/>
    <path d="M 14 314 L74 314 L74 284 L14 284 L14 254 L74 254"/>
    <path d="M 20 320 L80 320 L80 290 L20 290 L20 260 L80 260"/>
    <path d="M 26 326 L86 326 L86 296 L26 296 L26 266 L86 266"/>
    <path d="M 32 332 L92 332 L92 302 L32 302 L32 272 L92 272"/>
    <path d="M 38 338 L98 338 L98 308 L38 308 L38 278 L98 278"/>
    <path d="M 74 314 L134 314 L134 284 L74 284 L74 254 L134 254"/>
    <path d="M 80 320 L140 320 L140 290 L80 290 L80 260 L140 260"/>
    <path d="M 86 326 L146 326 L146 296 L86 296 L86 266 L146 266"/>
    <path d="M 92 332 L152 332 L152 302 L92 302 L92 272 L152 272"/>
    <path d="M 98 338 L158 338 L158 308 L98 308 L98 278 L158 278"/>
    <path d="M 134 314 L194 314 L194 284 L134 284 L134 254 L194 254"/>
    <path d="M 140 320 L200 320 L200 290 L140 290 L140 260 L200 260"/>
    <path d="M 146 326 L206 326 L206 296 L146 296 L146 266 L206 266"/>
    <path d="M 152 332 L212 332 L212 302 L152 302 L152 272 L212 272"/>
    <path d="M 158 338 L218 338 L218 308 L158 308 L158 278 L218 278"/>
    <path d="M 254 314 L194 314 L194 284 L254 284 L254 254 L194 254"/>
    <path d="M 260 320 L200 320 L200 290 L260 290 L260 260 L200 260"/>
    <path d="M 266 326 L206 326 L206 296 L266 296 L266 266 L206 266"/>
    <path d="M 272 332 L212 332 L212 302 L272 302 L272 272 L212 272"/>
    <path d="M 278 338 L218 338 L218 308 L278 308 L278 278 L218 278"/>
    <path d="M 254 314 L314 314 L314 284 L254 284 L254 254 L314 254"/>
    <path d="M 260 320 L320 320 L320 290 L260 290 L260 260 L320 260"/>
    <path d="M 266 326 L326 326 L326 296 L266 296 L266 266 L326 266"/>
    <path d="M 272 332 L332 332 L332 302 L272 302 L272 272 L332 272"/>
    <path d="M 278 338 L338 338 L338 308 L278 308 L278 278 L338 278"/>
  </g></svg>