<?xml version="1.0" encoding="utf-8"?><svg version="1.1" xmlns="http://www.w3.org/2000/svg" xmlns:xlink="http://www.w3.org/1999/xlink" width="100.000000" height="140.000000" viewbox="0 0 100.000000 140.000000">  <g style="stroke-width: 0.500000; stroke: #0ff ;stroke-linecap: round; stroke-linejoin: round; fill: none;">  
  </g><g style="stroke-width: 0.500000; stroke: #f0f ;stroke-linecap: round; stroke-linejoin: round; fill: none;">  
    <path d="M 30 30 L70 110"/>
  </g><g style="stroke-width: 1.000000; stroke: #000 ;stroke-linecap: round; stroke-linejoin: round; fill: none;">  
    <path d="M 26.422291236 31.788854382 L33.977708764 29.011145618 L27.222291236 33.388854382 L34.777708764 30.611145618 L28.022291236 34.988854382 L35.577708764 32.211145618 L28.822291236 36.588854382 L36.377708764 33.811145618 L29.622291236 38.188854382 L37.177708764 35.411145618 L30.422291236 39.788854382 L37.977708764 37.011145618 L31.222291236 41.388854382 L38.777708764 38.611145618 L32.022291236 42.988854382 L39.577708764 40.211145618 L32.822291236 44.588854382 L40.377708764 41.811145618 L33.622291236 46.188854382 L41.177708764 43.411145618 L34.422291236 47.788854382 L41.977708764 45.011145618 L35.222291236 49.388854382 L42.777708764 46.611145618 L36.022291236 50.988854382 L43.577708764 48.211145618 L36.822291236 52.588854382 L44.377708764 49.811145618 L37.622291236 54.188854382 L45.177708764 51.411145618 L38.422291236 55.788854382 L45.977708764 53.011145618 L39.222291236 57.388854382 L46.777708764 54.611145618 L40.022291236 58.988854382 L47.577708764 56.211145618 L40.822291236 60.588854382 L48.377708764 57.811145618 L41.622291236 62.188854382 L49.177708764 59.411145618 L42.422291236 63.788854382 L49.977708764 61.011145618 L43.222291236 65.388854382 L50.777708764 62.611145618 L44.022291236 66.988854382 L51.577708764 64.211145618 L44.822291236 68.588854382 L52.377708764 65.811145618 L45.622291236 70.188854382 L53.177708764 67.411145618 L46.422291236 71.788854382 L53.977708764 69.011145618 L47.222291236 73.388854382 L54.777708764 70.611145618 L48.022291236 74.988854382 L55.577708764 72.211145618 L48.822291236 76.588854382 L56.377708764 73.811145618 L49.622291236 78.188854382 L57.177708764 75.411145618 L50.422291236 79.788854382 L57.977708764 77.011145618 L51.222291236 81.388854382 L58.777708764 78.611145618 L52.022291236 82.988854382 L59.577708764 80.211145618 L52.822291236 84.588854382 L60.377708764 81.811145618 L53.622291236 86.188854382 L61.177708764 83.411145618 L54.422291236 87.788854382 L61.977708764 85.011145618 L55.222291236 89.388854382 L62.777708764 86.611145618 L56.022291236 90.988854382 L63.577708764 88.211145618 L56.822291236 92.588854382 L64.377708764 89.811145618 L57.622291236 94.188854382 L65.177708764 91.411145618 L58.422291236 95.788854382 L65.977708764 93.011145618 L59.222291236 97.388854382 L66.777708764 94.611145618 L60.022291236 98.988854382 L67.577708764 96.211145618 L60.822291236 100.588854382 L68.377708764 97.811145618 L61.622291236 102.188854382 L69.177708764 99.411145618 L62.422291236 103.788854382 L69.977708764 101.011145618 L63.222291236 105.388854382 L70.777708764 102.611145618 L64.022291236 106.988854382 L71.577708764 104.211145618 L64.822291236 108.588854382 L72.377708764 105.811145618 L65.622291236 110.188854382 L73.177708764 107.411145618 L66.422291236 111.788854382"/>
  </g></svg>