<?xml version="1.0" encoding="utf-8"?><svg version="1.1" xmlns="http://www.w3.org/2000/svg" xmlns:xlink="http://www.w3.org/1999/xlink" width="140.000000" height="100.000000" viewbox="0 0 140.000000 100.000000">  <g style="stroke-width: 0.375000; stroke: #ff0 ;stroke-linecap: round; stroke-linejoin: round; fill: none;">  
  </g><g style="stroke-width: 1.000000; stroke: #0ff ;stroke-linecap: round; stroke-linejoin: round; fill: none;">  
    <path d="M 72.867672608384 80.316478128922 L89.641083967292 69.423697428622 L88.940833779416 68.345406698406 L72.167422420507 79.238187398707 L71.467172232631 78.159896668491 L88.240583591539 67.267115968191 L87.540333403663 66.188825237975 L70.766922044754 77.081605938276 L70.066671856878 76.00331520806 L86.840083215787 65.11053450776 L86.13983302791 64.032243777544 L69.366421669002 74.925024477845 L68.666171481125 73.846733747629 L85.439582840034 62.953953047328 L84.739332652157 61.875662317113 L67.965921293249 72.768443017413 L67.265671105372 71.690152287198 L84.039082464281 60.797371586897 L83.338832276404 59.719080856682 L66.565420917496 70.611861556982 L65.865170729619 69.533570826767 L82.638582088528 58.640790126466 L81.938331900651 57.562499396251 L65.164920541743 68.455280096551 L64.464670353866 67.376989366336 L81.238081712775 56.484208666035 L80.537831524898 55.40591793582 L63.76442016599 66.29869863612 L63.064169978113 65.220407905905 L79.837581337022 54.327627205604 L79.137331149145 53.249336475389 L62.363919790237 64.142117175689 L61.66366960236 63.063826445474 L78.437080961269 52.171045745173 L77.736830773392 51.092755014957 L60.963419414484 61.985535715258 L60.263169226608 60.907244985042 L77.036580585516 50.014464284742 L76.33633039764 48.936173554526 L59.562919038731 59.828954254827 L58.862668850855 58.750663524611 L75.636080209763 47.857882824311 L74.935830021887 46.779592094095 L58.162418662978 57.672372794396 L57.462168475102 56.59408206418 L74.23557983401 45.70130136388 L73.535329646134 44.623010633664 L56.761918287225 55.515791333965 L56.061668099349 54.437500603749 L72.835079458257 43.544719903449 L72.134829270381 42.466429173233 L55.361417911472 53.359209873534 L54.661167723596 52.280919143318 L71.434579082504 41.388138443018 L70.734328894628 40.309847712802 L53.960917535719 51.202628413103 L53.260667347843 50.124337682887 L70.034078706751 39.231556982587 L69.333828518875 38.153266252371 L52.560417159966 49.046046952671 L51.86016697209 47.967756222456 L68.633578330998 37.074975522155 L67.933328143122 35.99668479194 L51.159916784214 46.88946549224 L50.459666596337 45.811174762025 L67.233077955246 34.918394061724 L66.532827767369 33.840103331509 L49.759416408461 44.732884031809 L49.059166220584 43.654593301594 L65.832577579493 32.761812601293 L65.132327391616 31.683521871078 L48.358916032708 42.576302571378"/>
    <path d="M 71.085770340007 74.398202993823 L88.638259178868 90.766163635323 L89.582564600493 89.753520048465 L72.030075761632 73.385559406965 L72.974381183257 72.372915820108 L90.526870022118 88.740876461608 L91.471175443743 87.728232874751 L73.918686604882 71.360272233251 L74.862992026507 70.347628646393 L92.415480865368 86.715589287893 L93.359786286993 85.702945701036 L75.807297448132 69.334985059536 L76.751602869757 68.322341472679 L94.304091708618 84.690302114179 L95.248397130243 83.677658527321 L77.695908291382 67.309697885821 L78.640213713007 66.297054298964 L96.192702551868 82.665014940464 L97.137007973493 81.652371353607 L79.584519134632 65.284410712107 L80.528824556257 64.271767125249 L98.081313395118 80.639727766749 L99.025618816743 79.627084179892 L81.473129977882 63.259123538392 L82.417435399507 62.246479951535 L99.969924238368 78.614440593035 L100.91422965999 77.601797006177 L83.361740821132 61.233836364677"/>
  </g><g style="stroke-width: 0.600000; stroke: #f0f ;stroke-linecap: round; stroke-linejoin: round; fill: none;">  
    <path d="M 72 62 L92 62 L92 38 L72 38 Z"/>
    <path d="M 76 62 L76 38"/>
    <path d="M 80 62 L80 38"/>
    <path d="M 84 62 L84 38"/>
    <path d="M 88 62 L88 38"/>
    <path d="M 92 42 L72 42"/>
    <path d="M 92 46 L72 46"/>
    <path d="M 92 50 L72 50"/>
    <path d="M 92 54 L72 54"/>
    <path d="M 92 58 L72 58"/>
  </g><g style="stroke-width: 0.500000; stroke: #000 ;stroke-linecap: round; stroke-linejoin: round; fill: none;">  
  </g></svg>