<?xml version="1.0" encoding="utf-8"?><svg version="1.1" xmlns="http://www.w3.org/2000/svg" xmlns:xlink="http://www.w3.org/1999/xlink" width="210.000000" height="297.000000" viewbox="0 0 210.000000 297.000000">  <g style="stroke-width: 1.000000; stroke: #339 ;stroke-linecap: round; stroke-linejoin: round; fill: none;">  
    <path d="M 25.5 55.5 L55.5 55.5 L55.5 40.5 L25.5 40.5 L25.5 25.5 L55.5 25.5"/>
    <path d="M 28.5 58.5 L58.5 58.5 L58.5 43.5 L28.5 43.5 L28.5 28.5 L58.5 28.5"/>
    <path d="M 31.5 61.5 L61.5 61.5 L61.5 46.5 L31.5 46.5 L31.5 31.5 L61.5 31.5"/>
    <path d="M 34.5 64.5 L64.5 64.5 L64.5 49.5 L34.5 49.5 L34.5 34.5 L64.5 34.5"/>
    <path d="M 37.5 67.5 L67.5 67.5 L67.5 52.5 L37.5 52.5 L37.5 37.5 L67.5 37.5"/>
    <path d="M 55.5 55.5 L85.5 55.5 L85.5 40.5 L55.5 40.5 L55.5 25.5 L85.5 25.5"/>
    <path d="M 58.5 58.5 L88.5 58.5 L88.5 43.5 L58.5 43.5 L58.5 28.5 L88.5 28.5"/>
    <path d="M 61.5 61.5 L91.5 61.5 L91.5 46.5 L61.5 46.5 L61.5 31.5 L91.5 31.5"/>
    <path d="M 64.5 64.5 L94.5 64.5 L94.5 49.5 L64.5 49.5 L64.5 34.5 L94.5 34.5"/>
    <path d="M 67.5 67.5 L97.5 67.5 L97.5 52.5 L67.5 52.5 L67.5 37.5 L97.5 37.5"/>
    <path d="M 115.5 55.5 L85.5 55.5 L85.5 40.5 L115.5 40.5 L115.5 25.5 L85.5 25.5"/>
    <path d="M 118.5 58.5 L88.5 58.5 L88.5 43.5 L118.5 43.5 L118.5 28.5 L88.5 28.5"/>
    <path d="M 121.5 61.5 L91.5 61.5 L91.5 46.5 L121.5 46.5 L121.5 31.5 L91.5 31.5"/>
    <path d="M 124.5 64.5 L94.5 64.5 L94.5 49.5 L124.5 49.5 L124.5 34.5 L94.5 34.5"/>
    <path d="M 127.5 67.5 L97.5 67.5 L97.5 52.5 L127.5 52.5 L127.5 37.5 L97.5 37.5"/>
    <path d="M 145.5 25.5 L145.5 55.5 L130.5 55.5 L130.5 25.5 L115.5 25.5 L115.5 55.5"/>
    <path d="M 148.5 28.5 L148.5 58.5 L133.5 58.5 L133.5 28.5 L118.5 28.5 L118.5 58.5"/>
    <path d="M 151.5 31.5 L151.5 61.5 L136.5 61.5 L136.5 31.5 L121.5 31.5 L121.5 61.5"/>
    <path d="M 154.5 34.5 L154.5 64.5 L139.5 64.5 L139.5 34.5 L124.5 34.5 L124.5 64.5"/>
    <path d="M 157.5 37.5 L157.5 67.5 L142.5 67.5 L142.5 37.5 L127.5 37.5 L127.5 67.5"/>
    <path d="M 175.5 55.5 L175.5 25.5 L160.5 25.5 L160.5 55.5 L145.5 55.5 L145.5 25.5"/>
    <path d="M 178.5 58.5 L178.5 28.5 L163.5 28.5 L163.5 58.5 L148.5 58.5 L148.5 28.5"/>
    <path d="M 181.5 61.5 L181.5 31.5 L166.5 31.5 L166.5 61.5 L151.5 61.5 L151.5 31.5"/>
    <path d="M 184.5 64.5 L184.5 34.5 L169.5 34.5 L169.5 64.5 L154.5 64.5 L154.5 34.5"/>
    <path d="M 187.5 67.5 L187.5 37.5 L172.5 37.5 L172.5 67.5 L157.5 67.5 L157.5 37.5"/>
    <path d="M 55.5 85.5 L55.5 55.5 L40.5 55.5 L40.5 85.5 L25.5 85.5 L25.5 55.5"/>
    <path d="M 58.5 88.5 L58.5 58.5 L43.5 58.5 L43.5 88.5 L28.5 88.5 L28.5 58.5"/>
    <path d="M 61.5 91.5 L61.5 61.5 L46.5 61.5 L46.5 91.5 L31.5 91.5 L31.5 61.5"/>
    <path d="M 64.5 94.5 L64.5 64.5 L49.5 64.5 L49.5 94.5 L34.5 94.5 L34.5 64.5"/>
    <path d="M 67.5 97.5 L67.5 67.5 L52.5 67.5 L52.5 97.5 L37.5 97.5 L37.5 67.5"/>
    <path d="M 85.5 85.5 L55.5 85.5 L55.5 70.5 L85.5 70.5 L85.5 55.5 L55.5 55.5"/>
    <path d="M 88.5 88.5 L58.5 88.5 L58.5 73.5 L88.5 73.5 L88.5 58.5 L58.5 58.5"/>
    <path d="M 91.5 91.5 L61.5 91.5 L61.5 76.5 L91.5 76.5 L91.5 61.5 L61.5 61.5"/>
    <path d="M 94.5 94.5 L64.5 94.5 L64.5 79.5 L94.5 79.5 L94.5 64.5 L64.5 64.5"/>
    <path d="M 97.5 97.5 L67.5 97.5 L67.5 82.5 L97.5 82.5 L97.5 67.5 L67.5 67.5"/>
    <path d="M 115.5 85.5 L85.5 85.5 L85.5 70.5 L115.5 70.5 L115.5 55.5 L85.5 55.5"/>
    <path d="M 118.5 88.5 L88.5 88.5 L88.5 73.5 L118.5 73.5 L118.5 58.5 L88.5 58.5"/>
    <path d="M 121.5 91.5 L91.5 91.5 L91.5 76.5 L121.5 76.5 L121.5 61.5 L91.5 61.5"/>
    <path d="M 124.5 94.5 L94.5 94.5 L94.5 79.5 L124.5 79.5 L124.5 64.5 L94.5 64.5"/>
    <path d="M 127.5 97.5 L97.5 97.5 L97.5 82.5 L127.5 82.5 L127.5 67.5 L97.5 67.5"/>
    <path d="M 145.5 85.5 L145.5 55.5 L130.5 55.5 L130.5 85.5 L115.5 85.5 L115.5 55.5"/>
    <path d="M 148.5 88.5 L148.5 58.5 L133.5 58.5 L133.5 88.5 L118.5 88.5 L118.5 58.5"/>
    <path d="M 151.5 91.5 L151.5 61.5 L136.5 61.5 L136.5 91.5 L121.5 91.5 L121.5 61.5"/>
    <path d="M 154.5 94.5 L154.5 64.5 L139.5 64.5 L139.5 94.5 L124.5 94.5 L124.5 64.5"/>
    <path d="M 157.5 97.5 L157.5 67.5 L142.5 67.5 L142.5 97.5 L127.5 97.5 L127.5 67.5"/>
    <path d="M 145.5 85.5 L175.5 85.5 L175.5 70.5 L145.5 70.5 L145.5 55.5 L175.5 55.5"/>
    <path d="M 148.5 88.5 L178.5 88.5 L178.5 73.5 L148.5 73.5 L148.5 58.5 L178.5 58.5"/>
    <path d="M 151.5 91.5 L181.5 91.5 L181.5 76.5 L151.5 76.5 L151.5 61.5 L181.5 61.5"/>
    <path d="M 154.5 94.5 L184.5 94.5 L184.5 79.5 L154.5 79.5 L154.5 64.5 L184.5 64.5"/>
    <path d="M 157.5 97.5 L187.5 97.5 L187.5 82.5 L157.5 82.5 L157.5 67.5 L187.5 67.5"/>
    <path d="M 55.5 115.5 L55.5 85.5 L40.5 85.5 L40.5 115.5 L25.5 115.5 L25.5 85.5"/>
    <path d="M 58.5 118.5 L58.5 88.5 L43.5 88.5 L43.5 118.5 L28.5 118.5 L28.5 88.5"/>
    <path d="M 61.5 121.5 L61.5 91.5 L46.5 91.5 L46.5 121.5 L31.5 121.5 L31.5 91.5"/>
    <path d="M 64.5 124.5 L64.5 94.5 L49.5 94.5 L49.5 124.5 L34.5 124.5 L34.5 94.5"/>
    <path d="M 67.5 127.5 L67.5 97.5 L52.5 97.5 L52.5 127.5 L37.5 127.5 L37.5 97.5"/>
    <path d="M 85.5 85.5 L85.5 115.5 L70.5 115.5 L70.5 85.5 L55.5 85.5 L55.5 115.5"/>
    <path d="M 88.5 88.5 L88.5 118.5 L73.5 118.5 L73.5 88.5 L58.5 88.5 L58.5 118.5"/>
    <path d="M 91.5 91.5 L91.5 121.5 L76.5 121.5 L76.5 91.5 L61.5 91.5 L61.5 121.5"/>
    <path d="M 94.5 94.5 L94.5 124.5 L79.5 124.5 L79.5 94.5 L64.5 94.5 L64.5 124.5"/>
    <path d="M 97.5 97.5 L97.5 127.5 L82.5 127.5 L82.5 97.5 L67.5 97.5 L67.5 127.5"/>
    <path d="M 115.5 85.5 L115.5 115.5 L100.5 115.5 L100.5 85.5 L85.5 85.5 L85.5 115.5"/>
    <path d="M 118.5 88.5 L118.5 118.5 L103.5 118.5 L103.5 88.5 L88.5 88.5 L88.5 118.5"/>
    <path d="M 121.5 91.5 L121.5 121.5 L106.5 121.5 L106.5 91.5 L91.5 91.5 L91.5 121.5"/>
    <path d="M 124.5 94.5 L124.5 124.5 L109.5 124.5 L109.5 94.5 L94.5 94.5 L94.5 124.5"/>
    <path d="M 127.5 97.5 L127.5 127.5 L112.5 127.5 L112.5 97.5 L97.5 97.5 L97.5 127.5"/>
    <path d="M 115.5 115.5 L145.5 115.5 L145.5 100.5 L115.5 100.5 L115.5 85.5 L145.5 85.5"/>
    <path d="M 118.5 118.5 L148.5 118.5 L148.5 103.5 L118.5 103.5 L118.5 88.5 L148.5 88.5"/>
    <path d="M 121.5 121.5 L151.5 121.5 L151.5 106.5 L121.5 106.5 L121.5 91.5 L151.5 91.5"/>
    <path d="M 124.5 124.5 L154.5 124.5 L154.5 109.5 L124.5 109.5 L124.5 94.5 L154.5 94.5"/>
    <path d="M 127.5 127.5 L157.5 127.5 L157.5 112.5 L127.5 112.5 L127.5 97.5 L157.5 97.5"/>
    <path d="M 175.5 115.5 L175.5 85.5 L160.5 85.5 L160.5 115.5 L145.5 115.5 L145.5 85.5"/>
    <path d="M 178.5 118.5 L178.5 88.5 L163.5 88.5 L163.5 118.5 L148.5 118.5 L148.5 88.5"/>
    <path d="M 181.5 121.5 L181.5 91.5 L166.5 91.5 L166.5 121.5 L151.5 121.5 L151.5 91.5"/>
    <path d="M 184.5 124.5 L184.5 94.5 L169.5 94.5 L169.5 124.5 L154.5 124.5 L154.5 94.5"/>
    <path d="M 187.5 127.5 L187.5 97.5 L172.5 97.5 L172.5 127.5 L157.5 127.5 L157.5 97.5"/>
    <path d="M 55.5 145.5 L55.5 115.5 L40.5 115.5 L40.5 145.5 L25.5 145.5 L25.5 115.5"/>
    <path d="M 58.5 148.5 L58.5 118.5 L43.5 118.5 L43.5 148.5 L28.5 148.5 L28.5 118.5"/>
    <path d="M 61.5 151.5 L61.5 121.5 L46.5 121.5 L46.5 151.5 L31.5 151.5 L31.5 121.5"/>
    <path d="M 64.5 154.5 L64.5 124.5 L49.5 124.5 L49.5 154.5 L34.5 154.5 L34.5 124.5"/>
    <path d="M 67.5 157.5 L67.5 127.5 L52.5 127.5 L52.5 157.5 L37.5 157.5 L37.5 127.5"/>
    <path d="M 85.5 115.5 L85.5 145.5 L70.5 145.5 L70.5 115.5 L55.5 115.5 L55.5 145.5"/>
    <path d="M 88.5 118.5 L88.5 148.5 L73.5 148.5 L73.5 118.5 L58.5 118.5 L58.5 148.5"/>
    <path d="M 91.5 121.5 L91.5 151.5 L76.5 151.5 L76.5 121.5 L61.5 121.5 L61.5 151.5"/>
    <path d="M 94.5 124.5 L94.5 154.5 L79.5 154.5 L79.5 124.5 L64.5 124.5 L64.5 154.5"/>
    <path d="M 97.5 127.5 L97.5 157.5 L82.5 157.5 L82.5 127.5 L67.5 127.5 L67.5 157.5"/>
    <path d="M 115.5 145.5 L115.5 115.5 L100.5 115.5 L100.5 145.5 L85.5 145.5 L85.5 115.5"/>
    <path d="M 118.5 148.5 L118.5 118.5 L103.5 118.5 L103.5 148.5 L88.5 148.5 L88.5 118.5"/>
    <path d="M 121.5 151.5 L121.5 121.5 L106.5 121.5 L106.5 151.5 L91.5 151.5 L91.5 121.5"/>
    <path d="M 124.5 154.5 L124.5 124.5 L109.5 124.5 L109.5 154.5 L94.5 154.5 L94.5 124.5"/>
    <path d="M 127.5 157.5 L127.5 127.5 L112.5 127.5 L112.5 157.5 L97.5 157.5 L97.5 127.5"/>
    <path d="M 145.5 115.5 L145.5 145.5 L130.5 145.5 L130.5 115.5 L115.5 115.5 L115.5 145.5"/>
    <path d="M 148.5 118.5 L148.5 148.5 L133.5 148.5 L133.5 118.5 L118.5 118.5 L118.5 148.5"/>
    <path d="M 151.5 121.5 L151.5 151.5 L136.5 151.5 L136.5 121.5 L121.5 121.5 L121.5 151.5"/>
    <path d="M 154.5 124.5 L154.5 154.5 L139.5 154.5 L139.5 124.5 L124.5 124.5 L124.5 154.5"/>
    <path d="M 157.5 127.5 L157.5 157.5 L142.5 157.5 L142.5 127.5 L127.5 127.5 L127.5 157.5"/>
    <path d="M 175.5 145.5 L145.5 145.5 L145.5 130.5 L175.5 130.5 L175.5 115.5 L145.5 115.5"/>
    <path d="M 178.5 148.5 L148.5 148.5 L148.5 133.5 L178.5 133.5 L178.5 118.5 L148.5 118.5"/>
    <path d="M 181.5 151.5 L151.5 151.5 L151.5 136.5 L181.5 136.5 L181.5 121.5 L151.5 121.5"/>
    <path d="M 184.5 154.5 L154.5 154.5 L154.5 139.5 L184.5 139.5 L184.5 124.5 L154.5 124.5"/>
    <path d="M 187.5 157.5 L157.5 157.5 L157.5 142.5 L187.5 142.5 L187.5 127.5 L157.5 127.5"/>
    <path d="M 55.5 175.5 L55.5 145.5 L40.5 145.5 L40.5 175.5 L25.5 175.5 L25.5 145.5"/>
    <path d="M 58.5 178.5 L58.5 148.5 L43.5 148.5 L43.5 178.5 L28.5 178.5 L28.5 148.5"/>
    <path d="M 61.5 181.5 L61.5 151.5 L46.5 151.5 L46.5 181.5 L31.5 181.5 L31.5 151.5"/>
    <path d="M 64.5 184.5 L64.5 154.5 L49.5 154.5 L49.5 184.5 L34.5 184.5 L34.5 154.5"/>
    <path d="M 67.5 187.5 L67.5 157.5 L52.5 157.5 L52.5 187.5 L37.5 187.5 L37.5 157.5"/>
    <path d="M 85.5 175.5 L85.5 145.5 L70.5 145.5 L70.5 175.5 L55.5 175.5 L55.5 145.5"/>
    <path d="M 88.5 178.5 L88.5 148.5 L73.5 148.5 L73.5 178.5 L58.5 178.5 L58.5 148.5"/>
    <path d="M 91.5 181.5 L91.5 151.5 L76.5 151.5 L76.5 181.5 L61.5 181.5 L61.5 151.5"/>
    <path d="M 94.5 184.5 L94.5 154.5 L79.5 154.5 L79.5 184.5 L64.5 184.5 L64.5 154.5"/>
    <path d="M 97.5 187.5 L97.5 157.5 L82.5 157.5 L82.5 187.5 L67.5 187.5 L67.5 157.5"/>
    <path d="M 115.5 175.5 L115.5 145.5 L100.5 145.5 L100.5 175.5 L85.5 175.5 L85.5 145.5"/>
    <path d="M 118.5 178.5 L118.5 148.5 L103.5 148.5 L103.5 178.5 L88.5 178.5 L88.5 148.5"/>
    <path d="M 121.5 181.5 L121.5 151.5 L106.5 151.5 L106.5 181.5 L91.5 181.5 L91.5 151.5"/>
    <path d="M 124.5 184.5 L124.5 154.5 L109.5 154.5 L109.5 184.5 L94.5 184.5 L94.5 154.5"/>
    <path d="M 127.5 187.5 L127.5 157.5 L112.5 157.5 L112.5 187.5 L97.5 187.5 L97.5 157.5"/>
    <path d="M 115.5 175.5 L145.5 175.5 L145.5 160.5 L115.5 160.5 L115.5 145.5 L145.5 145.5"/>
    <path d="M 118.5 178.5 L148.5 178.5 L148.5 163.5 L118.5 163.5 L118.5 148.5 L148.5 148.5"/>
    <path d="M 121.5 181.5 L151.5 181.5 L151.5 166.5 L121.5 166.5 L121.5 151.5 L151.5 151.5"/>
    <path d="M 124.5 184.5 L154.5 184.5 L154.5 169.5 L124.5 169.5 L124.5 154.5 L154.5 154.5"/>
    <path d="M 127.5 187.5 L157.5 187.5 L157.5 172.5 L127.5 172.5 L127.5 157.5 L157.5 157.5"/>
    <path d="M 145.5 175.5 L175.5 175.5 L175.5 160.5 L145.5 160.5 L145.5 145.5 L175.5 145.5"/>
    <path d="M 148.5 178.5 L178.5 178.5 L178.5 163.5 L148.5 163.5 L148.5 148.5 L178.5 148.5"/>
    <path d="M 151.5 181.5 L181.5 181.5 L181.5 166.5 L151.5 166.5 L151.5 151.5 L181.5 151.5"/>
    <path d="M 154.5 184.5 L184.5 184.5 L184.5 169.5 L154.5 169.5 L154.5 154.5 L184.5 154.5"/>
    <path d="M 157.5 187.5 L187.5 187.5 L187.5 172.5 L157.5 172.5 L157.5 157.5 L187.5 157.5"/>
    <path d="M 55.5 205.5 L55.5 175.5 L40.5 175.5 L40.5 205.5 L25.5 205.5 L25.5 175.5"/>
    <path d="M 58.5 208.5 L58.5 178.5 L43.5 178.5 L43.5 208.5 L28.5 208.5 L28.5 178.5"/>
    <path d="M 61.5 211.5 L61.5 181.5 L46.5 181.5 L46.5 211.5 L31.5 211.5 L31.5 181.5"/>
    <path d="M 64.5 214.5 L64.5 184.5 L49.5 184.5 L49.5 214.5 L34.5 214.5 L34.5 184.5"/>
    <path d="M 67.5 217.5 L67.5 187.5 L52.5 187.5 L52.5 217.5 L37.5 217.5 L37.5 187.5"/>
    <path d="M 85.5 205.5 L55.5 205.5 L55.5 190.5 L85.5 190.5 L85.5 175.5 L55.5 175.5"/>
    <path d="M 88.5 208.5 L58.5 208.5 L58.5 193.5 L88.5 193.5 L88.5 178.5 L58.5 178.5"/>
    <path d="M 91.5 211.5 L61.5 211.5 L61.5 196.5 L91.5 196.5 L91.5 181.5 L61.5 181.5"/>
    <path d="M 94.5 214.5 L64.5 214.5 L64.5 199.5 L94.5 199.5 L94.5 184.5 L64.5 184.5"/>
    <path d="M 97.5 217.5 L67.5 217.5 L67.5 202.5 L97.5 202.5 L97.5 187.5 L67.5 187.5"/>
    <path d="M 115.5 175.5 L115.5 205.5 L100.5 205.5 L100.5 175.5 L85.5 175.5 L85.5 205.5"/>
    <path d="M 118.5 178.5 L118.5 208.5 L103.5 208.5 L103.5 178.5 L88.5 178.5 L88.5 208.5"/>
    <path d="M 121.5 181.5 L121.5 211.5 L106.5 211.5 L106.5 181.5 L91.5 181.5 L91.5 211.5"/>
    <path d="M 124.5 184.5 L124.5 214.5 L109.5 214.5 L109.5 184.5 L94.5 184.5 L94.5 214.5"/>
    <path d="M 127.5 187.5 L127.5 217.5 L112.5 217.5 L112.5 187.5 L97.5 187.5 L97.5 217.5"/>
    <path d="M 145.5 205.5 L145.5 175.5 L130.5 175.5 L130.5 205.5 L115.5 205.5 L115.5 175.5"/>
    <path d="M 148.5 208.5 L148.5 178.5 L133.5 178.5 L133.5 208.5 L118.5 208.5 L118.5 178.5"/>
    <path d="M 151.5 211.5 L151.5 181.5 L136.5 181.5 L136.5 211.5 L121.5 211.5 L121.5 181.5"/>
    <path d="M 154.5 214.5 L154.5 184.5 L139.5 184.5 L139.5 214.5 L124.5 214.5 L124.5 184.5"/>
    <path d="M 157.5 217.5 L157.5 187.5 L142.5 187.5 L142.5 217.5 L127.5 217.5 L127.5 187.5"/>
    <path d="M 175.5 205.5 L175.5 175.5 L160.5 175.5 L160.5 205.5 L145.5 205.5 L145.5 175.5"/>
    <path d="M 178.5 208.5 L178.5 178.5 L163.5 178.5 L163.5 208.5 L148.5 208.5 L148.5 178.5"/>
    <path d="M 181.5 211.5 L181.5 181.5 L166.5 181.5 L166.5 211.5 L151.5 211.5 L151.5 181.5"/>
    <path d="M 184.5 214.5 L184.5 184.5 L169.5 184.5 L169.5 214.5 L154.5 214.5 L154.5 184.5"/>
    <path d="M 187.5 217.5 L187.5 187.5 L172.5 187.5 L172.5 217.5 L157.5 217.5 L157.5 187.5"/>
    <path d="M 55.5 235.5 L25.5 235.5 L25.5 220.5 L55.5 220.5 L55.5 205.5 L25.5 205.5"/>
    <path d="M 58.5 238.5 L28.5 238.5 L28.5 223.5 L58.5 223.5 L58.5 208.5 L28.5 208.5"/>
    <path d="M 61.5 241.5 L31.5 241.5 L31.5 226.5 L61.5 226.5 L61.5 211.5 L31.5 211.5"/>
    <path d="M 64.5 244.5 L34.5 244.5 L34.5 229.5 L64.5 229.5 L64.5 214.5 L34.5 214.5"/>
    <path d="M 67.5 247.5 L37.5 247.5 L37.5 232.5 L67.5 232.5 L67.5 217.5 L37.5 217.5"/>
    <path d="M 55.5 235.5 L85.5 235.5 L85.5 220.5 L55.5 220.5 L55.5 205.5 L85.5 205.5"/>
    <path d="M 58.5 238.5 L88.5 238.5 L88.5 223.5 L58.5 223.5 L58.5 208.5 L88.5 208.5"/>
    <path d="M 61.5 241.5 L91.5 241.5 L91.5 226.5 L61.5 226.5 L61.5 211.5 L91.5 211.5"/>
    <path d="M 64.5 244.5 L94.5 244.5 L94.5 229.5 L64.5 229.5 L64.5 214.5 L94.5 214.5"/>
    <path d="M 67.5 247.5 L97.5 247.5 L97.5 232.5 L67.5 232.5 L67.5 217.5 L97.5 217.5"/>
    <path d="M 115.5 235.5 L115.5 205.5 L100.5 205.5 L100.5 235.5 L85.5 235.5 L85.5 205.5"/>
    <path d="M 118.5 238.5 L118.5 208.5 L103.5 208.5 L103.5 238.5 L88.5 238.5 L88.5 208.5"/>
    <path d="M 121.5 241.5 L121.5 211.5 L106.5 211.5 L106.5 241.5 L91.5 241.5 L91.5 211.5"/>
    <path d="M 124.5 244.5 L124.5 214.5 L109.5 214.5 L109.5 244.5 L94.5 244.5 L94.5 214.5"/>
    <path d="M 127.5 247.5 L127.5 217.5 L112.5 217.5 L112.5 247.5 L97.5 247.5 L97.5 217.5"/>
    <path d="M 145.5 235.5 L145.5 205.5 L130.5 205.5 L130.5 235.5 L115.5 235.5 L115.5 205.5"/>
    <path d="M 148.5 238.5 L148.5 208.5 L133.5 208.5 L133.5 238.5 L118.5 238.5 L118.5 208.5"/>
    <path d="M 151.5 241.5 L151.5 211.5 L136.5 211.5 L136.5 241.5 L121.5 241.5 L121.5 211.5"/>
    <path d="M 154.5 244.5 L154.5 214.5 L139.5 214.5 L139.5 244.5 L124.5 244.5 L124.5 214.5"/>
    <path d="M 157.5 247.5 L157.5 217.5 L142.5 217.5 L142.5 247.5 L127.5 247.5 L127.5 217.5"/>
    <path d="M 145.5 235.5 L175.5 235.5 L175.5 220.5 L145.5 220.5 L145.5 205.5 L175.5 205.5"/>
    <path d="M 148.5 238.5 L178.5 238.5 L178.5 223.5 L148.5 223.5 L148.5 208.5 L178.5 208.5"/>
    <path d="M 151.5 241.5 L181.5 241.5 L181.5 226.5 L151.5 226.5 L151.5 211.5 L181.5 211.5"/>
    <path d="M 154.5 244.5 L184.5 244.5 L184.5 229.5 L154.5 229.5 L154.5 214.5 L184.5 214.5"/>
    <path d="M 157.5 247.5 L187.5 247.5 L187.5 232.5 L157.5 232.5 L157.5 217.5 L187.5 217.5"/>
  </g></svg>