<?xml version="1.0" encoding="utf-8"?><svg version="1.1" xmlns="http://www.w3.org/2000/svg" xmlns:xlink="http://www.w3.org/1999/xlink" width="297.000000" height="210.000000" viewbox="0 0 297.000000 210.000000">  <g style="stroke-width: 0.750000; stroke: #339 ;stroke-linecap: round; stroke-linejoin: round; fill: none;">  
    <path d="M 52 32 L52 52 L42 52 L42 32 L32 32 L32 52"/>
    <path d="M 54 34 L54 54 L44 54 L44 34 L34 34 L34 54"/>
    <path d="M 56 36 L56 56 L46 56 L46 36 L36 36 L36 56"/>
    <path d="M 58 38 L58 58 L48 58 L48 38 L38 38 L38 58"/>
    <path d="M 60 40 L60 60 L50 60 L50 40 L40 40 L40 60"/>
    <path d="M 72 52 L52 52 L52 42 L72 42 L72 32 L52 32"/>
    <path d="M 74 54 L54 54 L54 44 L74 44 L74 34 L54 34"/>
    <path d="M 76 56 L56 56 L56 46 L76 46 L76 36 L56 36"/>
    <path d="M 78 58 L58 58 L58 48 L78 48 L78 38 L58 38"/>
    <path d="M 80 60 L60 60 L60 50 L80 50 L80 40 L60 40"/>
    <path d="M 72 52 L92 52 L92 42 L72 42 L72 32 L92 32"/>
    <path d="M 74 54 L94 54 L94 44 L74 44 L74 34 L94 34"/>
    <path d="M 76 56 L96 56 L96 46 L76 46 L76 36 L96 36"/>
    <path d="M 78 58 L98 58 L98 48 L78 48 L78 38 L98 38"/>
    <path d="M 80 60 L100 60 L100 50 L80 50 L80 40 L100 40"/>
    <path d="M 112 52 L92 52 L92 42 L112 42 L112 32 L92 32"/>
    <path d="M 114 54 L94 54 L94 44 L114 44 L114 34 L94 34"/>
    <path d="M 116 56 L96 56 L96 46 L116 46 L116 36 L96 36"/>
    <path d="M 118 58 L98 58 L98 48 L118 48 L118 38 L98 38"/>
    <path d="M 120 60 L100 60 L100 50 L120 50 L120 40 L100 40"/>
    <path d="M 112 52 L132 52 L132 42 L112 42 L112 32 L132 32"/>
    <path d="M 114 54 L134 54 L134 44 L114 44 L114 34 L134 34"/>
    <path d="M 116 56 L136 56 L136 46 L116 46 L116 36 L136 36"/>
    <path d="M 118 58 L138 58 L138 48 L118 48 L118 38 L138 38"/>
    <path d="M 120 60 L140 60 L140 50 L120 50 L120 40 L140 40"/>
    <path d="M 152 32 L152 52 L142 52 L142 32 L132 32 L132 52"/>
    <path d="M 154 34 L154 54 L144 54 L144 34 L134 34 L134 54"/>
    <path d="M 156 36 L156 56 L146 56 L146 36 L136 36 L136 56"/>
    <path d="M 158 38 L158 58 L148 58 L148 38 L138 38 L138 58"/>
    <path d="M 160 40 L160 60 L150 60 L150 40 L140 40 L140 60"/>
    <path d="M 172 52 L152 52 L152 42 L172 42 L172 32 L152 32"/>
    <path d="M 174 54 L154 54 L154 44 L174 44 L174 34 L154 34"/>
    <path d="M 176 56 L156 56 L156 46 L176 46 L176 36 L156 36"/>
    <path d="M 178 58 L158 58 L158 48 L178 48 L178 38 L158 38"/>
    <path d="M 180 60 L160 60 L160 50 L180 50 L180 40 L160 40"/>
    <path d="M 172 52 L192 52 L192 42 L172 42 L172 32 L192 32"/>
    <path d="M 174 54 L194 54 L194 44 L174 44 L174 34 L194 34"/>
    <path d="M 176 56 L196 56 L196 46 L176 46 L176 36 L196 36"/>
    <path d="M 178 58 L198 58 L198 48 L178 48 L178 38 L198 38"/>
    <path d="M 180 60 L200 60 L200 50 L180 50 L180 40 L200 40"/>
    <path d="M 192 52 L212 52 L212 42 L192 42 L192 32 L212 32"/>
    <path d="M 194 54 L214 54 L214 44 L194 44 L194 34 L214 34"/>
    <path d="M 196 56 L216 56 L216 46 L196 46 L196 36 L216 36"/>
    <path d="M 198 58 L218 58 L218 48 L198 48 L198 38 L218 38"/>
    <path d="M 200 60 L220 60 L220 50 L200 50 L200 40 L220 40"/>
    <path d="M 232 52 L232 32 L222 32 L222 52 L212 52 L212 32"/>
    <path d="M 234 54 L234 34 L224 34 L224 54 L214 54 L214 34"/>
    <path d="M 236 56 L236 36 L226 36 L226 56 L216 56 L216 36"/>
    <path d="M 238 58 L238 38 L228 38 L228 58 L218 58 L218 38"/>
    <path d="M 240 60 L240 40 L230 40 L230 60 L220 60 L220 40"/>
    <path d="M 52 72 L32 72 L32 62 L52 62 L52 52 L32 52"/>
    <path d="M 54 74 L34 74 L34 64 L54 64 L54 54 L34 54"/>
    <path d="M 56 76 L36 76 L36 66 L56 66 L56 56 L36 56"/>
    <path d="M 58 78 L38 78 L38 68 L58 68 L58 58 L38 58"/>
    <path d="M 60 80 L40 80 L40 70 L60 70 L60 60 L40 60"/>
    <path d="M 72 52 L72 72 L62 72 L62 52 L52 52 L52 72"/>
    <path d="M 74 54 L74 74 L64 74 L64 54 L54 54 L54 74"/>
    <path d="M 76 56 L76 76 L66 76 L66 56 L56 56 L56 76"/>
    <path d="M 78 58 L78 78 L68 78 L68 58 L58 58 L58 78"/>
    <path d="M 80 60 L80 80 L70 80 L70 60 L60 60 L60 80"/>
    <path d="M 92 52 L92 72 L82 72 L82 52 L72 52 L72 72"/>
    <path d="M 94 54 L94 74 L84 74 L84 54 L74 54 L74 74"/>
    <path d="M 96 56 L96 76 L86 76 L86 56 L76 56 L76 76"/>
    <path d="M 98 58 L98 78 L88 78 L88 58 L78 58 L78 78"/>
    <path d="M 100 60 L100 80 L90 80 L90 60 L80 60 L80 80"/>
    <path d="M 92 72 L112 72 L112 62 L92 62 L92 52 L112 52"/>
    <path d="M 94 74 L114 74 L114 64 L94 64 L94 54 L114 54"/>
    <path d="M 96 76 L116 76 L116 66 L96 66 L96 56 L116 56"/>
    <path d="M 98 78 L118 78 L118 68 L98 68 L98 58 L118 58"/>
    <path d="M 100 80 L120 80 L120 70 L100 70 L100 60 L120 60"/>
    <path d="M 132 52 L132 72 L122 72 L122 52 L112 52 L112 72"/>
    <path d="M 134 54 L134 74 L124 74 L124 54 L114 54 L114 74"/>
    <path d="M 136 56 L136 76 L126 76 L126 56 L116 56 L116 76"/>
    <path d="M 138 58 L138 78 L128 78 L128 58 L118 58 L118 78"/>
    <path d="M 140 60 L140 80 L130 80 L130 60 L120 60 L120 80"/>
    <path d="M 152 72 L152 52 L142 52 L142 72 L132 72 L132 52"/>
    <path d="M 154 74 L154 54 L144 54 L144 74 L134 74 L134 54"/>
    <path d="M 156 76 L156 56 L146 56 L146 76 L136 76 L136 56"/>
    <path d="M 158 78 L158 58 L148 58 L148 78 L138 78 L138 58"/>
    <path d="M 160 80 L160 60 L150 60 L150 80 L140 80 L140 60"/>
    <path d="M 152 72 L172 72 L172 62 L152 62 L152 52 L172 52"/>
    <path d="M 154 74 L174 74 L174 64 L154 64 L154 54 L174 54"/>
    <path d="M 156 76 L176 76 L176 66 L156 66 L156 56 L176 56"/>
    <path d="M 158 78 L178 78 L178 68 L158 68 L158 58 L178 58"/>
    <path d="M 160 80 L180 80 L180 70 L160 70 L160 60 L180 60"/>
    <path d="M 192 72 L192 52 L182 52 L182 72 L172 72 L172 52"/>
    <path d="M 194 74 L194 54 L184 54 L184 74 L174 74 L174 54"/>
    <path d="M 196 76 L196 56 L186 56 L186 76 L176 76 L176 56"/>
    <path d="M 198 78 L198 58 L188 58 L188 78 L178 78 L178 58"/>
    <path d="M 200 80 L200 60 L190 60 L190 80 L180 80 L180 60"/>
    <path d="M 212 52 L212 72 L202 72 L202 52 L192 52 L192 72"/>
    <path d="M 214 54 L214 74 L204 74 L204 54 L194 54 L194 74"/>
    <path d="M 216 56 L216 76 L206 76 L206 56 L196 56 L196 76"/>
    <path d="M 218 58 L218 78 L208 78 L208 58 L198 58 L198 78"/>
    <path d="M 220 60 L220 80 L210 80 L210 60 L200 60 L200 80"/>
    <path d="M 232 72 L212 72 L212 62 L232 62 L232 52 L212 52"/>
    <path d="M 234 74 L214 74 L214 64 L234 64 L234 54 L214 54"/>
    <path d="M 236 76 L216 76 L216 66 L236 66 L236 56 L216 56"/>
    <path d="M 238 78 L218 78 L218 68 L238 68 L238 58 L218 58"/>
    <path d="M 240 80 L220 80 L220 70 L240 70 L240 60 L220 60"/>
    <path d="M 52 72 L52 92 L42 92 L42 72 L32 72 L32 92"/>
    <path d="M 54 74 L54 94 L44 94 L44 74 L34 74 L34 94"/>
    <path d="M 56 76 L56 96 L46 96 L46 76 L36 76 L36 96"/>
    <path d="M 58 78 L58 98 L48 98 L48 78 L38 78 L38 98"/>
    <path d="M 60 80 L60 100 L50 100 L50 80 L40 80 L40 100"/>
    <path d="M 52 92 L72 92 L72 82 L52 82 L52 72 L72 72"/>
    <path d="M 54 94 L74 94 L74 84 L54 84 L54 74 L74 74"/>
    <path d="M 56 96 L76 96 L76 86 L56 86 L56 76 L76 76"/>
    <path d="M 58 98 L78 98 L78 88 L58 88 L58 78 L78 78"/>
    <path d="M 60 100 L80 100 L80 90 L60 90 L60 80 L80 80"/>
    <path d="M 92 72 L92 92 L82 92 L82 72 L72 72 L72 92"/>
    <path d="M 94 74 L94 94 L84 94 L84 74 L74 74 L74 94"/>
    <path d="M 96 76 L96 96 L86 96 L86 76 L76 76 L76 96"/>
    <path d="M 98 78 L98 98 L88 98 L88 78 L78 78 L78 98"/>
    <path d="M 100 80 L100 100 L90 100 L90 80 L80 80 L80 100"/>
    <path d="M 112 92 L92 92 L92 82 L112 82 L112 72 L92 72"/>
    <path d="M 114 94 L94 94 L94 84 L114 84 L114 74 L94 74"/>
    <path d="M 116 96 L96 96 L96 86 L116 86 L116 76 L96 76"/>
    <path d="M 118 98 L98 98 L98 88 L118 88 L118 78 L98 78"/>
    <path d="M 120 100 L100 100 L100 90 L120 90 L120 80 L100 80"/>
    <path d="M 112 92 L132 92 L132 82 L112 82 L112 72 L132 72"/>
    <path d="M 114 94 L134 94 L134 84 L114 84 L114 74 L134 74"/>
    <path d="M 116 96 L136 96 L136 86 L116 86 L116 76 L136 76"/>
    <path d="M 118 98 L138 98 L138 88 L118 88 L118 78 L138 78"/>
    <path d="M 120 100 L140 100 L140 90 L120 90 L120 80 L140 80"/>
    <path d="M 152 92 L132 92 L132 82 L152 82 L152 72 L132 72"/>
    <path d="M 154 94 L134 94 L134 84 L154 84 L154 74 L134 74"/>
    <path d="M 156 96 L136 96 L136 86 L156 86 L156 76 L136 76"/>
    <path d="M 158 98 L138 98 L138 88 L158 88 L158 78 L138 78"/>
    <path d="M 160 100 L140 100 L140 90 L160 90 L160 80 L140 80"/>
    <path d="M 172 72 L172 92 L162 92 L162 72 L152 72 L152 92"/>
    <path d="M 174 74 L174 94 L164 94 L164 74 L154 74 L154 94"/>
    <path d="M 176 76 L176 96 L166 96 L166 76 L156 76 L156 96"/>
    <path d="M 178 78 L178 98 L168 98 L168 78 L158 78 L158 98"/>
    <path d="M 180 80 L180 100 L170 100 L170 80 L160 80 L160 100"/>
    <path d="M 192 92 L192 72 L182 72 L182 92 L172 92 L172 72"/>
    <path d="M 194 94 L194 74 L184 74 L184 94 L174 94 L174 74"/>
    <path d="M 196 96 L196 76 L186 76 L186 96 L176 96 L176 76"/>
    <path d="M 198 98 L198 78 L188 78 L188 98 L178 98 L178 78"/>
    <path d="M 200 100 L200 80 L190 80 L190 100 L180 100 L180 80"/>
    <path d="M 192 92 L212 92 L212 82 L192 82 L192 72 L212 72"/>
    <path d="M 194 94 L214 94 L214 84 L194 84 L194 74 L214 74"/>
    <path d="M 196 96 L216 96 L216 86 L196 86 L196 76 L216 76"/>
    <path d="M 198 98 L218 98 L218 88 L198 88 L198 78 L218 78"/>
    <path d="M 200 100 L220 100 L220 90 L200 90 L200 80 L220 80"/>
    <path d="M 232 92 L232 72 L222 72 L222 92 L212 92 L212 72"/>
    <path d="M 234 94 L234 74 L224 74 L224 94 L214 94 L214 74"/>
    <path d="M 236 96 L236 76 L226 76 L226 96 L216 96 L216 76"/>
    <path d="M 238 98 L238 78 L228 78 L228 98 L218 98 L218 78"/>
    <path d="M 240 100 L240 80 L230 80 L230 100 L220 100 L220 80"/>
    <path d="M 52 92 L52 112 L42 112 L42 92 L32 92 L32 112"/>
    <path d="M 54 94 L54 114 L44 114 L44 94 L34 94 L34 114"/>
    <path d="M 56 96 L56 116 L46 116 L46 96 L36 96 L36 116"/>
    <path d="M 58 98 L58 118 L48 118 L48 98 L38 98 L38 118"/>
    <path d="M 60 100 L60 120 L50 120 L50 100 L40 100 L40 120"/>
    <path d="M 52 112 L72 112 L72 102 L52 102 L52 92 L72 92"/>
    <path d="M 54 114 L74 114 L74 104 L54 104 L54 94 L74 94"/>
    <path d="M 56 116 L76 116 L76 106 L56 106 L56 96 L76 96"/>
    <path d="M 58 118 L78 118 L78 108 L58 108 L58 98 L78 98"/>
    <path d="M 60 120 L80 120 L80 110 L60 110 L60 100 L80 100"/>
    <path d="M 92 112 L92 92 L82 92 L82 112 L72 112 L72 92"/>
    <path d="M 94 114 L94 94 L84 94 L84 114 L74 114 L74 94"/>
    <path d="M 96 116 L96 96 L86 96 L86 116 L76 116 L76 96"/>
    <path d="M 98 118 L98 98 L88 98 L88 118 L78 118 L78 98"/>
    <path d="M 100 120 L100 100 L90 100 L90 120 L80 120 L80 100"/>
    <path d="M 112 112 L92 112 L92 102 L112 102 L112 92 L92 92"/>
    <path d="M 114 114 L94 114 L94 104 L114 104 L114 94 L94 94"/>
    <path d="M 116 116 L96 116 L96 106 L116 106 L116 96 L96 96"/>
    <path d="M 118 118 L98 118 L98 108 L118 108 L118 98 L98 98"/>
    <path d="M 120 120 L100 120 L100 110 L120 110 L120 100 L100 100"/>
    <path d="M 112 112 L132 112 L132 102 L112 102 L112 92 L132 92"/>
    <path d="M 114 114 L134 114 L134 104 L114 104 L114 94 L134 94"/>
    <path d="M 116 116 L136 116 L136 106 L116 106 L116 96 L136 96"/>
    <path d="M 118 118 L138 118 L138 108 L118 108 L118 98 L138 98"/>
    <path d="M 120 120 L140 120 L140 110 L120 110 L120 100 L140 100"/>
    <path d="M 152 92 L152 112 L142 112 L142 92 L132 92 L132 112"/>
    <path d="M 154 94 L154 114 L144 114 L144 94 L134 94 L134 114"/>
    <path d="M 156 96 L156 116 L146 116 L146 96 L136 96 L136 116"/>
    <path d="M 158 98 L158 118 L148 118 L148 98 L138 98 L138 118"/>
    <path d="M 160 100 L160 120 L150 120 L150 100 L140 100 L140 120"/>
    <path d="M 172 92 L172 112 L162 112 L162 92 L152 92 L152 112"/>
    <path d="M 174 94 L174 114 L164 114 L164 94 L154 94 L154 114"/>
    <path d="M 176 96 L176 116 L166 116 L166 96 L156 96 L156 116"/>
    <path d="M 178 98 L178 118 L168 118 L168 98 L158 98 L158 118"/>
    <path d="M 180 100 L180 120 L170 120 L170 100 L160 100 L160 120"/>
    <path d="M 192 92 L192 112 L182 112 L182 92 L172 92 L172 112"/>
    <path d="M 194 94 L194 114 L184 114 L184 94 L174 94 L174 114"/>
    <path d="M 196 96 L196 116 L186 116 L186 96 L176 96 L176 116"/>
    <path d="M 198 98 L198 118 L188 118 L188 98 L178 98 L178 118"/>
    <path d="M 200 100 L200 120 L190 120 L190 100 L180 100 L180 120"/>
    <path d="M 192 112 L212 112 L212 102 L192 102 L192 92 L212 92"/>
    <path d="M 194 114 L214 114 L214 104 L194 104 L194 94 L214 94"/>
    <path d="M 196 116 L216 116 L216 106 L196 106 L196 96 L216 96"/>
    <path d="M 198 118 L218 118 L218 108 L198 108 L198 98 L218 98"/>
    <path d="M 200 120 L220 120 L220 110 L200 110 L200 100 L220 100"/>
    <path d="M 232 92 L232 112 L222 112 L222 92 L212 92 L212 112"/>
    <path d="M 234 94 L234 114 L224 114 L224 94 L214 94 L214 114"/>
    <path d="M 236 96 L236 116 L226 116 L226 96 L216 96 L216 116"/>
    <path d="M 238 98 L238 118 L228 118 L228 98 L218 98 L218 118"/>
    <path d="M 240 100 L240 120 L230 120 L230 100 L220 100 L220 120"/>
    <path d="M 52 112 L52 132 L42 132 L42 112 L32 112 L32 132"/>
    <path d="M 54 114 L54 134 L44 134 L44 114 L34 114 L34 134"/>
    <path d="M 56 116 L56 136 L46 136 L46 116 L36 116 L36 136"/>
    <path d="M 58 118 L58 138 L48 138 L48 118 L38 118 L38 138"/>
    <path d="M 60 120 L60 140 L50 140 L50 120 L40 120 L40 140"/>
    <path d="M 72 132 L52 132 L52 122 L72 122 L72 112 L52 112"/>
    <path d="M 74 134 L54 134 L54 124 L74 124 L74 114 L54 114"/>
    <path d="M 76 136 L56 136 L56 126 L76 126 L76 116 L56 116"/>
    <path d="M 78 138 L58 138 L58 128 L78 128 L78 118 L58 118"/>
    <path d="M 80 140 L60 140 L60 130 L80 130 L80 120 L60 120"/>
    <path d="M 92 112 L92 132 L82 132 L82 112 L72 112 L72 132"/>
    <path d="M 94 114 L94 134 L84 134 L84 114 L74 114 L74 134"/>
    <path d="M 96 116 L96 136 L86 136 L86 116 L76 116 L76 136"/>
    <path d="M 98 118 L98 138 L88 138 L88 118 L78 118 L78 138"/>
    <path d="M 100 120 L100 140 L90 140 L90 120 L80 120 L80 140"/>
    <path d="M 112 132 L92 132 L92 122 L112 122 L112 112 L92 112"/>
    <path d="M 114 134 L94 134 L94 124 L114 124 L114 114 L94 114"/>
    <path d="M 116 136 L96 136 L96 126 L116 126 L116 116 L96 116"/>
    <path d="M 118 138 L98 138 L98 128 L118 128 L118 118 L98 118"/>
    <path d="M 120 140 L100 140 L100 130 L120 130 L120 120 L100 120"/>
    <path d="M 132 132 L112 132 L112 122 L132 122 L132 112 L112 112"/>
    <path d="M 134 134 L114 134 L114 124 L134 124 L134 114 L114 114"/>
    <path d="M 136 136 L116 136 L116 126 L136 126 L136 116 L116 116"/>
    <path d="M 138 138 L118 138 L118 128 L138 128 L138 118 L118 118"/>
    <path d="M 140 140 L120 140 L120 130 L140 130 L140 120 L120 120"/>
    <path d="M 152 132 L152 112 L142 112 L142 132 L132 132 L132 112"/>
    <path d="M 154 134 L154 114 L144 114 L144 134 L134 134 L134 114"/>
    <path d="M 156 136 L156 116 L146 116 L146 136 L136 136 L136 116"/>
    <path d="M 158 138 L158 118 L148 118 L148 138 L138 138 L138 118"/>
    <path d="M 160 140 L160 120 L150 120 L150 140 L140 140 L140 120"/>
    <path d="M 152 132 L172 132 L172 122 L152 122 L152 112 L172 112"/>
    <path d="M 154 134 L174 134 L174 124 L154 124 L154 114 L174 114"/>
    <path d="M 156 136 L176 136 L176 126 L156 126 L156 116 L176 116"/>
    <path d="M 158 138 L178 138 L178 128 L158 128 L158 118 L178 118"/>
    <path d="M 160 140 L180 140 L180 130 L160 130 L160 120 L180 120"/>
    <path d="M 172 132 L192 132 L192 122 L172 122 L172 112 L192 112"/>
    <path d="M 174 134 L194 134 L194 124 L174 124 L174 114 L194 114"/>
    <path d="M 176 136 L196 136 L196 126 L176 126 L176 116 L196 116"/>
    <path d="M 178 138 L198 138 L198 128 L178 128 L178 118 L198 118"/>
    <path d="M 180 140 L200 140 L200 130 L180 130 L180 120 L200 120"/>
    <path d="M 212 132 L212 112 L202 112 L202 132 L192 132 L192 112"/>
    <path d="M 214 134 L214 114 L204 114 L204 134 L194 134 L194 114"/>
    <path d="M 216 136 L216 116 L206 116 L206 136 L196 136 L196 116"/>
    <path d="M 218 138 L218 118 L208 118 L208 138 L198 138 L198 118"/>
    <path d="M 220 140 L220 120 L210 120 L210 140 L200 140 L200 120"/>
    <path d="M 232 132 L232 112 L222 112 L222 132 L212 132 L212 112"/>
    <path d="M 234 134 L234 114 L224 114 L224 134 L214 134 L214 114"/>
    <path d="M 236 136 L236 116 L226 116 L226 136 L216 136 L216 116"/>
    <path d="M 238 138 L238 118 L228 118 L228 138 L218 138 L218 118"/>
    <path d="M 240 140 L240 120 L230 120 L230 140 L220 140 L220 120"/>
    <path d="M 52 132 L52 152 L42 152 L42 132 L32 132 L32 152"/>
    <path d="M 54 134 L54 154 L44 154 L44 134 L34 134 L34 154"/>
    <path d="M 56 136 L56 156 L46 156 L46 136 L36 136 L36 156"/>
    <path d="M 58 138 L58 158 L48 158 L48 138 L38 138 L38 158"/>
    <path d="M 60 140 L60 160 L50 160 L50 140 L40 140 L40 160"/>
    <path d="M 72 132 L72 152 L62 152 L62 132 L52 132 L52 152"/>
    <path d="M 74 134 L74 154 L64 154 L64 134 L54 134 L54 154"/>
    <path d="M 76 136 L76 156 L66 156 L66 136 L56 136 L56 156"/>
    <path d="M 78 138 L78 158 L68 158 L68 138 L58 138 L58 158"/>
    <path d="M 80 140 L80 160 L70 160 L70 140 L60 140 L60 160"/>
    <path d="M 92 152 L92 132 L82 132 L82 152 L72 152 L72 132"/>
    <path d="M 94 154 L94 134 L84 134 L84 154 L74 154 L74 134"/>
    <path d="M 96 156 L96 136 L86 136 L86 156 L76 156 L76 136"/>
    <path d="M 98 158 L98 138 L88 138 L88 158 L78 158 L78 138"/>
    <path d="M 100 160 L100 140 L90 140 L90 160 L80 160 L80 140"/>
    <path d="M 112 152 L92 152 L92 142 L112 142 L112 132 L92 132"/>
    <path d="M 114 154 L94 154 L94 144 L114 144 L114 134 L94 134"/>
    <path d="M 116 156 L96 156 L96 146 L116 146 L116 136 L96 136"/>
    <path d="M 118 158 L98 158 L98 148 L118 148 L118 138 L98 138"/>
    <path d="M 120 160 L100 160 L100 150 L120 150 L120 140 L100 140"/>
    <path d="M 132 132 L132 152 L122 152 L122 132 L112 132 L112 152"/>
    <path d="M 134 134 L134 154 L124 154 L124 134 L114 134 L114 154"/>
    <path d="M 136 136 L136 156 L126 156 L126 136 L116 136 L116 156"/>
    <path d="M 138 138 L138 158 L128 158 L128 138 L118 138 L118 158"/>
    <path d="M 140 140 L140 160 L130 160 L130 140 L120 140 L120 160"/>
    <path d="M 152 152 L132 152 L132 142 L152 142 L152 132 L132 132"/>
    <path d="M 154 154 L134 154 L134 144 L154 144 L154 134 L134 134"/>
    <path d="M 156 156 L136 156 L136 146 L156 146 L156 136 L136 136"/>
    <path d="M 158 158 L138 158 L138 148 L158 148 L158 138 L138 138"/>
    <path d="M 160 160 L140 160 L140 150 L160 150 L160 140 L140 140"/>
    <path d="M 172 132 L172 152 L162 152 L162 132 L152 132 L152 152"/>
    <path d="M 174 134 L174 154 L164 154 L164 134 L154 134 L154 154"/>
    <path d="M 176 136 L176 156 L166 156 L166 136 L156 136 L156 156"/>
    <path d="M 178 138 L178 158 L168 158 L168 138 L158 138 L158 158"/>
    <path d="M 180 140 L180 160 L170 160 L170 140 L160 140 L160 160"/>
    <path d="M 172 152 L192 152 L192 142 L172 142 L172 132 L192 132"/>
    <path d="M 174 154 L194 154 L194 144 L174 144 L174 134 L194 134"/>
    <path d="M 176 156 L196 156 L196 146 L176 146 L176 136 L196 136"/>
    <path d="M 178 158 L198 158 L198 148 L178 148 L178 138 L198 138"/>
    <path d="M 180 160 L200 160 L200 150 L180 150 L180 140 L200 140"/>
    <path d="M 192 152 L212 152 L212 142 L192 142 L192 132 L212 132"/>
    <path d="M 194 154 L214 154 L214 144 L194 144 L194 134 L214 134"/>
    <path d="M 196 156 L216 156 L216 146 L196 146 L196 136 L216 136"/>
    <path d="M 198 158 L218 158 L218 148 L198 148 L198 138 L218 138"/>
    <path d="M 200 160 L220 160 L220 150 L200 150 L200 140 L220 140"/>
    <path d="M 232 152 L232 132 L222 132 L222 152 L212 152 L212 132"/>
    <path d="M 234 154 L234 134 L224 134 L224 154 L214 154 L214 134"/>
    <path d="M 236 156 L236 136 L226 136 L226 156 L216 156 L216 136"/>
    <path d="M 238 158 L238 138 L228 138 L228 158 L218 158 L218 138"/>
    <path d="M 240 160 L240 140 L230 140 L230 160 L220 160 L220 140"/>
    <path d="M 52 172 L52 152 L42 152 L42 172 L32 172 L32 152"/>
    <path d="M 54 174 L54 154 L44 154 L44 174 L34 174 L34 154"/>
    <path d="M 56 176 L56 156 L46 156 L46 176 L36 176 L36 156"/>
    <path d="M 58 178 L58 158 L48 158 L48 178 L38 178 L38 158"/>
    <path d="M 60 180 L60 160 L50 160 L50 180 L40 180 L40 160"/>
    <path d="M 52 172 L72 172 L72 162 L52 162 L52 152 L72 152"/>
    <path d="M 54 174 L74 174 L74 164 L54 164 L54 154 L74 154"/>
    <path d="M 56 176 L76 176 L76 166 L56 166 L56 156 L76 156"/>
    <path d="M 58 178 L78 178 L78 168 L58 168 L58 158 L78 158"/>
    <path d="M 60 180 L80 180 L80 170 L60 170 L60 160 L80 160"/>
    <path d="M 92 172 L72 172 L72 162 L92 162 L92 152 L72 152"/>
    <path d="M 94 174 L74 174 L74 164 L94 164 L94 154 L74 154"/>
    <path d="M 96 176 L76 176 L76 166 L96 166 L96 156 L76 156"/>
    <path d="M 98 178 L78 178 L78 168 L98 168 L98 158 L78 158"/>
    <path d="M 100 180 L80 180 L80 170 L100 170 L100 160 L80 160"/>
    <path d="M 92 172 L112 172 L112 162 L92 162 L92 152 L112 152"/>
    <path d="M 94 174 L114 174 L114 164 L94 164 L94 154 L114 154"/>
    <path d="M 96 176 L116 176 L116 166 L96 166 L96 156 L116 156"/>
    <path d="M 98 178 L118 178 L118 168 L98 168 L98 158 L118 158"/>
    <path d="M 100 180 L120 180 L120 170 L100 170 L100 160 L120 160"/>
    <path d="M 132 172 L132 152 L122 152 L122 172 L112 172 L112 152"/>
    <path d="M 134 174 L134 154 L124 154 L124 174 L114 174 L114 154"/>
    <path d="M 136 176 L136 156 L126 156 L126 176 L116 176 L116 156"/>
    <path d="M 138 178 L138 158 L128 158 L128 178 L118 178 L118 158"/>
    <path d="M 140 180 L140 160 L130 160 L130 180 L120 180 L120 160"/>
    <path d="M 152 172 L132 172 L132 162 L152 162 L152 152 L132 152"/>
    <path d="M 154 174 L134 174 L134 164 L154 164 L154 154 L134 154"/>
    <path d="M 156 176 L136 176 L136 166 L156 166 L156 156 L136 156"/>
    <path d="M 158 178 L138 178 L138 168 L158 168 L158 158 L138 158"/>
    <path d="M 160 180 L140 180 L140 170 L160 170 L160 160 L140 160"/>
    <path d="M 172 152 L172 172 L162 172 L162 152 L152 152 L152 172"/>
    <path d="M 174 154 L174 174 L164 174 L164 154 L154 154 L154 174"/>
    <path d="M 176 156 L176 176 L166 176 L166 156 L156 156 L156 176"/>
    <path d="M 178 158 L178 178 L168 178 L168 158 L158 158 L158 178"/>
    <path d="M 180 160 L180 180 L170 180 L170 160 L160 160 L160 180"/>
    <path d="M 192 152 L192 172 L182 172 L182 152 L172 152 L172 172"/>
    <path d="M 194 154 L194 174 L184 174 L184 154 L174 154 L174 174"/>
    <path d="M 196 156 L196 176 L186 176 L186 156 L176 156 L176 176"/>
    <path d="M 198 158 L198 178 L188 178 L188 158 L178 158 L178 178"/>
    <path d="M 200 160 L200 180 L190 180 L190 160 L180 160 L180 180"/>
    <path d="M 192 172 L212 172 L212 162 L192 162 L192 152 L212 152"/>
    <path d="M 194 174 L214 174 L214 164 L194 164 L194 154 L214 154"/>
    <path d="M 196 176 L216 176 L216 166 L196 166 L196 156 L216 156"/>
    <path d="M 198 178 L218 178 L218 168 L198 168 L198 158 L218 158"/>
    <path d="M 200 180 L220 180 L220 170 L200 170 L200 160 L220 160"/>
    <path d="M 232 172 L232 152 L222 152 L222 172 L212 172 L212 152"/>
    <path d="M 234 174 L234 154 L224 154 L224 174 L214 174 L214 154"/>
    <path d="M 236 176 L236 156 L226 156 L226 176 L216 176 L216 156"/>
    <path d="M 238 178 L238 158 L228 158 L228 178 L218 178 L218 158"/>
    <path d="M 240 180 L240 160 L230 160 L230 180 L220 180 L220 160"/>
  </g></svg>