<?xml version="1.0" encoding="utf-8"?><svg version="1.1" xmlns="http://www.w3.org/2000/svg" xmlns:xlink="http://www.w3.org/1999/xlink" width="210.000000" height="297.000000" viewbox="0 0 210.000000 297.000000">  <g style="stroke-width: 0.500000; stroke: #0ff ;stroke-linecap: round; stroke-linejoin: round; fill: none;">  
    <path d="M 0 0 L210 0 L210 297 L0 297 Z"/>
  </g><g style="stroke-width: 0.500000; stroke: #000 ;stroke-linecap: round; stroke-linejoin: round; fill: none;">  
    <path d="M 30 30 L42.477941176471 30 L43.238970588235 32.029411764706 L44 31.014705882353 L44.761029411765 32.029411764706 L45.522058823529 30 L46.477941176471 30 L47.238970588235 32.029411764706 L48 31.014705882353 L48.761029411765 32.029411764706 L49.522058823529 30 L52.477941176471 30 L53.238970588235 32.029411764706 L54 31.014705882353 L54.761029411765 32.029411764706 L55.522058823529 30 L58.477941176471 30 L59.238970588235 32.029411764706 L60 31.014705882353 L60.761029411765 32.029411764706 L61.522058823529 30 L65.477941176471 30 L66.238970588235 32.029411764706 L67 31.014705882353 L67.761029411765 32.029411764706 L68.522058823529 30 L70.477941176471 30 L71.238970588235 32.029411764706 L72 31.014705882353 L72.761029411765 32.029411764706 L73.522058823529 30 L74.477941176471 30 L75.238970588235 32.029411764706 L76 31.014705882353 L76.761029411765 32.029411764706 L77.522058823529 30 L80.477941176471 30 L81.238970588235 32.029411764706 L82 31.014705882353 L82.761029411765 32.029411764706 L83.522058823529 30 L87.477941176471 30 L88.238970588235 32.029411764706 L89 31.014705882353 L89.761029411765 32.029411764706 L90.522058823529 30 L94.477941176471 30 L95.238970588235 32.029411764706 L96 31.014705882353 L96.761029411765 32.029411764706 L97.522058823529 30 L100.47794117647 30 L101.23897058824 32.029411764706 L102 31.014705882353 L102.76102941176 32.029411764706 L103.52205882353 30 L104.47794117647 30 L105.23897058824 32.029411764706 L106 31.014705882353 L106.76102941176 32.029411764706 L107.52205882353 30 L114.47794117647 30 L115.23897058824 32.029411764706 L116 31.014705882353 L116.76102941176 32.029411764706 L117.52205882353 30 L119.47794117647 30 L120.23897058824 32.029411764706 L121 31.014705882353 L121.76102941176 32.029411764706 L122.52205882353 30 L129.47794117647 30 L130.23897058824 32.029411764706 L131 31.014705882353 L131.76102941176 32.029411764706 L132.52205882353 30 L138.47794117647 30 L139.23897058824 32.029411764706 L140 31.014705882353 L140.76102941176 32.029411764706 L141.52205882353 30 L143.47794117647 30 L144.23897058824 32.029411764706 L145 31.014705882353 L145.76102941176 32.029411764706 L146.52205882353 30 L147.47794117647 30 L148.23897058824 32.029411764706 L149 31.014705882353 L149.76102941176 32.029411764706 L150.52205882353 30 L151.47794117647 30 L152.23897058824 32.029411764706 L153 31.014705882353 L153.76102941176 32.029411764706 L154.52205882353 30 L162.47794117647 30 L163.23897058824 32.029411764706 L164 31.014705882353 L164.76102941176 32.029411764706 L165.52205882353 30 L170.47794117647 30 L171.23897058824 32.029411764706 L172 31.014705882353 L172.76102941176 32.029411764706 L173.52205882353 30 L176.47794117647 30 L177.23897058824 32.029411764706 L178 31.014705882353 L178.76102941176 32.029411764706 L179.52205882353 30 L180 30"/>
    <path d="M 30 33.044117647059 L180 33.044117647059"/>
    <path d="M 30 36.088235294118 L31.477941176471 36.088235294118 L32.238970588235 38.117647058824 L33 37.102941176471 L33.761029411765 38.117647058824 L34.522058823529 36.088235294118 L36.477941176471 36.088235294118 L37.238970588235 38.117647058824 L38 37.102941176471 L38.761029411765 38.117647058824 L39.522058823529 36.088235294118 L43.477941176471 36.088235294118 L44.238970588235 38.117647058824 L45 37.102941176471 L45.761029411765 38.117647058824 L46.522058823529 36.088235294118 L48.477941176471 36.088235294118 L49.238970588235 38.117647058824 L50 37.102941176471 L50.761029411765 38.117647058824 L51.522058823529 36.088235294118 L56.477941176471 36.088235294118 L57.238970588235 38.117647058824 L58 37.102941176471 L58.761029411765 38.117647058824 L59.522058823529 36.088235294118 L69.477941176471 36.088235294118 L70.238970588235 38.117647058824 L71 37.102941176471 L71.761029411765 38.117647058824 L72.522058823529 36.088235294118 L77.477941176471 36.088235294118 L78.238970588235 38.117647058824 L79 37.102941176471 L79.761029411765 38.117647058824 L80.522058823529 36.088235294118 L82.477941176471 36.088235294118 L83.238970588235 38.117647058824 L84 37.102941176471 L84.761029411765 38.117647058824 L85.522058823529 36.088235294118 L87.477941176471 36.088235294118 L88.238970588235 38.117647058824 L89 37.102941176471 L89.761029411765 38.117647058824 L90.522058823529 36.088235294118 L95.477941176471 36.088235294118 L96.238970588235 38.117647058824 L97 37.102941176471 L97.761029411765 38.117647058824 L98.522058823529 36.088235294118 L103.47794117647 36.088235294118 L104.23897058824 38.117647058824 L105 37.102941176471 L105.76102941176 38.117647058824 L106.52205882353 36.088235294118 L113.47794117647 36.088235294118 L114.23897058824 38.117647058824 L115 37.102941176471 L115.76102941176 38.117647058824 L116.52205882353 36.088235294118 L122.47794117647 36.088235294118 L123.23897058824 38.117647058824 L124 37.102941176471 L124.76102941176 38.117647058824 L125.52205882353 36.088235294118 L130.47794117647 36.088235294118 L131.23897058824 38.117647058824 L132 37.102941176471 L132.76102941176 38.117647058824 L133.52205882353 36.088235294118 L139.47794117647 36.088235294118 L140.23897058824 38.117647058824 L141 37.102941176471 L141.76102941176 38.117647058824 L142.52205882353 36.088235294118 L143.47794117647 36.088235294118 L144.23897058824 38.117647058824 L145 37.102941176471 L145.76102941176 38.117647058824 L146.52205882353 36.088235294118 L148.47794117647 36.088235294118 L149.23897058824 38.117647058824 L150 37.102941176471 L150.76102941176 38.117647058824 L151.52205882353 36.088235294118 L153.47794117647 36.088235294118 L154.23897058824 38.117647058824 L155 37.102941176471 L155.76102941176 38.117647058824 L156.52205882353 36.088235294118 L162.47794117647 36.088235294118 L163.23897058824 38.117647058824 L164 37.102941176471 L164.76102941176 38.117647058824 L165.52205882353 36.088235294118 L168.47794117647 36.088235294118 L169.23897058824 38.117647058824 L170 37.102941176471 L170.76102941176 38.117647058824 L171.52205882353 36.088235294118 L174.47794117647 36.088235294118 L175.23897058824 38.117647058824 L176 37.102941176471 L176.76102941176 38.117647058824 L177.52205882353 36.088235294118 L180 36.088235294118"/>
    <path d="M 30 39.132352941176 L30.477941176471 39.132352941176 L31.238970588235 41.161764705882 L32 40.147058823529 L32.761029411765 41.161764705882 L33.522058823529 39.132352941176 L41.477941176471 39.132352941176 L42.238970588235 41.161764705882 L43 40.147058823529 L43.761029411765 41.161764705882 L44.522058823529 39.132352941176 L48.477941176471 39.132352941176 L49.238970588235 41.161764705882 L50 40.147058823529 L50.761029411765 41.161764705882 L51.522058823529 39.132352941176 L58.477941176471 39.132352941176 L59.238970588235 41.161764705882 L60 40.147058823529 L60.761029411765 41.161764705882 L61.522058823529 39.132352941176 L62.477941176471 39.132352941176 L63.238970588235 41.161764705882 L64 40.147058823529 L64.761029411765 41.161764705882 L65.522058823529 39.132352941176 L67.477941176471 39.132352941176 L68.238970588235 41.161764705882 L69 40.147058823529 L69.761029411765 41.161764705882 L70.522058823529 39.132352941176 L75.477941176471 39.132352941176 L76.238970588235 41.161764705882 L77 40.147058823529 L77.761029411765 41.161764705882 L78.522058823529 39.132352941176 L85.477941176471 39.132352941176 L86.238970588235 41.161764705882 L87 40.147058823529 L87.761029411765 41.161764705882 L88.522058823529 39.132352941176 L90.477941176471 39.132352941176 L91.238970588235 41.161764705882 L92 40.147058823529 L92.761029411765 41.161764705882 L93.522058823529 39.132352941176 L99.477941176471 39.132352941176 L100.23897058824 41.161764705882 L101 40.147058823529 L101.76102941176 41.161764705882 L102.52205882353 39.132352941176 L116.47794117647 39.132352941176 L117.23897058824 41.161764705882 L118 40.147058823529 L118.76102941176 41.161764705882 L119.52205882353 39.132352941176 L124.47794117647 39.132352941176 L125.23897058824 41.161764705882 L126 40.147058823529 L126.76102941176 41.161764705882 L127.52205882353 39.132352941176 L128.47794117647 39.132352941176 L129.23897058824 41.161764705882 L130 40.147058823529 L130.76102941176 41.161764705882 L131.52205882353 39.132352941176 L136.47794117647 39.132352941176 L137.23897058824 41.161764705882 L138 40.147058823529 L138.76102941176 41.161764705882 L139.52205882353 39.132352941176 L147.47794117647 39.132352941176 L148.23897058824 41.161764705882 L149 40.147058823529 L149.76102941176 41.161764705882 L150.52205882353 39.132352941176 L151.47794117647 39.132352941176 L152.23897058824 41.161764705882 L153 40.147058823529 L153.76102941176 41.161764705882 L154.52205882353 39.132352941176 L156.47794117647 39.132352941176 L157.23897058824 41.161764705882 L158 40.147058823529 L158.76102941176 41.161764705882 L159.52205882353 39.132352941176 L165.47794117647 39.132352941176 L166.23897058824 41.161764705882 L167 40.147058823529 L167.76102941176 41.161764705882 L168.52205882353 39.132352941176 L173.47794117647 39.132352941176 L174.23897058824 41.161764705882 L175 40.147058823529 L175.76102941176 41.161764705882 L176.52205882353 39.132352941176 L180 39.132352941176"/>
    <path d="M 30 42.176470588235 L32.477941176471 42.176470588235 L33.238970588235 44.205882352941 L34 43.191176470588 L34.761029411765 44.205882352941 L35.522058823529 42.176470588235 L38.477941176471 42.176470588235 L39.238970588235 44.205882352941 L40 43.191176470588 L40.761029411765 44.205882352941 L41.522058823529 42.176470588235 L43.477941176471 42.176470588235 L44.238970588235 44.205882352941 L45 43.191176470588 L45.761029411765 44.205882352941 L46.522058823529 42.176470588235 L47.477941176471 42.176470588235 L48.238970588235 44.205882352941 L49 43.191176470588 L49.761029411765 44.205882352941 L50.522058823529 42.176470588235 L51.477941176471 42.176470588235 L52.238970588235 44.205882352941 L53 43.191176470588 L53.761029411765 44.205882352941 L54.522058823529 42.176470588235 L56.477941176471 42.176470588235 L57.238970588235 44.205882352941 L58 43.191176470588 L58.761029411765 44.205882352941 L59.522058823529 42.176470588235 L60.477941176471 42.176470588235 L61.238970588235 44.205882352941 L62 43.191176470588 L62.761029411765 44.205882352941 L63.522058823529 42.176470588235 L64.477941176471 42.176470588235 L65.238970588235 44.205882352941 L66 43.191176470588 L66.761029411765 44.205882352941 L67.522058823529 42.176470588235 L69.477941176471 42.176470588235 L70.238970588235 44.205882352941 L71 43.191176470588 L71.761029411765 44.205882352941 L72.522058823529 42.176470588235 L74.477941176471 42.176470588235 L75.238970588235 44.205882352941 L76 43.191176470588 L76.761029411765 44.205882352941 L77.522058823529 42.176470588235 L79.477941176471 42.176470588235 L80.238970588235 44.205882352941 L81 43.191176470588 L81.761029411765 44.205882352941 L82.522058823529 42.176470588235 L87.477941176471 42.176470588235 L88.238970588235 44.205882352941 L89 43.191176470588 L89.761029411765 44.205882352941 L90.522058823529 42.176470588235 L93.477941176471 42.176470588235 L94.238970588235 44.205882352941 L95 43.191176470588 L95.761029411765 44.205882352941 L96.522058823529 42.176470588235 L100.47794117647 42.176470588235 L101.23897058824 44.205882352941 L102 43.191176470588 L102.76102941176 44.205882352941 L103.52205882353 42.176470588235 L104.47794117647 42.176470588235 L105.23897058824 44.205882352941 L106 43.191176470588 L106.76102941176 44.205882352941 L107.52205882353 42.176470588235 L111.47794117647 42.176470588235 L112.23897058824 44.205882352941 L113 43.191176470588 L113.76102941176 44.205882352941 L114.52205882353 42.176470588235 L117.47794117647 42.176470588235 L118.23897058824 44.205882352941 L119 43.191176470588 L119.76102941176 44.205882352941 L120.52205882353 42.176470588235 L123.47794117647 42.176470588235 L124.23897058824 44.205882352941 L125 43.191176470588 L125.76102941176 44.205882352941 L126.52205882353 42.176470588235 L134.47794117647 42.176470588235 L135.23897058824 44.205882352941 L136 43.191176470588 L136.76102941176 44.205882352941 L137.52205882353 42.176470588235 L138.47794117647 42.176470588235 L139.23897058824 44.205882352941 L140 43.191176470588 L140.76102941176 44.205882352941 L141.52205882353 42.176470588235 L142.47794117647 42.176470588235 L143.23897058824 44.205882352941 L144 43.191176470588 L144.76102941176 44.205882352941 L145.52205882353 42.176470588235 L146.47794117647 42.176470588235 L147.23897058824 44.205882352941 L148 43.191176470588 L148.76102941176 44.205882352941 L149.52205882353 42.176470588235 L154.47794117647 42.176470588235 L155.23897058824 44.205882352941 L156 43.191176470588 L156.76102941176 44.205882352941 L157.52205882353 42.176470588235 L158.47794117647 42.176470588235 L159.23897058824 44.205882352941 L160 43.191176470588 L160.76102941176 44.205882352941 L161.52205882353 42.176470588235 L162.47794117647 42.176470588235 L163.23897058824 44.205882352941 L164 43.191176470588 L164.76102941176 44.205882352941 L165.52205882353 42.176470588235 L168.47794117647 42.176470588235 L169.23897058824 44.205882352941 L170 43.191176470588 L170.76102941176 44.205882352941 L171.52205882353 42.176470588235 L175.47794117647 42.176470588235 L176.23897058824 44.205882352941 L177 43.191176470588 L177.76102941176 44.205882352941 L178.52205882353 42.176470588235 L180 42.176470588235"/>
    <path d="M 30 45.220588235294 L30.477941176471 45.220588235294 L31.238970588235 47.25 L32 46.235294117647 L32.761029411765 47.25 L33.522058823529 45.220588235294 L37.477941176471 45.220588235294 L38.238970588235 47.25 L39 46.235294117647 L39.761029411765 47.25 L40.522058823529 45.220588235294 L47.477941176471 45.220588235294 L48.238970588235 47.25 L49 46.235294117647 L49.761029411765 47.25 L50.522058823529 45.220588235294 L55.477941176471 45.220588235294 L56.238970588235 47.25 L57 46.235294117647 L57.761029411765 47.25 L58.522058823529 45.220588235294 L64.477941176471 45.220588235294 L65.238970588235 47.25 L66 46.235294117647 L66.761029411765 47.25 L67.522058823529 45.220588235294 L68.477941176471 45.220588235294 L69.238970588235 47.25 L70 46.235294117647 L70.761029411765 47.25 L71.522058823529 45.220588235294 L78.477941176471 45.220588235294 L79.238970588235 47.25 L80 46.235294117647 L80.761029411765 47.25 L81.522058823529 45.220588235294 L86.477941176471 45.220588235294 L87.238970588235 47.25 L88 46.235294117647 L88.761029411765 47.25 L89.522058823529 45.220588235294 L93.477941176471 45.220588235294 L94.238970588235 47.25 L95 46.235294117647 L95.761029411765 47.25 L96.522058823529 45.220588235294 L97.477941176471 45.220588235294 L98.238970588235 47.25 L99 46.235294117647 L99.761029411765 47.25 L100.52205882353 45.220588235294 L102.47794117647 45.220588235294 L103.23897058824 47.25 L104 46.235294117647 L104.76102941176 47.25 L105.52205882353 45.220588235294 L109.47794117647 45.220588235294 L110.23897058824 47.25 L111 46.235294117647 L111.76102941176 47.25 L112.52205882353 45.220588235294 L117.47794117647 45.220588235294 L118.23897058824 47.25 L119 46.235294117647 L119.76102941176 47.25 L120.52205882353 45.220588235294 L121.47794117647 45.220588235294 L122.23897058824 47.25 L123 46.235294117647 L123.76102941176 47.25 L124.52205882353 45.220588235294 L128.47794117647 45.220588235294 L129.23897058824 47.25 L130 46.235294117647 L130.76102941176 47.25 L131.52205882353 45.220588235294 L134.47794117647 45.220588235294 L135.23897058824 47.25 L136 46.235294117647 L136.76102941176 47.25 L137.52205882353 45.220588235294 L145.47794117647 45.220588235294 L146.23897058824 47.25 L147 46.235294117647 L147.76102941176 47.25 L148.52205882353 45.220588235294 L154.47794117647 45.220588235294 L155.23897058824 47.25 L156 46.235294117647 L156.76102941176 47.25 L157.52205882353 45.220588235294 L159.47794117647 45.220588235294 L160.23897058824 47.25 L161 46.235294117647 L161.76102941176 47.25 L162.52205882353 45.220588235294 L163.47794117647 45.220588235294 L164.23897058824 47.25 L165 46.235294117647 L165.76102941176 47.25 L166.52205882353 45.220588235294 L169.47794117647 45.220588235294 L170.23897058824 47.25 L171 46.235294117647 L171.76102941176 47.25 L172.52205882353 45.220588235294 L176.47794117647 45.220588235294 L177.23897058824 47.25 L178 46.235294117647 L178.76102941176 47.25 L179.52205882353 45.220588235294 L180 45.220588235294"/>
    <path d="M 30 48.264705882353 L39.477941176471 48.264705882353 L40.238970588235 50.294117647059 L41 49.279411764706 L41.761029411765 50.294117647059 L42.522058823529 48.264705882353 L53.477941176471 48.264705882353 L54.238970588235 50.294117647059 L55 49.279411764706 L55.761029411765 50.294117647059 L56.522058823529 48.264705882353 L117.47794117647 48.264705882353 L118.23897058824 50.294117647059 L119 49.279411764706 L119.76102941176 50.294117647059 L120.52205882353 48.264705882353 L137.47794117647 48.264705882353 L138.23897058824 50.294117647059 L139 49.279411764706 L139.76102941176 50.294117647059 L140.52205882353 48.264705882353 L148.47794117647 48.264705882353 L149.23897058824 50.294117647059 L150 49.279411764706 L150.76102941176 50.294117647059 L151.52205882353 48.264705882353 L162.47794117647 48.264705882353 L163.23897058824 50.294117647059 L164 49.279411764706 L164.76102941176 50.294117647059 L165.52205882353 48.264705882353 L180 48.264705882353"/>
    <path d="M 30 51.308823529412 L33.477941176471 51.308823529412 L34.238970588235 53.338235294118 L35 52.323529411765 L35.761029411765 53.338235294118 L36.522058823529 51.308823529412 L37.477941176471 51.308823529412 L38.238970588235 53.338235294118 L39 52.323529411765 L39.761029411765 53.338235294118 L40.522058823529 51.308823529412 L41.477941176471 51.308823529412 L42.238970588235 53.338235294118 L43 52.323529411765 L43.761029411765 53.338235294118 L44.522058823529 51.308823529412 L49.477941176471 51.308823529412 L50.238970588235 53.338235294118 L51 52.323529411765 L51.761029411765 53.338235294118 L52.522058823529 51.308823529412 L53.477941176471 51.308823529412 L54.238970588235 53.338235294118 L55 52.323529411765 L55.761029411765 53.338235294118 L56.522058823529 51.308823529412 L57.477941176471 51.308823529412 L58.238970588235 53.338235294118 L59 52.323529411765 L59.761029411765 53.338235294118 L60.522058823529 51.308823529412 L63.477941176471 51.308823529412 L64.238970588235 53.338235294118 L65 52.323529411765 L65.761029411765 53.338235294118 L66.522058823529 51.308823529412 L68.477941176471 51.308823529412 L69.238970588235 53.338235294118 L70 52.323529411765 L70.761029411765 53.338235294118 L71.522058823529 51.308823529412 L79.477941176471 51.308823529412 L80.238970588235 53.338235294118 L81 52.323529411765 L81.761029411765 53.338235294118 L82.522058823529 51.308823529412 L85.477941176471 51.308823529412 L86.238970588235 53.338235294118 L87 52.323529411765 L87.761029411765 53.338235294118 L88.522058823529 51.308823529412 L89.477941176471 51.308823529412 L90.238970588235 53.338235294118 L91 52.323529411765 L91.761029411765 53.338235294118 L92.522058823529 51.308823529412 L93.477941176471 51.308823529412 L94.238970588235 53.338235294118 L95 52.323529411765 L95.761029411765 53.338235294118 L96.522058823529 51.308823529412 L99.477941176471 51.308823529412 L100.23897058824 53.338235294118 L101 52.323529411765 L101.76102941176 53.338235294118 L102.52205882353 51.308823529412 L104.47794117647 51.308823529412 L105.23897058824 53.338235294118 L106 52.323529411765 L106.76102941176 53.338235294118 L107.52205882353 51.308823529412 L115.47794117647 51.308823529412 L116.23897058824 53.338235294118 L117 52.323529411765 L117.76102941176 53.338235294118 L118.52205882353 51.308823529412 L124.47794117647 51.308823529412 L125.23897058824 53.338235294118 L126 52.323529411765 L126.76102941176 53.338235294118 L127.52205882353 51.308823529412 L134.47794117647 51.308823529412 L135.23897058824 53.338235294118 L136 52.323529411765 L136.76102941176 53.338235294118 L137.52205882353 51.308823529412 L139.47794117647 51.308823529412 L140.23897058824 53.338235294118 L141 52.323529411765 L141.76102941176 53.338235294118 L142.52205882353 51.308823529412 L148.47794117647 51.308823529412 L149.23897058824 53.338235294118 L150 52.323529411765 L150.76102941176 53.338235294118 L151.52205882353 51.308823529412 L159.47794117647 51.308823529412 L160.23897058824 53.338235294118 L161 52.323529411765 L161.76102941176 53.338235294118 L162.52205882353 51.308823529412 L164.47794117647 51.308823529412 L165.23897058824 53.338235294118 L166 52.323529411765 L166.76102941176 53.338235294118 L167.52205882353 51.308823529412 L170.47794117647 51.308823529412 L171.23897058824 53.338235294118 L172 52.323529411765 L172.76102941176 53.338235294118 L173.52205882353 51.308823529412 L175.47794117647 51.308823529412 L176.23897058824 53.338235294118 L177 52.323529411765 L177.76102941176 53.338235294118 L178.52205882353 51.308823529412 L180 51.308823529412"/>
    <path d="M 30 54.352941176471 L33.477941176471 54.352941176471 L34.238970588235 56.382352941176 L35 55.367647058824 L35.761029411765 56.382352941176 L36.522058823529 54.352941176471 L37.477941176471 54.352941176471 L38.238970588235 56.382352941176 L39 55.367647058824 L39.761029411765 56.382352941176 L40.522058823529 54.352941176471 L41.477941176471 54.352941176471 L42.238970588235 56.382352941176 L43 55.367647058824 L43.761029411765 56.382352941176 L44.522058823529 54.352941176471 L48.477941176471 54.352941176471 L49.238970588235 56.382352941176 L50 55.367647058824 L50.761029411765 56.382352941176 L51.522058823529 54.352941176471 L55.477941176471 54.352941176471 L56.238970588235 56.382352941176 L57 55.367647058824 L57.761029411765 56.382352941176 L58.522058823529 54.352941176471 L64.477941176471 54.352941176471 L65.238970588235 56.382352941176 L66 55.367647058824 L66.761029411765 56.382352941176 L67.522058823529 54.352941176471 L70.477941176471 54.352941176471 L71.238970588235 56.382352941176 L72 55.367647058824 L72.761029411765 56.382352941176 L73.522058823529 54.352941176471 L78.477941176471 54.352941176471 L79.238970588235 56.382352941176 L80 55.367647058824 L80.761029411765 56.382352941176 L81.522058823529 54.352941176471 L88.477941176471 54.352941176471 L89.238970588235 56.382352941176 L90 55.367647058824 L90.761029411765 56.382352941176 L91.522058823529 54.352941176471 L97.477941176471 54.352941176471 L98.238970588235 56.382352941176 L99 55.367647058824 L99.761029411765 56.382352941176 L100.52205882353 54.352941176471 L101.47794117647 54.352941176471 L102.23897058824 56.382352941176 L103 55.367647058824 L103.76102941176 56.382352941176 L104.52205882353 54.352941176471 L107.47794117647 54.352941176471 L108.23897058824 56.382352941176 L109 55.367647058824 L109.76102941176 56.382352941176 L110.52205882353 54.352941176471 L114.47794117647 54.352941176471 L115.23897058824 56.382352941176 L116 55.367647058824 L116.76102941176 56.382352941176 L117.52205882353 54.352941176471 L120.47794117647 54.352941176471 L121.23897058824 56.382352941176 L122 55.367647058824 L122.76102941176 56.382352941176 L123.52205882353 54.352941176471 L124.47794117647 54.352941176471 L125.23897058824 56.382352941176 L126 55.367647058824 L126.76102941176 56.382352941176 L127.52205882353 54.352941176471 L133.47794117647 54.352941176471 L134.23897058824 56.382352941176 L135 55.367647058824 L135.76102941176 56.382352941176 L136.52205882353 54.352941176471 L142.47794117647 54.352941176471 L143.23897058824 56.382352941176 L144 55.367647058824 L144.76102941176 56.382352941176 L145.52205882353 54.352941176471 L150.47794117647 54.352941176471 L151.23897058824 56.382352941176 L152 55.367647058824 L152.76102941176 56.382352941176 L153.52205882353 54.352941176471 L156.47794117647 54.352941176471 L157.23897058824 56.382352941176 L158 55.367647058824 L158.76102941176 56.382352941176 L159.52205882353 54.352941176471 L168.47794117647 54.352941176471 L169.23897058824 56.382352941176 L170 55.367647058824 L170.76102941176 56.382352941176 L171.52205882353 54.352941176471 L175.47794117647 54.352941176471 L176.23897058824 56.382352941176 L177 55.367647058824 L177.76102941176 56.382352941176 L178.52205882353 54.352941176471 L180 54.352941176471"/>
    <path d="M 30 57.397058823529 L33.477941176471 57.397058823529 L34.238970588235 59.426470588235 L35 58.411764705882 L35.761029411765 59.426470588235 L36.522058823529 57.397058823529 L50.477941176471 57.397058823529 L51.238970588235 59.426470588235 L52 58.411764705882 L52.761029411765 59.426470588235 L53.522058823529 57.397058823529 L58.477941176471 57.397058823529 L59.238970588235 59.426470588235 L60 58.411764705882 L60.761029411765 59.426470588235 L61.522058823529 57.397058823529 L70.477941176471 57.397058823529 L71.238970588235 59.426470588235 L72 58.411764705882 L72.761029411765 59.426470588235 L73.522058823529 57.397058823529 L76.477941176471 57.397058823529 L77.238970588235 59.426470588235 L78 58.411764705882 L78.761029411765 59.426470588235 L79.522058823529 57.397058823529 L80.477941176471 57.397058823529 L81.238970588235 59.426470588235 L82 58.411764705882 L82.761029411765 59.426470588235 L83.522058823529 57.397058823529 L91.477941176471 57.397058823529 L92.238970588235 59.426470588235 L93 58.411764705882 L93.761029411765 59.426470588235 L94.522058823529 57.397058823529 L108.47794117647 57.397058823529 L109.23897058824 59.426470588235 L110 58.411764705882 L110.76102941176 59.426470588235 L111.52205882353 57.397058823529 L116.47794117647 57.397058823529 L117.23897058824 59.426470588235 L118 58.411764705882 L118.76102941176 59.426470588235 L119.52205882353 57.397058823529 L120.47794117647 57.397058823529 L121.23897058824 59.426470588235 L122 58.411764705882 L122.76102941176 59.426470588235 L123.52205882353 57.397058823529 L124.47794117647 57.397058823529 L125.23897058824 59.426470588235 L126 58.411764705882 L126.76102941176 59.426470588235 L127.52205882353 57.397058823529 L128.47794117647 57.397058823529 L129.23897058824 59.426470588235 L130 58.411764705882 L130.76102941176 59.426470588235 L131.52205882353 57.397058823529 L143.47794117647 57.397058823529 L144.23897058824 59.426470588235 L145 58.411764705882 L145.76102941176 59.426470588235 L146.52205882353 57.397058823529 L162.47794117647 57.397058823529 L163.23897058824 59.426470588235 L164 58.411764705882 L164.76102941176 59.426470588235 L165.52205882353 57.397058823529 L173.47794117647 57.397058823529 L174.23897058824 59.426470588235 L175 58.411764705882 L175.76102941176 59.426470588235 L176.52205882353 57.397058823529 L180 57.397058823529"/>
    <path d="M 30 60.441176470588 L37.477941176471 60.441176470588 L38.238970588235 62.470588235294 L39 61.455882352941 L39.761029411765 62.470588235294 L40.522058823529 60.441176470588 L45.477941176471 60.441176470588 L46.238970588235 62.470588235294 L47 61.455882352941 L47.761029411765 62.470588235294 L48.522058823529 60.441176470588 L62.477941176471 60.441176470588 L63.238970588235 62.470588235294 L64 61.455882352941 L64.761029411765 62.470588235294 L65.522058823529 60.441176470588 L72.477941176471 60.441176470588 L73.238970588235 62.470588235294 L74 61.455882352941 L74.761029411765 62.470588235294 L75.522058823529 60.441176470588 L77.477941176471 60.441176470588 L78.238970588235 62.470588235294 L79 61.455882352941 L79.761029411765 62.470588235294 L80.522058823529 60.441176470588 L89.477941176471 60.441176470588 L90.238970588235 62.470588235294 L91 61.455882352941 L91.761029411765 62.470588235294 L92.522058823529 60.441176470588 L97.477941176471 60.441176470588 L98.238970588235 62.470588235294 L99 61.455882352941 L99.761029411765 62.470588235294 L100.52205882353 60.441176470588 L107.47794117647 60.441176470588 L108.23897058824 62.470588235294 L109 61.455882352941 L109.76102941176 62.470588235294 L110.52205882353 60.441176470588 L113.47794117647 60.441176470588 L114.23897058824 62.470588235294 L115 61.455882352941 L115.76102941176 62.470588235294 L116.52205882353 60.441176470588 L135.47794117647 60.441176470588 L136.23897058824 62.470588235294 L137 61.455882352941 L137.76102941176 62.470588235294 L138.52205882353 60.441176470588 L140.47794117647 60.441176470588 L141.23897058824 62.470588235294 L142 61.455882352941 L142.76102941176 62.470588235294 L143.52205882353 60.441176470588 L145.47794117647 60.441176470588 L146.23897058824 62.470588235294 L147 61.455882352941 L147.76102941176 62.470588235294 L148.52205882353 60.441176470588 L151.47794117647 60.441176470588 L152.23897058824 62.470588235294 L153 61.455882352941 L153.76102941176 62.470588235294 L154.52205882353 60.441176470588 L159.47794117647 60.441176470588 L160.23897058824 62.470588235294 L161 61.455882352941 L161.76102941176 62.470588235294 L162.52205882353 60.441176470588 L172.47794117647 60.441176470588 L173.23897058824 62.470588235294 L174 61.455882352941 L174.76102941176 62.470588235294 L175.52205882353 60.441176470588 L180 60.441176470588"/>
    <path d="M 30 63.485294117647 L34.477941176471 63.485294117647 L35.238970588235 65.514705882353 L36 64.5 L36.761029411765 65.514705882353 L37.522058823529 63.485294117647 L44.477941176471 63.485294117647 L45.238970588235 65.514705882353 L46 64.5 L46.761029411765 65.514705882353 L47.522058823529 63.485294117647 L48.477941176471 63.485294117647 L49.238970588235 65.514705882353 L50 64.5 L50.761029411765 65.514705882353 L51.522058823529 63.485294117647 L54.477941176471 63.485294117647 L55.238970588235 65.514705882353 L56 64.5 L56.761029411765 65.514705882353 L57.522058823529 63.485294117647 L59.477941176471 63.485294117647 L60.238970588235 65.514705882353 L61 64.5 L61.761029411765 65.514705882353 L62.522058823529 63.485294117647 L65.477941176471 63.485294117647 L66.238970588235 65.514705882353 L67 64.5 L67.761029411765 65.514705882353 L68.522058823529 63.485294117647 L69.477941176471 63.485294117647 L70.238970588235 65.514705882353 L71 64.5 L71.761029411765 65.514705882353 L72.522058823529 63.485294117647 L75.477941176471 63.485294117647 L76.238970588235 65.514705882353 L77 64.5 L77.761029411765 65.514705882353 L78.522058823529 63.485294117647 L80.477941176471 63.485294117647 L81.238970588235 65.514705882353 L82 64.5 L82.761029411765 65.514705882353 L83.522058823529 63.485294117647 L84.477941176471 63.485294117647 L85.238970588235 65.514705882353 L86 64.5 L86.761029411765 65.514705882353 L87.522058823529 63.485294117647 L90.477941176471 63.485294117647 L91.238970588235 65.514705882353 L92 64.5 L92.761029411765 65.514705882353 L93.522058823529 63.485294117647 L99.477941176471 63.485294117647 L100.23897058824 65.514705882353 L101 64.5 L101.76102941176 65.514705882353 L102.52205882353 63.485294117647 L107.47794117647 63.485294117647 L108.23897058824 65.514705882353 L109 64.5 L109.76102941176 65.514705882353 L110.52205882353 63.485294117647 L112.47794117647 63.485294117647 L113.23897058824 65.514705882353 L114 64.5 L114.76102941176 65.514705882353 L115.52205882353 63.485294117647 L116.47794117647 63.485294117647 L117.23897058824 65.514705882353 L118 64.5 L118.76102941176 65.514705882353 L119.52205882353 63.485294117647 L120.47794117647 63.485294117647 L121.23897058824 65.514705882353 L122 64.5 L122.76102941176 65.514705882353 L123.52205882353 63.485294117647 L126.47794117647 63.485294117647 L127.23897058824 65.514705882353 L128 64.5 L128.76102941176 65.514705882353 L129.52205882353 63.485294117647 L131.47794117647 63.485294117647 L132.23897058824 65.514705882353 L133 64.5 L133.76102941176 65.514705882353 L134.52205882353 63.485294117647 L138.47794117647 63.485294117647 L139.23897058824 65.514705882353 L140 64.5 L140.76102941176 65.514705882353 L141.52205882353 63.485294117647 L150.47794117647 63.485294117647 L151.23897058824 65.514705882353 L152 64.5 L152.76102941176 65.514705882353 L153.52205882353 63.485294117647 L154.47794117647 63.485294117647 L155.23897058824 65.514705882353 L156 64.5 L156.76102941176 65.514705882353 L157.52205882353 63.485294117647 L162.47794117647 63.485294117647 L163.23897058824 65.514705882353 L164 64.5 L164.76102941176 65.514705882353 L165.52205882353 63.485294117647 L169.47794117647 63.485294117647 L170.23897058824 65.514705882353 L171 64.5 L171.76102941176 65.514705882353 L172.52205882353 63.485294117647 L180 63.485294117647"/>
    <path d="M 30 66.529411764706 L36.477941176471 66.529411764706 L37.238970588235 68.558823529412 L38 67.544117647059 L38.761029411765 68.558823529412 L39.522058823529 66.529411764706 L47.477941176471 66.529411764706 L48.238970588235 68.558823529412 L49 67.544117647059 L49.761029411765 68.558823529412 L50.522058823529 66.529411764706 L51.477941176471 66.529411764706 L52.238970588235 68.558823529412 L53 67.544117647059 L53.761029411765 68.558823529412 L54.522058823529 66.529411764706 L60.477941176471 66.529411764706 L61.238970588235 68.558823529412 L62 67.544117647059 L62.761029411765 68.558823529412 L63.522058823529 66.529411764706 L82.477941176471 66.529411764706 L83.238970588235 68.558823529412 L84 67.544117647059 L84.761029411765 68.558823529412 L85.522058823529 66.529411764706 L87.477941176471 66.529411764706 L88.238970588235 68.558823529412 L89 67.544117647059 L89.761029411765 68.558823529412 L90.522058823529 66.529411764706 L91.477941176471 66.529411764706 L92.238970588235 68.558823529412 L93 67.544117647059 L93.761029411765 68.558823529412 L94.522058823529 66.529411764706 L95.477941176471 66.529411764706 L96.238970588235 68.558823529412 L97 67.544117647059 L97.761029411765 68.558823529412 L98.522058823529 66.529411764706 L102.47794117647 66.529411764706 L103.23897058824 68.558823529412 L104 67.544117647059 L104.76102941176 68.558823529412 L105.52205882353 66.529411764706 L110.47794117647 66.529411764706 L111.23897058824 68.558823529412 L112 67.544117647059 L112.76102941176 68.558823529412 L113.52205882353 66.529411764706 L122.47794117647 66.529411764706 L123.23897058824 68.558823529412 L124 67.544117647059 L124.76102941176 68.558823529412 L125.52205882353 66.529411764706 L139.47794117647 66.529411764706 L140.23897058824 68.558823529412 L141 67.544117647059 L141.76102941176 68.558823529412 L142.52205882353 66.529411764706 L144.47794117647 66.529411764706 L145.23897058824 68.558823529412 L146 67.544117647059 L146.76102941176 68.558823529412 L147.52205882353 66.529411764706 L155.47794117647 66.529411764706 L156.23897058824 68.558823529412 L157 67.544117647059 L157.76102941176 68.558823529412 L158.52205882353 66.529411764706 L165.47794117647 66.529411764706 L166.23897058824 68.558823529412 L167 67.544117647059 L167.76102941176 68.558823529412 L168.52205882353 66.529411764706 L171.47794117647 66.529411764706 L172.23897058824 68.558823529412 L173 67.544117647059 L173.76102941176 68.558823529412 L174.52205882353 66.529411764706 L180 66.529411764706"/>
    <path d="M 30 69.573529411765 L41.477941176471 69.573529411765 L42.238970588235 71.602941176471 L43 70.588235294118 L43.761029411765 71.602941176471 L44.522058823529 69.573529411765 L52.477941176471 69.573529411765 L53.238970588235 71.602941176471 L54 70.588235294118 L54.761029411765 71.602941176471 L55.522058823529 69.573529411765 L59.477941176471 69.573529411765 L60.238970588235 71.602941176471 L61 70.588235294118 L61.761029411765 71.602941176471 L62.522058823529 69.573529411765 L74.477941176471 69.573529411765 L75.238970588235 71.602941176471 L76 70.588235294118 L76.761029411765 71.602941176471 L77.522058823529 69.573529411765 L80.477941176471 69.573529411765 L81.238970588235 71.602941176471 L82 70.588235294118 L82.761029411765 71.602941176471 L83.522058823529 69.573529411765 L90.477941176471 69.573529411765 L91.238970588235 71.602941176471 L92 70.588235294118 L92.761029411765 71.602941176471 L93.522058823529 69.573529411765 L100.47794117647 69.573529411765 L101.23897058824 71.602941176471 L102 70.588235294118 L102.76102941176 71.602941176471 L103.52205882353 69.573529411765 L124.47794117647 69.573529411765 L125.23897058824 71.602941176471 L126 70.588235294118 L126.76102941176 71.602941176471 L127.52205882353 69.573529411765 L128.47794117647 69.573529411765 L129.23897058824 71.602941176471 L130 70.588235294118 L130.76102941176 71.602941176471 L131.52205882353 69.573529411765 L133.47794117647 69.573529411765 L134.23897058824 71.602941176471 L135 70.588235294118 L135.76102941176 71.602941176471 L136.52205882353 69.573529411765 L146.47794117647 69.573529411765 L147.23897058824 71.602941176471 L148 70.588235294118 L148.76102941176 71.602941176471 L149.52205882353 69.573529411765 L159.47794117647 69.573529411765 L160.23897058824 71.602941176471 L161 70.588235294118 L161.76102941176 71.602941176471 L162.52205882353 69.573529411765 L180 69.573529411765"/>
    <path d="M 30 72.617647058824 L33.477941176471 72.617647058824 L34.238970588235 74.647058823529 L35 73.632352941176 L35.761029411765 74.647058823529 L36.522058823529 72.617647058824 L38.477941176471 72.617647058824 L39.238970588235 74.647058823529 L40 73.632352941176 L40.761029411765 74.647058823529 L41.522058823529 72.617647058824 L47.477941176471 72.617647058824 L48.238970588235 74.647058823529 L49 73.632352941176 L49.761029411765 74.647058823529 L50.522058823529 72.617647058824 L54.477941176471 72.617647058824 L55.238970588235 74.647058823529 L56 73.632352941176 L56.761029411765 74.647058823529 L57.522058823529 72.617647058824 L68.477941176471 72.617647058824 L69.238970588235 74.647058823529 L70 73.632352941176 L70.761029411765 74.647058823529 L71.522058823529 72.617647058824 L91.477941176471 72.617647058824 L92.238970588235 74.647058823529 L93 73.632352941176 L93.761029411765 74.647058823529 L94.522058823529 72.617647058824 L95.477941176471 72.617647058824 L96.238970588235 74.647058823529 L97 73.632352941176 L97.761029411765 74.647058823529 L98.522058823529 72.617647058824 L101.47794117647 72.617647058824 L102.23897058824 74.647058823529 L103 73.632352941176 L103.76102941176 74.647058823529 L104.52205882353 72.617647058824 L110.47794117647 72.617647058824 L111.23897058824 74.647058823529 L112 73.632352941176 L112.76102941176 74.647058823529 L113.52205882353 72.617647058824 L124.47794117647 72.617647058824 L125.23897058824 74.647058823529 L126 73.632352941176 L126.76102941176 74.647058823529 L127.52205882353 72.617647058824 L138.47794117647 72.617647058824 L139.23897058824 74.647058823529 L140 73.632352941176 L140.76102941176 74.647058823529 L141.52205882353 72.617647058824 L147.47794117647 72.617647058824 L148.23897058824 74.647058823529 L149 73.632352941176 L149.76102941176 74.647058823529 L150.52205882353 72.617647058824 L152.47794117647 72.617647058824 L153.23897058824 74.647058823529 L154 73.632352941176 L154.76102941176 74.647058823529 L155.52205882353 72.617647058824 L160.47794117647 72.617647058824 L161.23897058824 74.647058823529 L162 73.632352941176 L162.76102941176 74.647058823529 L163.52205882353 72.617647058824 L169.47794117647 72.617647058824 L170.23897058824 74.647058823529 L171 73.632352941176 L171.76102941176 74.647058823529 L172.52205882353 72.617647058824 L175.47794117647 72.617647058824 L176.23897058824 74.647058823529 L177 73.632352941176 L177.76102941176 74.647058823529 L178.52205882353 72.617647058824 L180 72.617647058824"/>
    <path d="M 30 75.661764705882 L36.477941176471 75.661764705882 L37.238970588235 77.691176470588 L38 76.676470588235 L38.761029411765 77.691176470588 L39.522058823529 75.661764705882 L43.477941176471 75.661764705882 L44.238970588235 77.691176470588 L45 76.676470588235 L45.761029411765 77.691176470588 L46.522058823529 75.661764705882 L50.477941176471 75.661764705882 L51.238970588235 77.691176470588 L52 76.676470588235 L52.761029411765 77.691176470588 L53.522058823529 75.661764705882 L57.477941176471 75.661764705882 L58.238970588235 77.691176470588 L59 76.676470588235 L59.761029411765 77.691176470588 L60.522058823529 75.661764705882 L61.477941176471 75.661764705882 L62.238970588235 77.691176470588 L63 76.676470588235 L63.761029411765 77.691176470588 L64.522058823529 75.661764705882 L68.477941176471 75.661764705882 L69.238970588235 77.691176470588 L70 76.676470588235 L70.761029411765 77.691176470588 L71.522058823529 75.661764705882 L72.477941176471 75.661764705882 L73.238970588235 77.691176470588 L74 76.676470588235 L74.761029411765 77.691176470588 L75.522058823529 75.661764705882 L76.477941176471 75.661764705882 L77.238970588235 77.691176470588 L78 76.676470588235 L78.761029411765 77.691176470588 L79.522058823529 75.661764705882 L80.477941176471 75.661764705882 L81.238970588235 77.691176470588 L82 76.676470588235 L82.761029411765 77.691176470588 L83.522058823529 75.661764705882 L86.477941176471 75.661764705882 L87.238970588235 77.691176470588 L88 76.676470588235 L88.761029411765 77.691176470588 L89.522058823529 75.661764705882 L97.477941176471 75.661764705882 L98.238970588235 77.691176470588 L99 76.676470588235 L99.761029411765 77.691176470588 L100.52205882353 75.661764705882 L103.47794117647 75.661764705882 L104.23897058824 77.691176470588 L105 76.676470588235 L105.76102941176 77.691176470588 L106.52205882353 75.661764705882 L108.47794117647 75.661764705882 L109.23897058824 77.691176470588 L110 76.676470588235 L110.76102941176 77.691176470588 L111.52205882353 75.661764705882 L114.47794117647 75.661764705882 L115.23897058824 77.691176470588 L116 76.676470588235 L116.76102941176 77.691176470588 L117.52205882353 75.661764705882 L123.47794117647 75.661764705882 L124.23897058824 77.691176470588 L125 76.676470588235 L125.76102941176 77.691176470588 L126.52205882353 75.661764705882 L133.47794117647 75.661764705882 L134.23897058824 77.691176470588 L135 76.676470588235 L135.76102941176 77.691176470588 L136.52205882353 75.661764705882 L148.47794117647 75.661764705882 L149.23897058824 77.691176470588 L150 76.676470588235 L150.76102941176 77.691176470588 L151.52205882353 75.661764705882 L152.47794117647 75.661764705882 L153.23897058824 77.691176470588 L154 76.676470588235 L154.76102941176 77.691176470588 L155.52205882353 75.661764705882 L157.47794117647 75.661764705882 L158.23897058824 77.691176470588 L159 76.676470588235 L159.76102941176 77.691176470588 L160.52205882353 75.661764705882 L164.47794117647 75.661764705882 L165.23897058824 77.691176470588 L166 76.676470588235 L166.76102941176 77.691176470588 L167.52205882353 75.661764705882 L174.47794117647 75.661764705882 L175.23897058824 77.691176470588 L176 76.676470588235 L176.76102941176 77.691176470588 L177.52205882353 75.661764705882 L180 75.661764705882"/>
    <path d="M 30 78.705882352941 L46.477941176471 78.705882352941 L47.238970588235 80.735294117647 L48 79.720588235294 L48.761029411765 80.735294117647 L49.522058823529 78.705882352941 L53.477941176471 78.705882352941 L54.238970588235 80.735294117647 L55 79.720588235294 L55.761029411765 80.735294117647 L56.522058823529 78.705882352941 L82.477941176471 78.705882352941 L83.238970588235 80.735294117647 L84 79.720588235294 L84.761029411765 80.735294117647 L85.522058823529 78.705882352941 L89.477941176471 78.705882352941 L90.238970588235 80.735294117647 L91 79.720588235294 L91.761029411765 80.735294117647 L92.522058823529 78.705882352941 L97.477941176471 78.705882352941 L98.238970588235 80.735294117647 L99 79.720588235294 L99.761029411765 80.735294117647 L100.52205882353 78.705882352941 L103.47794117647 78.705882352941 L104.23897058824 80.735294117647 L105 79.720588235294 L105.76102941176 80.735294117647 L106.52205882353 78.705882352941 L109.47794117647 78.705882352941 L110.23897058824 80.735294117647 L111 79.720588235294 L111.76102941176 80.735294117647 L112.52205882353 78.705882352941 L122.47794117647 78.705882352941 L123.23897058824 80.735294117647 L124 79.720588235294 L124.76102941176 80.735294117647 L125.52205882353 78.705882352941 L126.47794117647 78.705882352941 L127.23897058824 80.735294117647 L128 79.720588235294 L128.76102941176 80.735294117647 L129.52205882353 78.705882352941 L132.47794117647 78.705882352941 L133.23897058824 80.735294117647 L134 79.720588235294 L134.76102941176 80.735294117647 L135.52205882353 78.705882352941 L137.47794117647 78.705882352941 L138.23897058824 80.735294117647 L139 79.720588235294 L139.76102941176 80.735294117647 L140.52205882353 78.705882352941 L143.47794117647 78.705882352941 L144.23897058824 80.735294117647 L145 79.720588235294 L145.76102941176 80.735294117647 L146.52205882353 78.705882352941 L149.47794117647 78.705882352941 L150.23897058824 80.735294117647 L151 79.720588235294 L151.76102941176 80.735294117647 L152.52205882353 78.705882352941 L159.47794117647 78.705882352941 L160.23897058824 80.735294117647 L161 79.720588235294 L161.76102941176 80.735294117647 L162.52205882353 78.705882352941 L163.47794117647 78.705882352941 L164.23897058824 80.735294117647 L165 79.720588235294 L165.76102941176 80.735294117647 L166.52205882353 78.705882352941 L170.47794117647 78.705882352941 L171.23897058824 80.735294117647 L172 79.720588235294 L172.76102941176 80.735294117647 L173.52205882353 78.705882352941 L180 78.705882352941"/>
    <path d="M 30 81.75 L30.477941176471 81.75 L31.238970588235 83.779411764706 L32 82.764705882353 L32.761029411765 83.779411764706 L33.522058823529 81.75 L36.477941176471 81.75 L37.238970588235 83.779411764706 L38 82.764705882353 L38.761029411765 83.779411764706 L39.522058823529 81.75 L41.477941176471 81.75 L42.238970588235 83.779411764706 L43 82.764705882353 L43.761029411765 83.779411764706 L44.522058823529 81.75 L52.477941176471 81.75 L53.238970588235 83.779411764706 L54 82.764705882353 L54.761029411765 83.779411764706 L55.522058823529 81.75 L67.477941176471 81.75 L68.238970588235 83.779411764706 L69 82.764705882353 L69.761029411765 83.779411764706 L70.522058823529 81.75 L73.477941176471 81.75 L74.238970588235 83.779411764706 L75 82.764705882353 L75.761029411765 83.779411764706 L76.522058823529 81.75 L80.477941176471 81.75 L81.238970588235 83.779411764706 L82 82.764705882353 L82.761029411765 83.779411764706 L83.522058823529 81.75 L84.477941176471 81.75 L85.238970588235 83.779411764706 L86 82.764705882353 L86.761029411765 83.779411764706 L87.522058823529 81.75 L96.477941176471 81.75 L97.238970588235 83.779411764706 L98 82.764705882353 L98.761029411765 83.779411764706 L99.522058823529 81.75 L100.47794117647 81.75 L101.23897058824 83.779411764706 L102 82.764705882353 L102.76102941176 83.779411764706 L103.52205882353 81.75 L110.47794117647 81.75 L111.23897058824 83.779411764706 L112 82.764705882353 L112.76102941176 83.779411764706 L113.52205882353 81.75 L115.47794117647 81.75 L116.23897058824 83.779411764706 L117 82.764705882353 L117.76102941176 83.779411764706 L118.52205882353 81.75 L125.47794117647 81.75 L126.23897058824 83.779411764706 L127 82.764705882353 L127.76102941176 83.779411764706 L128.52205882353 81.75 L130.47794117647 81.75 L131.23897058824 83.779411764706 L132 82.764705882353 L132.76102941176 83.779411764706 L133.52205882353 81.75 L137.47794117647 81.75 L138.23897058824 83.779411764706 L139 82.764705882353 L139.76102941176 83.779411764706 L140.52205882353 81.75 L143.47794117647 81.75 L144.23897058824 83.779411764706 L145 82.764705882353 L145.76102941176 83.779411764706 L146.52205882353 81.75 L148.47794117647 81.75 L149.23897058824 83.779411764706 L150 82.764705882353 L150.76102941176 83.779411764706 L151.52205882353 81.75 L164.47794117647 81.75 L165.23897058824 83.779411764706 L166 82.764705882353 L166.76102941176 83.779411764706 L167.52205882353 81.75 L175.47794117647 81.75 L176.23897058824 83.779411764706 L177 82.764705882353 L177.76102941176 83.779411764706 L178.52205882353 81.75 L180 81.75"/>
    <path d="M 30 84.794117647059 L143.47794117647 84.794117647059 L144.23897058824 86.823529411765 L145 85.808823529412 L145.76102941176 86.823529411765 L146.52205882353 84.794117647059 L180 84.794117647059"/>
    <path d="M 30 87.838235294118 L31.477941176471 87.838235294118 L32.238970588235 89.867647058824 L33 88.852941176471 L33.761029411765 89.867647058824 L34.522058823529 87.838235294118 L35.477941176471 87.838235294118 L36.238970588235 89.867647058824 L37 88.852941176471 L37.761029411765 89.867647058824 L38.522058823529 87.838235294118 L41.477941176471 87.838235294118 L42.238970588235 89.867647058824 L43 88.852941176471 L43.761029411765 89.867647058824 L44.522058823529 87.838235294118 L45.477941176471 87.838235294118 L46.238970588235 89.867647058824 L47 88.852941176471 L47.761029411765 89.867647058824 L48.522058823529 87.838235294118 L50.477941176471 87.838235294118 L51.238970588235 89.867647058824 L52 88.852941176471 L52.761029411765 89.867647058824 L53.522058823529 87.838235294118 L66.477941176471 87.838235294118 L67.238970588235 89.867647058824 L68 88.852941176471 L68.761029411765 89.867647058824 L69.522058823529 87.838235294118 L73.477941176471 87.838235294118 L74.238970588235 89.867647058824 L75 88.852941176471 L75.761029411765 89.867647058824 L76.522058823529 87.838235294118 L83.477941176471 87.838235294118 L84.238970588235 89.867647058824 L85 88.852941176471 L85.761029411765 89.867647058824 L86.522058823529 87.838235294118 L96.477941176471 87.838235294118 L97.238970588235 89.867647058824 L98 88.852941176471 L98.761029411765 89.867647058824 L99.522058823529 87.838235294118 L101.47794117647 87.838235294118 L102.23897058824 89.867647058824 L103 88.852941176471 L103.76102941176 89.867647058824 L104.52205882353 87.838235294118 L110.47794117647 87.838235294118 L111.23897058824 89.867647058824 L112 88.852941176471 L112.76102941176 89.867647058824 L113.52205882353 87.838235294118 L119.47794117647 87.838235294118 L120.23897058824 89.867647058824 L121 88.852941176471 L121.76102941176 89.867647058824 L122.52205882353 87.838235294118 L130.47794117647 87.838235294118 L131.23897058824 89.867647058824 L132 88.852941176471 L132.76102941176 89.867647058824 L133.52205882353 87.838235294118 L137.47794117647 87.838235294118 L138.23897058824 89.867647058824 L139 88.852941176471 L139.76102941176 89.867647058824 L140.52205882353 87.838235294118 L142.47794117647 87.838235294118 L143.23897058824 89.867647058824 L144 88.852941176471 L144.76102941176 89.867647058824 L145.52205882353 87.838235294118 L147.47794117647 87.838235294118 L148.23897058824 89.867647058824 L149 88.852941176471 L149.76102941176 89.867647058824 L150.52205882353 87.838235294118 L153.47794117647 87.838235294118 L154.23897058824 89.867647058824 L155 88.852941176471 L155.76102941176 89.867647058824 L156.52205882353 87.838235294118 L158.47794117647 87.838235294118 L159.23897058824 89.867647058824 L160 88.852941176471 L160.76102941176 89.867647058824 L161.52205882353 87.838235294118 L165.47794117647 87.838235294118 L166.23897058824 89.867647058824 L167 88.852941176471 L167.76102941176 89.867647058824 L168.52205882353 87.838235294118 L169.47794117647 87.838235294118 L170.23897058824 89.867647058824 L171 88.852941176471 L171.76102941176 89.867647058824 L172.52205882353 87.838235294118 L176.47794117647 87.838235294118 L177.23897058824 89.867647058824 L178 88.852941176471 L178.76102941176 89.867647058824 L179.52205882353 87.838235294118 L180 87.838235294118"/>
    <path d="M 30 90.882352941176 L36.477941176471 90.882352941176 L37.238970588235 92.911764705882 L38 91.897058823529 L38.761029411765 92.911764705882 L39.522058823529 90.882352941176 L43.477941176471 90.882352941176 L44.238970588235 92.911764705882 L45 91.897058823529 L45.761029411765 92.911764705882 L46.522058823529 90.882352941176 L48.477941176471 90.882352941176 L49.238970588235 92.911764705882 L50 91.897058823529 L50.761029411765 92.911764705882 L51.522058823529 90.882352941176 L55.477941176471 90.882352941176 L56.238970588235 92.911764705882 L57 91.897058823529 L57.761029411765 92.911764705882 L58.522058823529 90.882352941176 L59.477941176471 90.882352941176 L60.238970588235 92.911764705882 L61 91.897058823529 L61.761029411765 92.911764705882 L62.522058823529 90.882352941176 L72.477941176471 90.882352941176 L73.238970588235 92.911764705882 L74 91.897058823529 L74.761029411765 92.911764705882 L75.522058823529 90.882352941176 L83.477941176471 90.882352941176 L84.238970588235 92.911764705882 L85 91.897058823529 L85.761029411765 92.911764705882 L86.522058823529 90.882352941176 L92.477941176471 90.882352941176 L93.238970588235 92.911764705882 L94 91.897058823529 L94.761029411765 92.911764705882 L95.522058823529 90.882352941176 L98.477941176471 90.882352941176 L99.238970588235 92.911764705882 L100 91.897058823529 L100.76102941176 92.911764705882 L101.52205882353 90.882352941176 L105.47794117647 90.882352941176 L106.23897058824 92.911764705882 L107 91.897058823529 L107.76102941176 92.911764705882 L108.52205882353 90.882352941176 L110.47794117647 90.882352941176 L111.23897058824 92.911764705882 L112 91.897058823529 L112.76102941176 92.911764705882 L113.52205882353 90.882352941176 L114.47794117647 90.882352941176 L115.23897058824 92.911764705882 L116 91.897058823529 L116.76102941176 92.911764705882 L117.52205882353 90.882352941176 L119.47794117647 90.882352941176 L120.23897058824 92.911764705882 L121 91.897058823529 L121.76102941176 92.911764705882 L122.52205882353 90.882352941176 L125.47794117647 90.882352941176 L126.23897058824 92.911764705882 L127 91.897058823529 L127.76102941176 92.911764705882 L128.52205882353 90.882352941176 L131.47794117647 90.882352941176 L132.23897058824 92.911764705882 L133 91.897058823529 L133.76102941176 92.911764705882 L134.52205882353 90.882352941176 L137.47794117647 90.882352941176 L138.23897058824 92.911764705882 L139 91.897058823529 L139.76102941176 92.911764705882 L140.52205882353 90.882352941176 L149.47794117647 90.882352941176 L150.23897058824 92.911764705882 L151 91.897058823529 L151.76102941176 92.911764705882 L152.52205882353 90.882352941176 L154.47794117647 90.882352941176 L155.23897058824 92.911764705882 L156 91.897058823529 L156.76102941176 92.911764705882 L157.52205882353 90.882352941176 L160.47794117647 90.882352941176 L161.23897058824 92.911764705882 L162 91.897058823529 L162.76102941176 92.911764705882 L163.52205882353 90.882352941176 L164.47794117647 90.882352941176 L165.23897058824 92.911764705882 L166 91.897058823529 L166.76102941176 92.911764705882 L167.52205882353 90.882352941176 L168.47794117647 90.882352941176 L169.23897058824 92.911764705882 L170 91.897058823529 L170.76102941176 92.911764705882 L171.52205882353 90.882352941176 L173.47794117647 90.882352941176 L174.23897058824 92.911764705882 L175 91.897058823529 L175.76102941176 92.911764705882 L176.52205882353 90.882352941176 L180 90.882352941176"/>
    <path d="M 30 93.926470588235 L78.477941176471 93.926470588235 L79.238970588235 95.955882352941 L80 94.941176470588 L80.761029411765 95.955882352941 L81.522058823529 93.926470588235 L99.477941176471 93.926470588235 L100.23897058824 95.955882352941 L101 94.941176470588 L101.76102941176 95.955882352941 L102.52205882353 93.926470588235 L173.47794117647 93.926470588235 L174.23897058824 95.955882352941 L175 94.941176470588 L175.76102941176 95.955882352941 L176.52205882353 93.926470588235 L180 93.926470588235"/>
    <path d="M 30 96.970588235294 L30.477941176471 96.970588235294 L31.238970588235 99 L32 97.985294117647 L32.761029411765 99 L33.522058823529 96.970588235294 L98.477941176471 96.970588235294 L99.238970588235 99 L100 97.985294117647 L100.76102941176 99 L101.52205882353 96.970588235294 L153.47794117647 96.970588235294 L154.23897058824 99 L155 97.985294117647 L155.76102941176 99 L156.52205882353 96.970588235294 L180 96.970588235294"/>
    <path d="M 30 100.01470588235 L32.477941176471 100.01470588235 L33.238970588235 102.04411764706 L34 101.02941176471 L34.761029411765 102.04411764706 L35.522058823529 100.01470588235 L54.477941176471 100.01470588235 L55.238970588235 102.04411764706 L56 101.02941176471 L56.761029411765 102.04411764706 L57.522058823529 100.01470588235 L59.477941176471 100.01470588235 L60.238970588235 102.04411764706 L61 101.02941176471 L61.761029411765 102.04411764706 L62.522058823529 100.01470588235 L63.477941176471 100.01470588235 L64.238970588235 102.04411764706 L65 101.02941176471 L65.761029411765 102.04411764706 L66.522058823529 100.01470588235 L70.477941176471 100.01470588235 L71.238970588235 102.04411764706 L72 101.02941176471 L72.761029411765 102.04411764706 L73.522058823529 100.01470588235 L78.477941176471 100.01470588235 L79.238970588235 102.04411764706 L80 101.02941176471 L80.761029411765 102.04411764706 L81.522058823529 100.01470588235 L86.477941176471 100.01470588235 L87.238970588235 102.04411764706 L88 101.02941176471 L88.761029411765 102.04411764706 L89.522058823529 100.01470588235 L98.477941176471 100.01470588235 L99.238970588235 102.04411764706 L100 101.02941176471 L100.76102941176 102.04411764706 L101.52205882353 100.01470588235 L105.47794117647 100.01470588235 L106.23897058824 102.04411764706 L107 101.02941176471 L107.76102941176 102.04411764706 L108.52205882353 100.01470588235 L113.47794117647 100.01470588235 L114.23897058824 102.04411764706 L115 101.02941176471 L115.76102941176 102.04411764706 L116.52205882353 100.01470588235 L140.47794117647 100.01470588235 L141.23897058824 102.04411764706 L142 101.02941176471 L142.76102941176 102.04411764706 L143.52205882353 100.01470588235 L147.47794117647 100.01470588235 L148.23897058824 102.04411764706 L149 101.02941176471 L149.76102941176 102.04411764706 L150.52205882353 100.01470588235 L152.47794117647 100.01470588235 L153.23897058824 102.04411764706 L154 101.02941176471 L154.76102941176 102.04411764706 L155.52205882353 100.01470588235 L156.47794117647 100.01470588235 L157.23897058824 102.04411764706 L158 101.02941176471 L158.76102941176 102.04411764706 L159.52205882353 100.01470588235 L180 100.01470588235"/>
    <path d="M 30 103.05882352941 L31.477941176471 103.05882352941 L32.238970588235 105.08823529412 L33 104.07352941176 L33.761029411765 105.08823529412 L34.522058823529 103.05882352941 L56.477941176471 103.05882352941 L57.238970588235 105.08823529412 L58 104.07352941176 L58.761029411765 105.08823529412 L59.522058823529 103.05882352941 L60.477941176471 103.05882352941 L61.238970588235 105.08823529412 L62 104.07352941176 L62.761029411765 105.08823529412 L63.522058823529 103.05882352941 L64.477941176471 103.05882352941 L65.238970588235 105.08823529412 L66 104.07352941176 L66.761029411765 105.08823529412 L67.522058823529 103.05882352941 L76.477941176471 103.05882352941 L77.238970588235 105.08823529412 L78 104.07352941176 L78.761029411765 105.08823529412 L79.522058823529 103.05882352941 L85.477941176471 103.05882352941 L86.238970588235 105.08823529412 L87 104.07352941176 L87.761029411765 105.08823529412 L88.522058823529 103.05882352941 L89.477941176471 103.05882352941 L90.238970588235 105.08823529412 L91 104.07352941176 L91.761029411765 105.08823529412 L92.522058823529 103.05882352941 L97.477941176471 103.05882352941 L98.238970588235 105.08823529412 L99 104.07352941176 L99.761029411765 105.08823529412 L100.52205882353 103.05882352941 L106.47794117647 103.05882352941 L107.23897058824 105.08823529412 L108 104.07352941176 L108.76102941176 105.08823529412 L109.52205882353 103.05882352941 L110.47794117647 103.05882352941 L111.23897058824 105.08823529412 L112 104.07352941176 L112.76102941176 105.08823529412 L113.52205882353 103.05882352941 L115.47794117647 103.05882352941 L116.23897058824 105.08823529412 L117 104.07352941176 L117.76102941176 105.08823529412 L118.52205882353 103.05882352941 L157.47794117647 103.05882352941 L158.23897058824 105.08823529412 L159 104.07352941176 L159.76102941176 105.08823529412 L160.52205882353 103.05882352941 L180 103.05882352941"/>
    <path d="M 30 106.10294117647 L37.477941176471 106.10294117647 L38.238970588235 108.13235294118 L39 107.11764705882 L39.761029411765 108.13235294118 L40.522058823529 106.10294117647 L60.477941176471 106.10294117647 L61.238970588235 108.13235294118 L62 107.11764705882 L62.761029411765 108.13235294118 L63.522058823529 106.10294117647 L66.477941176471 106.10294117647 L67.238970588235 108.13235294118 L68 107.11764705882 L68.761029411765 108.13235294118 L69.522058823529 106.10294117647 L78.477941176471 106.10294117647 L79.238970588235 108.13235294118 L80 107.11764705882 L80.761029411765 108.13235294118 L81.522058823529 106.10294117647 L87.477941176471 106.10294117647 L88.238970588235 108.13235294118 L89 107.11764705882 L89.761029411765 108.13235294118 L90.522058823529 106.10294117647 L95.477941176471 106.10294117647 L96.238970588235 108.13235294118 L97 107.11764705882 L97.761029411765 108.13235294118 L98.522058823529 106.10294117647 L101.47794117647 106.10294117647 L102.23897058824 108.13235294118 L103 107.11764705882 L103.76102941176 108.13235294118 L104.52205882353 106.10294117647 L108.47794117647 106.10294117647 L109.23897058824 108.13235294118 L110 107.11764705882 L110.76102941176 108.13235294118 L111.52205882353 106.10294117647 L120.47794117647 106.10294117647 L121.23897058824 108.13235294118 L122 107.11764705882 L122.76102941176 108.13235294118 L123.52205882353 106.10294117647 L131.47794117647 106.10294117647 L132.23897058824 108.13235294118 L133 107.11764705882 L133.76102941176 108.13235294118 L134.52205882353 106.10294117647 L136.47794117647 106.10294117647 L137.23897058824 108.13235294118 L138 107.11764705882 L138.76102941176 108.13235294118 L139.52205882353 106.10294117647 L155.47794117647 106.10294117647 L156.23897058824 108.13235294118 L157 107.11764705882 L157.76102941176 108.13235294118 L158.52205882353 106.10294117647 L166.47794117647 106.10294117647 L167.23897058824 108.13235294118 L168 107.11764705882 L168.76102941176 108.13235294118 L169.52205882353 106.10294117647 L170.47794117647 106.10294117647 L171.23897058824 108.13235294118 L172 107.11764705882 L172.76102941176 108.13235294118 L173.52205882353 106.10294117647 L180 106.10294117647"/>
    <path d="M 30 109.14705882353 L57.477941176471 109.14705882353 L58.238970588235 111.17647058824 L59 110.16176470588 L59.761029411765 111.17647058824 L60.522058823529 109.14705882353 L85.477941176471 109.14705882353 L86.238970588235 111.17647058824 L87 110.16176470588 L87.761029411765 111.17647058824 L88.522058823529 109.14705882353 L97.477941176471 109.14705882353 L98.238970588235 111.17647058824 L99 110.16176470588 L99.761029411765 111.17647058824 L100.52205882353 109.14705882353 L110.47794117647 109.14705882353 L111.23897058824 111.17647058824 L112 110.16176470588 L112.76102941176 111.17647058824 L113.52205882353 109.14705882353 L124.47794117647 109.14705882353 L125.23897058824 111.17647058824 L126 110.16176470588 L126.76102941176 111.17647058824 L127.52205882353 109.14705882353 L132.47794117647 109.14705882353 L133.23897058824 111.17647058824 L134 110.16176470588 L134.76102941176 111.17647058824 L135.52205882353 109.14705882353 L139.47794117647 109.14705882353 L140.23897058824 111.17647058824 L141 110.16176470588 L141.76102941176 111.17647058824 L142.52205882353 109.14705882353 L180 109.14705882353"/>
    <path d="M 30 112.19117647059 L63.477941176471 112.19117647059 L64.238970588235 114.22058823529 L65 113.20588235294 L65.761029411765 114.22058823529 L66.522058823529 112.19117647059 L72.477941176471 112.19117647059 L73.238970588235 114.22058823529 L74 113.20588235294 L74.761029411765 114.22058823529 L75.522058823529 112.19117647059 L176.47794117647 112.19117647059 L177.23897058824 114.22058823529 L178 113.20588235294 L178.76102941176 114.22058823529 L179.52205882353 112.19117647059 L180 112.19117647059"/>
    <path d="M 30 115.23529411765 L36.477941176471 115.23529411765 L37.238970588235 117.26470588235 L38 116.25 L38.761029411765 117.26470588235 L39.522058823529 115.23529411765 L42.477941176471 115.23529411765 L43.238970588235 117.26470588235 L44 116.25 L44.761029411765 117.26470588235 L45.522058823529 115.23529411765 L48.477941176471 115.23529411765 L49.238970588235 117.26470588235 L50 116.25 L50.761029411765 117.26470588235 L51.522058823529 115.23529411765 L53.477941176471 115.23529411765 L54.238970588235 117.26470588235 L55 116.25 L55.761029411765 117.26470588235 L56.522058823529 115.23529411765 L57.477941176471 115.23529411765 L58.238970588235 117.26470588235 L59 116.25 L59.761029411765 117.26470588235 L60.522058823529 115.23529411765 L61.477941176471 115.23529411765 L62.238970588235 117.26470588235 L63 116.25 L63.761029411765 117.26470588235 L64.522058823529 115.23529411765 L66.477941176471 115.23529411765 L67.238970588235 117.26470588235 L68 116.25 L68.761029411765 117.26470588235 L69.522058823529 115.23529411765 L75.477941176471 115.23529411765 L76.238970588235 117.26470588235 L77 116.25 L77.761029411765 117.26470588235 L78.522058823529 115.23529411765 L84.477941176471 115.23529411765 L85.238970588235 117.26470588235 L86 116.25 L86.761029411765 117.26470588235 L87.522058823529 115.23529411765 L88.477941176471 115.23529411765 L89.238970588235 117.26470588235 L90 116.25 L90.761029411765 117.26470588235 L91.522058823529 115.23529411765 L102.47794117647 115.23529411765 L103.23897058824 117.26470588235 L104 116.25 L104.76102941176 117.26470588235 L105.52205882353 115.23529411765 L106.47794117647 115.23529411765 L107.23897058824 117.26470588235 L108 116.25 L108.76102941176 117.26470588235 L109.52205882353 115.23529411765 L110.47794117647 115.23529411765 L111.23897058824 117.26470588235 L112 116.25 L112.76102941176 117.26470588235 L113.52205882353 115.23529411765 L118.47794117647 115.23529411765 L119.23897058824 117.26470588235 L120 116.25 L120.76102941176 117.26470588235 L121.52205882353 115.23529411765 L122.47794117647 115.23529411765 L123.23897058824 117.26470588235 L124 116.25 L124.76102941176 117.26470588235 L125.52205882353 115.23529411765 L129.47794117647 115.23529411765 L130.23897058824 117.26470588235 L131 116.25 L131.76102941176 117.26470588235 L132.52205882353 115.23529411765 L134.47794117647 115.23529411765 L135.23897058824 117.26470588235 L136 116.25 L136.76102941176 117.26470588235 L137.52205882353 115.23529411765 L146.47794117647 115.23529411765 L147.23897058824 117.26470588235 L148 116.25 L148.76102941176 117.26470588235 L149.52205882353 115.23529411765 L156.47794117647 115.23529411765 L157.23897058824 117.26470588235 L158 116.25 L158.76102941176 117.26470588235 L159.52205882353 115.23529411765 L162.47794117647 115.23529411765 L163.23897058824 117.26470588235 L164 116.25 L164.76102941176 117.26470588235 L165.52205882353 115.23529411765 L174.47794117647 115.23529411765 L175.23897058824 117.26470588235 L176 116.25 L176.76102941176 117.26470588235 L177.52205882353 115.23529411765 L180 115.23529411765"/>
    <path d="M 30 118.27941176471 L49.477941176471 118.27941176471 L50.238970588235 120.30882352941 L51 119.29411764706 L51.761029411765 120.30882352941 L52.522058823529 118.27941176471 L55.477941176471 118.27941176471 L56.238970588235 120.30882352941 L57 119.29411764706 L57.761029411765 120.30882352941 L58.522058823529 118.27941176471 L96.477941176471 118.27941176471 L97.238970588235 120.30882352941 L98 119.29411764706 L98.761029411765 120.30882352941 L99.522058823529 118.27941176471 L128.47794117647 118.27941176471 L129.23897058824 120.30882352941 L130 119.29411764706 L130.76102941176 120.30882352941 L131.52205882353 118.27941176471 L140.47794117647 118.27941176471 L141.23897058824 120.30882352941 L142 119.29411764706 L142.76102941176 120.30882352941 L143.52205882353 118.27941176471 L166.47794117647 118.27941176471 L167.23897058824 120.30882352941 L168 119.29411764706 L168.76102941176 120.30882352941 L169.52205882353 118.27941176471 L180 118.27941176471"/>
    <path d="M 30 121.32352941176 L66.477941176471 121.32352941176 L67.238970588235 123.35294117647 L68 122.33823529412 L68.761029411765 123.35294117647 L69.522058823529 121.32352941176 L73.477941176471 121.32352941176 L74.238970588235 123.35294117647 L75 122.33823529412 L75.761029411765 123.35294117647 L76.522058823529 121.32352941176 L78.477941176471 121.32352941176 L79.238970588235 123.35294117647 L80 122.33823529412 L80.761029411765 123.35294117647 L81.522058823529 121.32352941176 L100.47794117647 121.32352941176 L101.23897058824 123.35294117647 L102 122.33823529412 L102.76102941176 123.35294117647 L103.52205882353 121.32352941176 L113.47794117647 121.32352941176 L114.23897058824 123.35294117647 L115 122.33823529412 L115.76102941176 123.35294117647 L116.52205882353 121.32352941176 L127.47794117647 121.32352941176 L128.23897058824 123.35294117647 L129 122.33823529412 L129.76102941176 123.35294117647 L130.52205882353 121.32352941176 L131.47794117647 121.32352941176 L132.23897058824 123.35294117647 L133 122.33823529412 L133.76102941176 123.35294117647 L134.52205882353 121.32352941176 L135.47794117647 121.32352941176 L136.23897058824 123.35294117647 L137 122.33823529412 L137.76102941176 123.35294117647 L138.52205882353 121.32352941176 L145.47794117647 121.32352941176 L146.23897058824 123.35294117647 L147 122.33823529412 L147.76102941176 123.35294117647 L148.52205882353 121.32352941176 L167.47794117647 121.32352941176 L168.23897058824 123.35294117647 L169 122.33823529412 L169.76102941176 123.35294117647 L170.52205882353 121.32352941176 L171.47794117647 121.32352941176 L172.23897058824 123.35294117647 L173 122.33823529412 L173.76102941176 123.35294117647 L174.52205882353 121.32352941176 L180 121.32352941176"/>
    <path d="M 30 124.36764705882 L30.477941176471 124.36764705882 L31.238970588235 126.39705882353 L32 125.38235294118 L32.761029411765 126.39705882353 L33.522058823529 124.36764705882 L40.477941176471 124.36764705882 L41.238970588235 126.39705882353 L42 125.38235294118 L42.761029411765 126.39705882353 L43.522058823529 124.36764705882 L46.477941176471 124.36764705882 L47.238970588235 126.39705882353 L48 125.38235294118 L48.761029411765 126.39705882353 L49.522058823529 124.36764705882 L50.477941176471 124.36764705882 L51.238970588235 126.39705882353 L52 125.38235294118 L52.761029411765 126.39705882353 L53.522058823529 124.36764705882 L61.477941176471 124.36764705882 L62.238970588235 126.39705882353 L63 125.38235294118 L63.761029411765 126.39705882353 L64.522058823529 124.36764705882 L66.477941176471 124.36764705882 L67.238970588235 126.39705882353 L68 125.38235294118 L68.761029411765 126.39705882353 L69.522058823529 124.36764705882 L84.477941176471 124.36764705882 L85.238970588235 126.39705882353 L86 125.38235294118 L86.761029411765 126.39705882353 L87.522058823529 124.36764705882 L94.477941176471 124.36764705882 L95.238970588235 126.39705882353 L96 125.38235294118 L96.761029411765 126.39705882353 L97.522058823529 124.36764705882 L101.47794117647 124.36764705882 L102.23897058824 126.39705882353 L103 125.38235294118 L103.76102941176 126.39705882353 L104.52205882353 124.36764705882 L109.47794117647 124.36764705882 L110.23897058824 126.39705882353 L111 125.38235294118 L111.76102941176 126.39705882353 L112.52205882353 124.36764705882 L116.47794117647 124.36764705882 L117.23897058824 126.39705882353 L118 125.38235294118 L118.76102941176 126.39705882353 L119.52205882353 124.36764705882 L122.47794117647 124.36764705882 L123.23897058824 126.39705882353 L124 125.38235294118 L124.76102941176 126.39705882353 L125.52205882353 124.36764705882 L139.47794117647 124.36764705882 L140.23897058824 126.39705882353 L141 125.38235294118 L141.76102941176 126.39705882353 L142.52205882353 124.36764705882 L145.47794117647 124.36764705882 L146.23897058824 126.39705882353 L147 125.38235294118 L147.76102941176 126.39705882353 L148.52205882353 124.36764705882 L157.47794117647 124.36764705882 L158.23897058824 126.39705882353 L159 125.38235294118 L159.76102941176 126.39705882353 L160.52205882353 124.36764705882 L173.47794117647 124.36764705882 L174.23897058824 126.39705882353 L175 125.38235294118 L175.76102941176 126.39705882353 L176.52205882353 124.36764705882 L180 124.36764705882"/>
    <path d="M 30 127.41176470588 L72.477941176471 127.41176470588 L73.238970588235 129.44117647059 L74 128.42647058824 L74.761029411765 129.44117647059 L75.522058823529 127.41176470588 L80.477941176471 127.41176470588 L81.238970588235 129.44117647059 L82 128.42647058824 L82.761029411765 129.44117647059 L83.522058823529 127.41176470588 L89.477941176471 127.41176470588 L90.238970588235 129.44117647059 L91 128.42647058824 L91.761029411765 129.44117647059 L92.522058823529 127.41176470588 L180 127.41176470588"/>
    <path d="M 30 130.45588235294 L35.477941176471 130.45588235294 L36.238970588235 132.48529411765 L37 131.47058823529 L37.761029411765 132.48529411765 L38.522058823529 130.45588235294 L39.477941176471 130.45588235294 L40.238970588235 132.48529411765 L41 131.47058823529 L41.761029411765 132.48529411765 L42.522058823529 130.45588235294 L46.477941176471 130.45588235294 L47.238970588235 132.48529411765 L48 131.47058823529 L48.761029411765 132.48529411765 L49.522058823529 130.45588235294 L50.477941176471 130.45588235294 L51.238970588235 132.48529411765 L52 131.47058823529 L52.761029411765 132.48529411765 L53.522058823529 130.45588235294 L60.477941176471 130.45588235294 L61.238970588235 132.48529411765 L62 131.47058823529 L62.761029411765 132.48529411765 L63.522058823529 130.45588235294 L76.477941176471 130.45588235294 L77.238970588235 132.48529411765 L78 131.47058823529 L78.761029411765 132.48529411765 L79.522058823529 130.45588235294 L80.477941176471 130.45588235294 L81.238970588235 132.48529411765 L82 131.47058823529 L82.761029411765 132.48529411765 L83.522058823529 130.45588235294 L108.47794117647 130.45588235294 L109.23897058824 132.48529411765 L110 131.47058823529 L110.76102941176 132.48529411765 L111.52205882353 130.45588235294 L114.47794117647 130.45588235294 L115.23897058824 132.48529411765 L116 131.47058823529 L116.76102941176 132.48529411765 L117.52205882353 130.45588235294 L124.47794117647 130.45588235294 L125.23897058824 132.48529411765 L126 131.47058823529 L126.76102941176 132.48529411765 L127.52205882353 130.45588235294 L130.47794117647 130.45588235294 L131.23897058824 132.48529411765 L132 131.47058823529 L132.76102941176 132.48529411765 L133.52205882353 130.45588235294 L157.47794117647 130.45588235294 L158.23897058824 132.48529411765 L159 131.47058823529 L159.76102941176 132.48529411765 L160.52205882353 130.45588235294 L171.47794117647 130.45588235294 L172.23897058824 132.48529411765 L173 131.47058823529 L173.76102941176 132.48529411765 L174.52205882353 130.45588235294 L180 130.45588235294"/>
    <path d="M 30 133.5 L62.477941176471 133.5 L63.238970588235 135.52941176471 L64 134.51470588235 L64.761029411765 135.52941176471 L65.522058823529 133.5 L145.47794117647 133.5 L146.23897058824 135.52941176471 L147 134.51470588235 L147.76102941176 135.52941176471 L148.52205882353 133.5 L165.47794117647 133.5 L166.23897058824 135.52941176471 L167 134.51470588235 L167.76102941176 135.52941176471 L168.52205882353 133.5 L180 133.5"/>
    <path d="M 30 136.54411764706 L31.477941176471 136.54411764706 L32.238970588235 138.57352941176 L33 137.55882352941 L33.761029411765 138.57352941176 L34.522058823529 136.54411764706 L92.477941176471 136.54411764706 L93.238970588235 138.57352941176 L94 137.55882352941 L94.761029411765 138.57352941176 L95.522058823529 136.54411764706 L111.47794117647 136.54411764706 L112.23897058824 138.57352941176 L113 137.55882352941 L113.76102941176 138.57352941176 L114.52205882353 136.54411764706 L118.47794117647 136.54411764706 L119.23897058824 138.57352941176 L120 137.55882352941 L120.76102941176 138.57352941176 L121.52205882353 136.54411764706 L124.47794117647 136.54411764706 L125.23897058824 138.57352941176 L126 137.55882352941 L126.76102941176 138.57352941176 L127.52205882353 136.54411764706 L143.47794117647 136.54411764706 L144.23897058824 138.57352941176 L145 137.55882352941 L145.76102941176 138.57352941176 L146.52205882353 136.54411764706 L180 136.54411764706"/>
    <path d="M 30 139.58823529412 L38.477941176471 139.58823529412 L39.238970588235 141.61764705882 L40 140.60294117647 L40.761029411765 141.61764705882 L41.522058823529 139.58823529412 L44.477941176471 139.58823529412 L45.238970588235 141.61764705882 L46 140.60294117647 L46.761029411765 141.61764705882 L47.522058823529 139.58823529412 L61.477941176471 139.58823529412 L62.238970588235 141.61764705882 L63 140.60294117647 L63.761029411765 141.61764705882 L64.522058823529 139.58823529412 L72.477941176471 139.58823529412 L73.238970588235 141.61764705882 L74 140.60294117647 L74.761029411765 141.61764705882 L75.522058823529 139.58823529412 L76.477941176471 139.58823529412 L77.238970588235 141.61764705882 L78 140.60294117647 L78.761029411765 141.61764705882 L79.522058823529 139.58823529412 L86.477941176471 139.58823529412 L87.238970588235 141.61764705882 L88 140.60294117647 L88.761029411765 141.61764705882 L89.522058823529 139.58823529412 L123.47794117647 139.58823529412 L124.23897058824 141.61764705882 L125 140.60294117647 L125.76102941176 141.61764705882 L126.52205882353 139.58823529412 L153.47794117647 139.58823529412 L154.23897058824 141.61764705882 L155 140.60294117647 L155.76102941176 141.61764705882 L156.52205882353 139.58823529412 L158.47794117647 139.58823529412 L159.23897058824 141.61764705882 L160 140.60294117647 L160.76102941176 141.61764705882 L161.52205882353 139.58823529412 L172.47794117647 139.58823529412 L173.23897058824 141.61764705882 L174 140.60294117647 L174.76102941176 141.61764705882 L175.52205882353 139.58823529412 L180 139.58823529412"/>
    <path d="M 30 142.63235294118 L37.477941176471 142.63235294118 L38.238970588235 144.66176470588 L39 143.64705882353 L39.761029411765 144.66176470588 L40.522058823529 142.63235294118 L43.477941176471 142.63235294118 L44.238970588235 144.66176470588 L45 143.64705882353 L45.761029411765 144.66176470588 L46.522058823529 142.63235294118 L55.477941176471 142.63235294118 L56.238970588235 144.66176470588 L57 143.64705882353 L57.761029411765 144.66176470588 L58.522058823529 142.63235294118 L72.477941176471 142.63235294118 L73.238970588235 144.66176470588 L74 143.64705882353 L74.761029411765 144.66176470588 L75.522058823529 142.63235294118 L81.477941176471 142.63235294118 L82.238970588235 144.66176470588 L83 143.64705882353 L83.761029411765 144.66176470588 L84.522058823529 142.63235294118 L92.477941176471 142.63235294118 L93.238970588235 144.66176470588 L94 143.64705882353 L94.761029411765 144.66176470588 L95.522058823529 142.63235294118 L99.477941176471 142.63235294118 L100.23897058824 144.66176470588 L101 143.64705882353 L101.76102941176 144.66176470588 L102.52205882353 142.63235294118 L104.47794117647 142.63235294118 L105.23897058824 144.66176470588 L106 143.64705882353 L106.76102941176 144.66176470588 L107.52205882353 142.63235294118 L111.47794117647 142.63235294118 L112.23897058824 144.66176470588 L113 143.64705882353 L113.76102941176 144.66176470588 L114.52205882353 142.63235294118 L121.47794117647 142.63235294118 L122.23897058824 144.66176470588 L123 143.64705882353 L123.76102941176 144.66176470588 L124.52205882353 142.63235294118 L131.47794117647 142.63235294118 L132.23897058824 144.66176470588 L133 143.64705882353 L133.76102941176 144.66176470588 L134.52205882353 142.63235294118 L143.47794117647 142.63235294118 L144.23897058824 144.66176470588 L145 143.64705882353 L145.76102941176 144.66176470588 L146.52205882353 142.63235294118 L148.47794117647 142.63235294118 L149.23897058824 144.66176470588 L150 143.64705882353 L150.76102941176 144.66176470588 L151.52205882353 142.63235294118 L162.47794117647 142.63235294118 L163.23897058824 144.66176470588 L164 143.64705882353 L164.76102941176 144.66176470588 L165.52205882353 142.63235294118 L180 142.63235294118"/>
    <path d="M 30 145.67647058824 L31.477941176471 145.67647058824 L32.238970588235 147.70588235294 L33 146.69117647059 L33.761029411765 147.70588235294 L34.522058823529 145.67647058824 L40.477941176471 145.67647058824 L41.238970588235 147.70588235294 L42 146.69117647059 L42.761029411765 147.70588235294 L43.522058823529 145.67647058824 L79.477941176471 145.67647058824 L80.238970588235 147.70588235294 L81 146.69117647059 L81.761029411765 147.70588235294 L82.522058823529 145.67647058824 L89.477941176471 145.67647058824 L90.238970588235 147.70588235294 L91 146.69117647059 L91.761029411765 147.70588235294 L92.522058823529 145.67647058824 L123.47794117647 145.67647058824 L124.23897058824 147.70588235294 L125 146.69117647059 L125.76102941176 147.70588235294 L126.52205882353 145.67647058824 L131.47794117647 145.67647058824 L132.23897058824 147.70588235294 L133 146.69117647059 L133.76102941176 147.70588235294 L134.52205882353 145.67647058824 L139.47794117647 145.67647058824 L140.23897058824 147.70588235294 L141 146.69117647059 L141.76102941176 147.70588235294 L142.52205882353 145.67647058824 L152.47794117647 145.67647058824 L153.23897058824 147.70588235294 L154 146.69117647059 L154.76102941176 147.70588235294 L155.52205882353 145.67647058824 L157.47794117647 145.67647058824 L158.23897058824 147.70588235294 L159 146.69117647059 L159.76102941176 147.70588235294 L160.52205882353 145.67647058824 L173.47794117647 145.67647058824 L174.23897058824 147.70588235294 L175 146.69117647059 L175.76102941176 147.70588235294 L176.52205882353 145.67647058824 L180 145.67647058824"/>
    <path d="M 30 148.72058823529 L54.477941176471 148.72058823529 L55.238970588235 150.75 L56 149.73529411765 L56.761029411765 150.75 L57.522058823529 148.72058823529 L58.477941176471 148.72058823529 L59.238970588235 150.75 L60 149.73529411765 L60.761029411765 150.75 L61.522058823529 148.72058823529 L67.477941176471 148.72058823529 L68.238970588235 150.75 L69 149.73529411765 L69.761029411765 150.75 L70.522058823529 148.72058823529 L71.477941176471 148.72058823529 L72.238970588235 150.75 L73 149.73529411765 L73.761029411765 150.75 L74.522058823529 148.72058823529 L97.477941176471 148.72058823529 L98.238970588235 150.75 L99 149.73529411765 L99.761029411765 150.75 L100.52205882353 148.72058823529 L131.47794117647 148.72058823529 L132.23897058824 150.75 L133 149.73529411765 L133.76102941176 150.75 L134.52205882353 148.72058823529 L139.47794117647 148.72058823529 L140.23897058824 150.75 L141 149.73529411765 L141.76102941176 150.75 L142.52205882353 148.72058823529 L180 148.72058823529"/>
    <path d="M 30 151.76470588235 L75.477941176471 151.76470588235 L76.238970588235 153.79411764706 L77 152.77941176471 L77.761029411765 153.79411764706 L78.522058823529 151.76470588235 L110.47794117647 151.76470588235 L111.23897058824 153.79411764706 L112 152.77941176471 L112.76102941176 153.79411764706 L113.52205882353 151.76470588235 L128.47794117647 151.76470588235 L129.23897058824 153.79411764706 L130 152.77941176471 L130.76102941176 153.79411764706 L131.52205882353 151.76470588235 L180 151.76470588235"/>
    <path d="M 30 154.80882352941 L60.477941176471 154.80882352941 L61.238970588235 156.83823529412 L62 155.82352941176 L62.761029411765 156.83823529412 L63.522058823529 154.80882352941 L65.477941176471 154.80882352941 L66.238970588235 156.83823529412 L67 155.82352941176 L67.761029411765 156.83823529412 L68.522058823529 154.80882352941 L84.477941176471 154.80882352941 L85.238970588235 156.83823529412 L86 155.82352941176 L86.761029411765 156.83823529412 L87.522058823529 154.80882352941 L171.47794117647 154.80882352941 L172.23897058824 156.83823529412 L173 155.82352941176 L173.76102941176 156.83823529412 L174.52205882353 154.80882352941 L180 154.80882352941"/>
    <path d="M 30 157.85294117647 L48.477941176471 157.85294117647 L49.238970588235 159.88235294118 L50 158.86764705882 L50.761029411765 159.88235294118 L51.522058823529 157.85294117647 L62.477941176471 157.85294117647 L63.238970588235 159.88235294118 L64 158.86764705882 L64.761029411765 159.88235294118 L65.522058823529 157.85294117647 L141.47794117647 157.85294117647 L142.23897058824 159.88235294118 L143 158.86764705882 L143.76102941176 159.88235294118 L144.52205882353 157.85294117647 L152.47794117647 157.85294117647 L153.23897058824 159.88235294118 L154 158.86764705882 L154.76102941176 159.88235294118 L155.52205882353 157.85294117647 L156.47794117647 157.85294117647 L157.23897058824 159.88235294118 L158 158.86764705882 L158.76102941176 159.88235294118 L159.52205882353 157.85294117647 L166.47794117647 157.85294117647 L167.23897058824 159.88235294118 L168 158.86764705882 L168.76102941176 159.88235294118 L169.52205882353 157.85294117647 L174.47794117647 157.85294117647 L175.23897058824 159.88235294118 L176 158.86764705882 L176.76102941176 159.88235294118 L177.52205882353 157.85294117647 L180 157.85294117647"/>
    <path d="M 30 160.89705882353 L39.477941176471 160.89705882353 L40.238970588235 162.92647058824 L41 161.91176470588 L41.761029411765 162.92647058824 L42.522058823529 160.89705882353 L46.477941176471 160.89705882353 L47.238970588235 162.92647058824 L48 161.91176470588 L48.761029411765 162.92647058824 L49.522058823529 160.89705882353 L51.477941176471 160.89705882353 L52.238970588235 162.92647058824 L53 161.91176470588 L53.761029411765 162.92647058824 L54.522058823529 160.89705882353 L56.477941176471 160.89705882353 L57.238970588235 162.92647058824 L58 161.91176470588 L58.761029411765 162.92647058824 L59.522058823529 160.89705882353 L81.477941176471 160.89705882353 L82.238970588235 162.92647058824 L83 161.91176470588 L83.761029411765 162.92647058824 L84.522058823529 160.89705882353 L129.47794117647 160.89705882353 L130.23897058824 162.92647058824 L131 161.91176470588 L131.76102941176 162.92647058824 L132.52205882353 160.89705882353 L154.47794117647 160.89705882353 L155.23897058824 162.92647058824 L156 161.91176470588 L156.76102941176 162.92647058824 L157.52205882353 160.89705882353 L168.47794117647 160.89705882353 L169.23897058824 162.92647058824 L170 161.91176470588 L170.76102941176 162.92647058824 L171.52205882353 160.89705882353 L172.47794117647 160.89705882353 L173.23897058824 162.92647058824 L174 161.91176470588 L174.76102941176 162.92647058824 L175.52205882353 160.89705882353 L180 160.89705882353"/>
    <path d="M 30 163.94117647059 L58.477941176471 163.94117647059 L59.238970588235 165.97058823529 L60 164.95588235294 L60.761029411765 165.97058823529 L61.522058823529 163.94117647059 L92.477941176471 163.94117647059 L93.238970588235 165.97058823529 L94 164.95588235294 L94.761029411765 165.97058823529 L95.522058823529 163.94117647059 L98.477941176471 163.94117647059 L99.238970588235 165.97058823529 L100 164.95588235294 L100.76102941176 165.97058823529 L101.52205882353 163.94117647059 L141.47794117647 163.94117647059 L142.23897058824 165.97058823529 L143 164.95588235294 L143.76102941176 165.97058823529 L144.52205882353 163.94117647059 L175.47794117647 163.94117647059 L176.23897058824 165.97058823529 L177 164.95588235294 L177.76102941176 165.97058823529 L178.52205882353 163.94117647059 L180 163.94117647059"/>
    <path d="M 30 166.98529411765 L31.477941176471 166.98529411765 L32.238970588235 169.01470588235 L33 168 L33.761029411765 169.01470588235 L34.522058823529 166.98529411765 L35.477941176471 166.98529411765 L36.238970588235 169.01470588235 L37 168 L37.761029411765 169.01470588235 L38.522058823529 166.98529411765 L43.477941176471 166.98529411765 L44.238970588235 169.01470588235 L45 168 L45.761029411765 169.01470588235 L46.522058823529 166.98529411765 L51.477941176471 166.98529411765 L52.238970588235 169.01470588235 L53 168 L53.761029411765 169.01470588235 L54.522058823529 166.98529411765 L67.477941176471 166.98529411765 L68.238970588235 169.01470588235 L69 168 L69.761029411765 169.01470588235 L70.522058823529 166.98529411765 L86.477941176471 166.98529411765 L87.238970588235 169.01470588235 L88 168 L88.761029411765 169.01470588235 L89.522058823529 166.98529411765 L97.477941176471 166.98529411765 L98.238970588235 169.01470588235 L99 168 L99.761029411765 169.01470588235 L100.52205882353 166.98529411765 L104.47794117647 166.98529411765 L105.23897058824 169.01470588235 L106 168 L106.76102941176 169.01470588235 L107.52205882353 166.98529411765 L113.47794117647 166.98529411765 L114.23897058824 169.01470588235 L115 168 L115.76102941176 169.01470588235 L116.52205882353 166.98529411765 L119.47794117647 166.98529411765 L120.23897058824 169.01470588235 L121 168 L121.76102941176 169.01470588235 L122.52205882353 166.98529411765 L142.47794117647 166.98529411765 L143.23897058824 169.01470588235 L144 168 L144.76102941176 169.01470588235 L145.52205882353 166.98529411765 L151.47794117647 166.98529411765 L152.23897058824 169.01470588235 L153 168 L153.76102941176 169.01470588235 L154.52205882353 166.98529411765 L171.47794117647 166.98529411765 L172.23897058824 169.01470588235 L173 168 L173.76102941176 169.01470588235 L174.52205882353 166.98529411765 L180 166.98529411765"/>
    <path d="M 30 170.02941176471 L44.477941176471 170.02941176471 L45.238970588235 172.05882352941 L46 171.04411764706 L46.761029411765 172.05882352941 L47.522058823529 170.02941176471 L131.47794117647 170.02941176471 L132.23897058824 172.05882352941 L133 171.04411764706 L133.76102941176 172.05882352941 L134.52205882353 170.02941176471 L136.47794117647 170.02941176471 L137.23897058824 172.05882352941 L138 171.04411764706 L138.76102941176 172.05882352941 L139.52205882353 170.02941176471 L141.47794117647 170.02941176471 L142.23897058824 172.05882352941 L143 171.04411764706 L143.76102941176 172.05882352941 L144.52205882353 170.02941176471 L146.47794117647 170.02941176471 L147.23897058824 172.05882352941 L148 171.04411764706 L148.76102941176 172.05882352941 L149.52205882353 170.02941176471 L180 170.02941176471"/>
    <path d="M 30 173.07352941176 L180 173.07352941176"/>
    <path d="M 30 176.11764705882 L38.477941176471 176.11764705882 L39.238970588235 178.14705882353 L40 177.13235294118 L40.761029411765 178.14705882353 L41.522058823529 176.11764705882 L121.47794117647 176.11764705882 L122.23897058824 178.14705882353 L123 177.13235294118 L123.76102941176 178.14705882353 L124.52205882353 176.11764705882 L180 176.11764705882"/>
    <path d="M 30 179.16176470588 L90.477941176471 179.16176470588 L91.238970588235 181.19117647059 L92 180.17647058824 L92.761029411765 181.19117647059 L93.522058823529 179.16176470588 L180 179.16176470588"/>
    <path d="M 30 182.20588235294 L180 182.20588235294"/>
    <path d="M 30 185.25 L116.47794117647 185.25 L117.23897058824 187.27941176471 L118 186.26470588235 L118.76102941176 187.27941176471 L119.52205882353 185.25 L132.47794117647 185.25 L133.23897058824 187.27941176471 L134 186.26470588235 L134.76102941176 187.27941176471 L135.52205882353 185.25 L180 185.25"/>
    <path d="M 30 188.29411764706 L180 188.29411764706"/>
    <path d="M 30 191.33823529412 L180 191.33823529412"/>
    <path d="M 30 194.38235294118 L85.477941176471 194.38235294118 L86.238970588235 196.41176470588 L87 195.39705882353 L87.761029411765 196.41176470588 L88.522058823529 194.38235294118 L94.477941176471 194.38235294118 L95.238970588235 196.41176470588 L96 195.39705882353 L96.761029411765 196.41176470588 L97.522058823529 194.38235294118 L129.47794117647 194.38235294118 L130.23897058824 196.41176470588 L131 195.39705882353 L131.76102941176 196.41176470588 L132.52205882353 194.38235294118 L180 194.38235294118"/>
    <path d="M 30 197.42647058824 L36.477941176471 197.42647058824 L37.238970588235 199.45588235294 L38 198.44117647059 L38.761029411765 199.45588235294 L39.522058823529 197.42647058824 L40.477941176471 197.42647058824 L41.238970588235 199.45588235294 L42 198.44117647059 L42.761029411765 199.45588235294 L43.522058823529 197.42647058824 L55.477941176471 197.42647058824 L56.238970588235 199.45588235294 L57 198.44117647059 L57.761029411765 199.45588235294 L58.522058823529 197.42647058824 L63.477941176471 197.42647058824 L64.238970588235 199.45588235294 L65 198.44117647059 L65.761029411765 199.45588235294 L66.522058823529 197.42647058824 L75.477941176471 197.42647058824 L76.238970588235 199.45588235294 L77 198.44117647059 L77.761029411765 199.45588235294 L78.522058823529 197.42647058824 L105.47794117647 197.42647058824 L106.23897058824 199.45588235294 L107 198.44117647059 L107.76102941176 199.45588235294 L108.52205882353 197.42647058824 L142.47794117647 197.42647058824 L143.23897058824 199.45588235294 L144 198.44117647059 L144.76102941176 199.45588235294 L145.52205882353 197.42647058824 L180 197.42647058824"/>
    <path d="M 30 200.47058823529 L48.477941176471 200.47058823529 L49.238970588235 202.5 L50 201.48529411765 L50.761029411765 202.5 L51.522058823529 200.47058823529 L129.47794117647 200.47058823529 L130.23897058824 202.5 L131 201.48529411765 L131.76102941176 202.5 L132.52205882353 200.47058823529 L136.47794117647 200.47058823529 L137.23897058824 202.5 L138 201.48529411765 L138.76102941176 202.5 L139.52205882353 200.47058823529 L155.47794117647 200.47058823529 L156.23897058824 202.5 L157 201.48529411765 L157.76102941176 202.5 L158.52205882353 200.47058823529 L174.47794117647 200.47058823529 L175.23897058824 202.5 L176 201.48529411765 L176.76102941176 202.5 L177.52205882353 200.47058823529 L180 200.47058823529"/>
    <path d="M 30 203.51470588235 L32.477941176471 203.51470588235 L33.238970588235 205.54411764706 L34 204.52941176471 L34.761029411765 205.54411764706 L35.522058823529 203.51470588235 L97.477941176471 203.51470588235 L98.238970588235 205.54411764706 L99 204.52941176471 L99.761029411765 205.54411764706 L100.52205882353 203.51470588235 L163.47794117647 203.51470588235 L164.23897058824 205.54411764706 L165 204.52941176471 L165.76102941176 205.54411764706 L166.52205882353 203.51470588235 L180 203.51470588235"/>
    <path d="M 30 206.55882352941 L40.477941176471 206.55882352941 L41.238970588235 208.58823529412 L42 207.57352941176 L42.761029411765 208.58823529412 L43.522058823529 206.55882352941 L121.47794117647 206.55882352941 L122.23897058824 208.58823529412 L123 207.57352941176 L123.76102941176 208.58823529412 L124.52205882353 206.55882352941 L180 206.55882352941"/>
    <path d="M 30 209.60294117647 L106.47794117647 209.60294117647 L107.23897058824 211.63235294118 L108 210.61764705882 L108.76102941176 211.63235294118 L109.52205882353 209.60294117647 L152.47794117647 209.60294117647 L153.23897058824 211.63235294118 L154 210.61764705882 L154.76102941176 211.63235294118 L155.52205882353 209.60294117647 L180 209.60294117647"/>
    <path d="M 30 212.64705882353 L53.477941176471 212.64705882353 L54.238970588235 214.67647058824 L55 213.66176470588 L55.761029411765 214.67647058824 L56.522058823529 212.64705882353 L84.477941176471 212.64705882353 L85.238970588235 214.67647058824 L86 213.66176470588 L86.761029411765 214.67647058824 L87.522058823529 212.64705882353 L88.477941176471 212.64705882353 L89.238970588235 214.67647058824 L90 213.66176470588 L90.761029411765 214.67647058824 L91.522058823529 212.64705882353 L138.47794117647 212.64705882353 L139.23897058824 214.67647058824 L140 213.66176470588 L140.76102941176 214.67647058824 L141.52205882353 212.64705882353 L153.47794117647 212.64705882353 L154.23897058824 214.67647058824 L155 213.66176470588 L155.76102941176 214.67647058824 L156.52205882353 212.64705882353 L169.47794117647 212.64705882353 L170.23897058824 214.67647058824 L171 213.66176470588 L171.76102941176 214.67647058824 L172.52205882353 212.64705882353 L173.47794117647 212.64705882353 L174.23897058824 214.67647058824 L175 213.66176470588 L175.76102941176 214.67647058824 L176.52205882353 212.64705882353 L180 212.64705882353"/>
    <path d="M 30 215.69117647059 L62.477941176471 215.69117647059 L63.238970588235 217.72058823529 L64 216.70588235294 L64.761029411765 217.72058823529 L65.522058823529 215.69117647059 L74.477941176471 215.69117647059 L75.238970588235 217.72058823529 L76 216.70588235294 L76.761029411765 217.72058823529 L77.522058823529 215.69117647059 L111.47794117647 215.69117647059 L112.23897058824 217.72058823529 L113 216.70588235294 L113.76102941176 217.72058823529 L114.52205882353 215.69117647059 L162.47794117647 215.69117647059 L163.23897058824 217.72058823529 L164 216.70588235294 L164.76102941176 217.72058823529 L165.52205882353 215.69117647059 L180 215.69117647059"/>
    <path d="M 30 218.73529411765 L33.477941176471 218.73529411765 L34.238970588235 220.76470588235 L35 219.75 L35.761029411765 220.76470588235 L36.522058823529 218.73529411765 L79.477941176471 218.73529411765 L80.238970588235 220.76470588235 L81 219.75 L81.761029411765 220.76470588235 L82.522058823529 218.73529411765 L86.477941176471 218.73529411765 L87.238970588235 220.76470588235 L88 219.75 L88.761029411765 220.76470588235 L89.522058823529 218.73529411765 L165.47794117647 218.73529411765 L166.23897058824 220.76470588235 L167 219.75 L167.76102941176 220.76470588235 L168.52205882353 218.73529411765 L180 218.73529411765"/>
    <path d="M 30 221.77941176471 L180 221.77941176471"/>
    <path d="M 30 224.82352941176 L180 224.82352941176"/>
    <path d="M 30 227.86764705882 L180 227.86764705882"/>
    <path d="M 30 230.91176470588 L76.477941176471 230.91176470588 L77.238970588235 232.94117647059 L78 231.92647058824 L78.761029411765 232.94117647059 L79.522058823529 230.91176470588 L80.477941176471 230.91176470588 L81.238970588235 232.94117647059 L82 231.92647058824 L82.761029411765 232.94117647059 L83.522058823529 230.91176470588 L84.477941176471 230.91176470588 L85.238970588235 232.94117647059 L86 231.92647058824 L86.761029411765 232.94117647059 L87.522058823529 230.91176470588 L133.47794117647 230.91176470588 L134.23897058824 232.94117647059 L135 231.92647058824 L135.76102941176 232.94117647059 L136.52205882353 230.91176470588 L180 230.91176470588"/>
    <path d="M 30 233.95588235294 L80.477941176471 233.95588235294 L81.238970588235 235.98529411765 L82 234.97058823529 L82.761029411765 235.98529411765 L83.522058823529 233.95588235294 L155.47794117647 233.95588235294 L156.23897058824 235.98529411765 L157 234.97058823529 L157.76102941176 235.98529411765 L158.52205882353 233.95588235294 L172.47794117647 233.95588235294 L173.23897058824 235.98529411765 L174 234.97058823529 L174.76102941176 235.98529411765 L175.52205882353 233.95588235294 L180 233.95588235294"/>
    <path d="M 30 237 L70.477941176471 237 L71.238970588235 239.02941176471 L72 238.01470588235 L72.761029411765 239.02941176471 L73.522058823529 237 L110.47794117647 237 L111.23897058824 239.02941176471 L112 238.01470588235 L112.76102941176 239.02941176471 L113.52205882353 237 L124.47794117647 237 L125.23897058824 239.02941176471 L126 238.01470588235 L126.76102941176 239.02941176471 L127.52205882353 237 L180 237"/>
  </g></svg>