<?xml version="1.0" encoding="utf-8"?><svg version="1.1" xmlns="http://www.w3.org/2000/svg" xmlns:xlink="http://www.w3.org/1999/xlink" width="210.000000" height="297.000000" viewbox="0 0 210.000000 297.000000">  <g style="stroke-width: 2.000000; stroke: #f3b ;stroke-linecap: round; stroke-linejoin: round; fill: none;">  
    <path d="M 35 30 L35 45"/>
    <path d="M 40 30 L40 45"/>
    <path d="M 45 30 L45 45"/>
    <path d="M 50 30 L50 45"/>
    <path d="M 55 30 L55 45"/>
    <path d="M 60 30 L60 45"/>
    <path d="M 75 35 L60 35"/>
    <path d="M 75 40 L60 40"/>
    <path d="M 75 45 L60 45"/>
    <path d="M 90 35 L75 35"/>
    <path d="M 90 40 L75 40"/>
    <path d="M 90 45 L75 45"/>
    <path d="M 95 30 L95 45"/>
    <path d="M 100 30 L100 45"/>
    <path d="M 105 30 L105 45"/>
    <path d="M 120 35 L105 35"/>
    <path d="M 120 40 L105 40"/>
    <path d="M 120 45 L105 45"/>
    <path d="M 125 30 L125 45"/>
    <path d="M 130 30 L130 45"/>
    <path d="M 135 30 L135 45"/>
    <path d="M 150 35 L135 35"/>
    <path d="M 150 40 L135 40"/>
    <path d="M 150 45 L135 45"/>
    <path d="M 165 35 L150 35"/>
    <path d="M 165 40 L150 40"/>
    <path d="M 165 45 L150 45"/>
    <path d="M 180 35 L165 35"/>
    <path d="M 180 40 L165 40"/>
    <path d="M 180 45 L165 45"/>
    <path d="M 35 45 L35 60"/>
    <path d="M 40 45 L40 60"/>
    <path d="M 45 45 L45 60"/>
    <path d="M 60 50 L45 50"/>
    <path d="M 60 55 L45 55"/>
    <path d="M 60 60 L45 60"/>
    <path d="M 75 50 L60 50"/>
    <path d="M 75 55 L60 55"/>
    <path d="M 75 60 L60 60"/>
    <path d="M 90 50 L75 50"/>
    <path d="M 90 55 L75 55"/>
    <path d="M 90 60 L75 60"/>
    <path d="M 95 45 L95 60"/>
    <path d="M 100 45 L100 60"/>
    <path d="M 105 45 L105 60"/>
    <path d="M 110 45 L110 60"/>
    <path d="M 115 45 L115 60"/>
    <path d="M 120 45 L120 60"/>
    <path d="M 135 50 L120 50"/>
    <path d="M 135 55 L120 55"/>
    <path d="M 135 60 L120 60"/>
    <path d="M 140 45 L140 60"/>
    <path d="M 145 45 L145 60"/>
    <path d="M 150 45 L150 60"/>
    <path d="M 155 45 L155 60"/>
    <path d="M 160 45 L160 60"/>
    <path d="M 165 45 L165 60"/>
    <path d="M 180 50 L165 50"/>
    <path d="M 180 55 L165 55"/>
    <path d="M 180 60 L165 60"/>
    <path d="M 35 60 L35 75"/>
    <path d="M 40 60 L40 75"/>
    <path d="M 45 60 L45 75"/>
    <path d="M 60 65 L45 65"/>
    <path d="M 60 70 L45 70"/>
    <path d="M 60 75 L45 75"/>
    <path d="M 75 65 L60 65"/>
    <path d="M 75 70 L60 70"/>
    <path d="M 75 75 L60 75"/>
    <path d="M 80 60 L80 75"/>
    <path d="M 85 60 L85 75"/>
    <path d="M 90 60 L90 75"/>
    <path d="M 105 65 L90 65"/>
    <path d="M 105 70 L90 70"/>
    <path d="M 105 75 L90 75"/>
    <path d="M 110 60 L110 75"/>
    <path d="M 115 60 L115 75"/>
    <path d="M 120 60 L120 75"/>
    <path d="M 125 60 L125 75"/>
    <path d="M 130 60 L130 75"/>
    <path d="M 135 60 L135 75"/>
    <path d="M 140 60 L140 75"/>
    <path d="M 145 60 L145 75"/>
    <path d="M 150 60 L150 75"/>
    <path d="M 155 60 L155 75"/>
    <path d="M 160 60 L160 75"/>
    <path d="M 165 60 L165 75"/>
    <path d="M 180 65 L165 65"/>
    <path d="M 180 70 L165 70"/>
    <path d="M 180 75 L165 75"/>
    <path d="M 45 80 L30 80"/>
    <path d="M 45 85 L30 85"/>
    <path d="M 45 90 L30 90"/>
    <path d="M 50 75 L50 90"/>
    <path d="M 55 75 L55 90"/>
    <path d="M 60 75 L60 90"/>
    <path d="M 65 75 L65 90"/>
    <path d="M 70 75 L70 90"/>
    <path d="M 75 75 L75 90"/>
    <path d="M 80 75 L80 90"/>
    <path d="M 85 75 L85 90"/>
    <path d="M 90 75 L90 90"/>
    <path d="M 95 75 L95 90"/>
    <path d="M 100 75 L100 90"/>
    <path d="M 105 75 L105 90"/>
    <path d="M 120 80 L105 80"/>
    <path d="M 120 85 L105 85"/>
    <path d="M 120 90 L105 90"/>
    <path d="M 125 75 L125 90"/>
    <path d="M 130 75 L130 90"/>
    <path d="M 135 75 L135 90"/>
    <path d="M 150 80 L135 80"/>
    <path d="M 150 85 L135 85"/>
    <path d="M 150 90 L135 90"/>
    <path d="M 155 75 L155 90"/>
    <path d="M 160 75 L160 90"/>
    <path d="M 165 75 L165 90"/>
    <path d="M 170 75 L170 90"/>
    <path d="M 175 75 L175 90"/>
    <path d="M 180 75 L180 90"/>
    <path d="M 45 95 L30 95"/>
    <path d="M 45 100 L30 100"/>
    <path d="M 45 105 L30 105"/>
    <path d="M 60 95 L45 95"/>
    <path d="M 60 100 L45 100"/>
    <path d="M 60 105 L45 105"/>
    <path d="M 75 95 L60 95"/>
    <path d="M 75 100 L60 100"/>
    <path d="M 75 105 L60 105"/>
    <path d="M 90 95 L75 95"/>
    <path d="M 90 100 L75 100"/>
    <path d="M 90 105 L75 105"/>
    <path d="M 105 95 L90 95"/>
    <path d="M 105 100 L90 100"/>
    <path d="M 105 105 L90 105"/>
    <path d="M 120 95 L105 95"/>
    <path d="M 120 100 L105 100"/>
    <path d="M 120 105 L105 105"/>
    <path d="M 125 90 L125 105"/>
    <path d="M 130 90 L130 105"/>
    <path d="M 135 90 L135 105"/>
    <path d="M 150 95 L135 95"/>
    <path d="M 150 100 L135 100"/>
    <path d="M 150 105 L135 105"/>
    <path d="M 155 90 L155 105"/>
    <path d="M 160 90 L160 105"/>
    <path d="M 165 90 L165 105"/>
    <path d="M 170 90 L170 105"/>
    <path d="M 175 90 L175 105"/>
    <path d="M 180 90 L180 105"/>
    <path d="M 35 105 L35 120"/>
    <path d="M 40 105 L40 120"/>
    <path d="M 45 105 L45 120"/>
    <path d="M 60 110 L45 110"/>
    <path d="M 60 115 L45 115"/>
    <path d="M 60 120 L45 120"/>
    <path d="M 75 110 L60 110"/>
    <path d="M 75 115 L60 115"/>
    <path d="M 75 120 L60 120"/>
    <path d="M 80 105 L80 120"/>
    <path d="M 85 105 L85 120"/>
    <path d="M 90 105 L90 120"/>
    <path d="M 95 105 L95 120"/>
    <path d="M 100 105 L100 120"/>
    <path d="M 105 105 L105 120"/>
    <path d="M 120 110 L105 110"/>
    <path d="M 120 115 L105 115"/>
    <path d="M 120 120 L105 120"/>
    <path d="M 125 105 L125 120"/>
    <path d="M 130 105 L130 120"/>
    <path d="M 135 105 L135 120"/>
    <path d="M 140 105 L140 120"/>
    <path d="M 145 105 L145 120"/>
    <path d="M 150 105 L150 120"/>
    <path d="M 155 105 L155 120"/>
    <path d="M 160 105 L160 120"/>
    <path d="M 165 105 L165 120"/>
    <path d="M 170 105 L170 120"/>
    <path d="M 175 105 L175 120"/>
    <path d="M 180 105 L180 120"/>
    <path d="M 45 125 L30 125"/>
    <path d="M 45 130 L30 130"/>
    <path d="M 45 135 L30 135"/>
    <path d="M 60 125 L45 125"/>
    <path d="M 60 130 L45 130"/>
    <path d="M 60 135 L45 135"/>
    <path d="M 65 120 L65 135"/>
    <path d="M 70 120 L70 135"/>
    <path d="M 75 120 L75 135"/>
    <path d="M 80 120 L80 135"/>
    <path d="M 85 120 L85 135"/>
    <path d="M 90 120 L90 135"/>
    <path d="M 95 120 L95 135"/>
    <path d="M 100 120 L100 135"/>
    <path d="M 105 120 L105 135"/>
    <path d="M 110 120 L110 135"/>
    <path d="M 115 120 L115 135"/>
    <path d="M 120 120 L120 135"/>
    <path d="M 135 125 L120 125"/>
    <path d="M 135 130 L120 130"/>
    <path d="M 135 135 L120 135"/>
    <path d="M 150 125 L135 125"/>
    <path d="M 150 130 L135 130"/>
    <path d="M 150 135 L135 135"/>
    <path d="M 165 125 L150 125"/>
    <path d="M 165 130 L150 130"/>
    <path d="M 165 135 L150 135"/>
    <path d="M 180 125 L165 125"/>
    <path d="M 180 130 L165 130"/>
    <path d="M 180 135 L165 135"/>
    <path d="M 45 140 L30 140"/>
    <path d="M 45 145 L30 145"/>
    <path d="M 45 150 L30 150"/>
    <path d="M 60 140 L45 140"/>
    <path d="M 60 145 L45 145"/>
    <path d="M 60 150 L45 150"/>
    <path d="M 65 135 L65 150"/>
    <path d="M 70 135 L70 150"/>
    <path d="M 75 135 L75 150"/>
    <path d="M 90 140 L75 140"/>
    <path d="M 90 145 L75 145"/>
    <path d="M 90 150 L75 150"/>
    <path d="M 105 140 L90 140"/>
    <path d="M 105 145 L90 145"/>
    <path d="M 105 150 L90 150"/>
    <path d="M 120 140 L105 140"/>
    <path d="M 120 145 L105 145"/>
    <path d="M 120 150 L105 150"/>
    <path d="M 125 135 L125 150"/>
    <path d="M 130 135 L130 150"/>
    <path d="M 135 135 L135 150"/>
    <path d="M 140 135 L140 150"/>
    <path d="M 145 135 L145 150"/>
    <path d="M 150 135 L150 150"/>
    <path d="M 165 140 L150 140"/>
    <path d="M 165 145 L150 145"/>
    <path d="M 165 150 L150 150"/>
    <path d="M 180 140 L165 140"/>
    <path d="M 180 145 L165 145"/>
    <path d="M 180 150 L165 150"/>
    <path d="M 45 155 L30 155"/>
    <path d="M 45 160 L30 160"/>
    <path d="M 45 165 L30 165"/>
    <path d="M 60 155 L45 155"/>
    <path d="M 60 160 L45 160"/>
    <path d="M 60 165 L45 165"/>
    <path d="M 75 155 L60 155"/>
    <path d="M 75 160 L60 160"/>
    <path d="M 75 165 L60 165"/>
    <path d="M 90 155 L75 155"/>
    <path d="M 90 160 L75 160"/>
    <path d="M 90 165 L75 165"/>
    <path d="M 95 150 L95 165"/>
    <path d="M 100 150 L100 165"/>
    <path d="M 105 150 L105 165"/>
    <path d="M 110 150 L110 165"/>
    <path d="M 115 150 L115 165"/>
    <path d="M 120 150 L120 165"/>
    <path d="M 135 155 L120 155"/>
    <path d="M 135 160 L120 160"/>
    <path d="M 135 165 L120 165"/>
    <path d="M 140 150 L140 165"/>
    <path d="M 145 150 L145 165"/>
    <path d="M 150 150 L150 165"/>
    <path d="M 155 150 L155 165"/>
    <path d="M 160 150 L160 165"/>
    <path d="M 165 150 L165 165"/>
    <path d="M 170 150 L170 165"/>
    <path d="M 175 150 L175 165"/>
    <path d="M 180 150 L180 165"/>
    <path d="M 35 165 L35 180"/>
    <path d="M 40 165 L40 180"/>
    <path d="M 45 165 L45 180"/>
    <path d="M 60 170 L45 170"/>
    <path d="M 60 175 L45 175"/>
    <path d="M 60 180 L45 180"/>
    <path d="M 75 170 L60 170"/>
    <path d="M 75 175 L60 175"/>
    <path d="M 75 180 L60 180"/>
    <path d="M 80 165 L80 180"/>
    <path d="M 85 165 L85 180"/>
    <path d="M 90 165 L90 180"/>
    <path d="M 95 165 L95 180"/>
    <path d="M 100 165 L100 180"/>
    <path d="M 105 165 L105 180"/>
    <path d="M 110 165 L110 180"/>
    <path d="M 115 165 L115 180"/>
    <path d="M 120 165 L120 180"/>
    <path d="M 135 170 L120 170"/>
    <path d="M 135 175 L120 175"/>
    <path d="M 135 180 L120 180"/>
    <path d="M 140 165 L140 180"/>
    <path d="M 145 165 L145 180"/>
    <path d="M 150 165 L150 180"/>
    <path d="M 155 165 L155 180"/>
    <path d="M 160 165 L160 180"/>
    <path d="M 165 165 L165 180"/>
    <path d="M 170 165 L170 180"/>
    <path d="M 175 165 L175 180"/>
    <path d="M 180 165 L180 180"/>
    <path d="M 45 185 L30 185"/>
    <path d="M 45 190 L30 190"/>
    <path d="M 45 195 L30 195"/>
    <path d="M 50 180 L50 195"/>
    <path d="M 55 180 L55 195"/>
    <path d="M 60 180 L60 195"/>
    <path d="M 75 185 L60 185"/>
    <path d="M 75 190 L60 190"/>
    <path d="M 75 195 L60 195"/>
    <path d="M 90 185 L75 185"/>
    <path d="M 90 190 L75 190"/>
    <path d="M 90 195 L75 195"/>
    <path d="M 105 185 L90 185"/>
    <path d="M 105 190 L90 190"/>
    <path d="M 105 195 L90 195"/>
    <path d="M 110 180 L110 195"/>
    <path d="M 115 180 L115 195"/>
    <path d="M 120 180 L120 195"/>
    <path d="M 125 180 L125 195"/>
    <path d="M 130 180 L130 195"/>
    <path d="M 135 180 L135 195"/>
    <path d="M 150 185 L135 185"/>
    <path d="M 150 190 L135 190"/>
    <path d="M 150 195 L135 195"/>
    <path d="M 155 180 L155 195"/>
    <path d="M 160 180 L160 195"/>
    <path d="M 165 180 L165 195"/>
    <path d="M 180 185 L165 185"/>
    <path d="M 180 190 L165 190"/>
    <path d="M 180 195 L165 195"/>
    <path d="M 45 200 L30 200"/>
    <path d="M 45 205 L30 205"/>
    <path d="M 45 210 L30 210"/>
    <path d="M 50 195 L50 210"/>
    <path d="M 55 195 L55 210"/>
    <path d="M 60 195 L60 210"/>
    <path d="M 75 200 L60 200"/>
    <path d="M 75 205 L60 205"/>
    <path d="M 75 210 L60 210"/>
    <path d="M 80 195 L80 210"/>
    <path d="M 85 195 L85 210"/>
    <path d="M 90 195 L90 210"/>
    <path d="M 95 195 L95 210"/>
    <path d="M 100 195 L100 210"/>
    <path d="M 105 195 L105 210"/>
    <path d="M 120 200 L105 200"/>
    <path d="M 120 205 L105 205"/>
    <path d="M 120 210 L105 210"/>
    <path d="M 135 200 L120 200"/>
    <path d="M 135 205 L120 205"/>
    <path d="M 135 210 L120 210"/>
    <path d="M 140 195 L140 210"/>
    <path d="M 145 195 L145 210"/>
    <path d="M 150 195 L150 210"/>
    <path d="M 155 195 L155 210"/>
    <path d="M 160 195 L160 210"/>
    <path d="M 165 195 L165 210"/>
    <path d="M 180 200 L165 200"/>
    <path d="M 180 205 L165 205"/>
    <path d="M 180 210 L165 210"/>
    <path d="M 35 210 L35 225"/>
    <path d="M 40 210 L40 225"/>
    <path d="M 45 210 L45 225"/>
    <path d="M 60 215 L45 215"/>
    <path d="M 60 220 L45 220"/>
    <path d="M 60 225 L45 225"/>
    <path d="M 75 215 L60 215"/>
    <path d="M 75 220 L60 220"/>
    <path d="M 75 225 L60 225"/>
    <path d="M 80 210 L80 225"/>
    <path d="M 85 210 L85 225"/>
    <path d="M 90 210 L90 225"/>
    <path d="M 105 215 L90 215"/>
    <path d="M 105 220 L90 220"/>
    <path d="M 105 225 L90 225"/>
    <path d="M 110 210 L110 225"/>
    <path d="M 115 210 L115 225"/>
    <path d="M 120 210 L120 225"/>
    <path d="M 125 210 L125 225"/>
    <path d="M 130 210 L130 225"/>
    <path d="M 135 210 L135 225"/>
    <path d="M 140 210 L140 225"/>
    <path d="M 145 210 L145 225"/>
    <path d="M 150 210 L150 225"/>
    <path d="M 155 210 L155 225"/>
    <path d="M 160 210 L160 225"/>
    <path d="M 165 210 L165 225"/>
    <path d="M 170 210 L170 225"/>
    <path d="M 175 210 L175 225"/>
    <path d="M 180 210 L180 225"/>
    <path d="M 35 225 L35 240"/>
    <path d="M 40 225 L40 240"/>
    <path d="M 45 225 L45 240"/>
    <path d="M 60 230 L45 230"/>
    <path d="M 60 235 L45 235"/>
    <path d="M 60 240 L45 240"/>
    <path d="M 65 225 L65 240"/>
    <path d="M 70 225 L70 240"/>
    <path d="M 75 225 L75 240"/>
    <path d="M 90 230 L75 230"/>
    <path d="M 90 235 L75 235"/>
    <path d="M 90 240 L75 240"/>
    <path d="M 105 230 L90 230"/>
    <path d="M 105 235 L90 235"/>
    <path d="M 105 240 L90 240"/>
    <path d="M 120 230 L105 230"/>
    <path d="M 120 235 L105 235"/>
    <path d="M 120 240 L105 240"/>
    <path d="M 135 230 L120 230"/>
    <path d="M 135 235 L120 235"/>
    <path d="M 135 240 L120 240"/>
    <path d="M 150 230 L135 230"/>
    <path d="M 150 235 L135 235"/>
    <path d="M 150 240 L135 240"/>
    <path d="M 155 225 L155 240"/>
    <path d="M 160 225 L160 240"/>
    <path d="M 165 225 L165 240"/>
    <path d="M 170 225 L170 240"/>
    <path d="M 175 225 L175 240"/>
    <path d="M 180 225 L180 240"/>
    <path d="M 30 30 L180 30 L180 240 L30 240 Z"/>
  </g></svg>