<?xml version="1.0" encoding="utf-8"?><svg version="1.1" xmlns="http://www.w3.org/2000/svg" xmlns:xlink="http://www.w3.org/1999/xlink" width="297.000000" height="210.000000" viewbox="0 0 297.000000 210.000000">  <g style="stroke-width: 2.000000; stroke: #f33 ;stroke-linecap: round; stroke-linejoin: round; fill: none;">  
    <path d="M 52.5 45.5 L42 45.5"/>
    <path d="M 52.5 49 L42 49"/>
    <path d="M 52.5 52.5 L42 52.5"/>
    <path d="M 63 45.5 L52.5 45.5"/>
    <path d="M 63 49 L52.5 49"/>
    <path d="M 63 52.5 L52.5 52.5"/>
    <path d="M 73.5 45.5 L63 45.5"/>
    <path d="M 73.5 49 L63 49"/>
    <path d="M 73.5 52.5 L63 52.5"/>
    <path d="M 77 42 L77 52.5"/>
    <path d="M 80.5 42 L80.5 52.5"/>
    <path d="M 84 42 L84 52.5"/>
    <path d="M 94.5 45.5 L84 45.5"/>
    <path d="M 94.5 49 L84 49"/>
    <path d="M 94.5 52.5 L84 52.5"/>
    <path d="M 105 45.5 L94.5 45.5"/>
    <path d="M 105 49 L94.5 49"/>
    <path d="M 105 52.5 L94.5 52.5"/>
    <path d="M 115.5 45.5 L105 45.5"/>
    <path d="M 115.5 49 L105 49"/>
    <path d="M 115.5 52.5 L105 52.5"/>
    <path d="M 126 45.5 L115.5 45.5"/>
    <path d="M 126 49 L115.5 49"/>
    <path d="M 126 52.5 L115.5 52.5"/>
    <path d="M 129.5 42 L129.5 52.5"/>
    <path d="M 133 42 L133 52.5"/>
    <path d="M 136.5 42 L136.5 52.5"/>
    <path d="M 140 42 L140 52.5"/>
    <path d="M 143.5 42 L143.5 52.5"/>
    <path d="M 147 42 L147 52.5"/>
    <path d="M 157.5 45.5 L147 45.5"/>
    <path d="M 157.5 49 L147 49"/>
    <path d="M 157.5 52.5 L147 52.5"/>
    <path d="M 161 42 L161 52.5"/>
    <path d="M 164.5 42 L164.5 52.5"/>
    <path d="M 168 42 L168 52.5"/>
    <path d="M 178.5 45.5 L168 45.5"/>
    <path d="M 178.5 49 L168 49"/>
    <path d="M 178.5 52.5 L168 52.5"/>
    <path d="M 189 45.5 L178.5 45.5"/>
    <path d="M 189 49 L178.5 49"/>
    <path d="M 189 52.5 L178.5 52.5"/>
    <path d="M 199.5 45.5 L189 45.5"/>
    <path d="M 199.5 49 L189 49"/>
    <path d="M 199.5 52.5 L189 52.5"/>
    <path d="M 203 42 L203 52.5"/>
    <path d="M 206.5 42 L206.5 52.5"/>
    <path d="M 210 42 L210 52.5"/>
    <path d="M 220.5 45.5 L210 45.5"/>
    <path d="M 220.5 49 L210 49"/>
    <path d="M 220.5 52.5 L210 52.5"/>
    <path d="M 52.5 56 L42 56"/>
    <path d="M 52.5 59.5 L42 59.5"/>
    <path d="M 52.5 63 L42 63"/>
    <path d="M 56 52.5 L56 63"/>
    <path d="M 59.5 52.5 L59.5 63"/>
    <path d="M 63 52.5 L63 63"/>
    <path d="M 66.5 52.5 L66.5 63"/>
    <path d="M 70 52.5 L70 63"/>
    <path d="M 73.5 52.5 L73.5 63"/>
    <path d="M 84 56 L73.5 56"/>
    <path d="M 84 59.5 L73.5 59.5"/>
    <path d="M 84 63 L73.5 63"/>
    <path d="M 94.5 56 L84 56"/>
    <path d="M 94.5 59.5 L84 59.5"/>
    <path d="M 94.5 63 L84 63"/>
    <path d="M 105 56 L94.5 56"/>
    <path d="M 105 59.5 L94.5 59.5"/>
    <path d="M 105 63 L94.5 63"/>
    <path d="M 108.5 52.5 L108.5 63"/>
    <path d="M 112 52.5 L112 63"/>
    <path d="M 115.5 52.5 L115.5 63"/>
    <path d="M 126 56 L115.5 56"/>
    <path d="M 126 59.5 L115.5 59.5"/>
    <path d="M 126 63 L115.5 63"/>
    <path d="M 136.5 56 L126 56"/>
    <path d="M 136.5 59.5 L126 59.5"/>
    <path d="M 136.5 63 L126 63"/>
    <path d="M 147 56 L136.5 56"/>
    <path d="M 147 59.5 L136.5 59.5"/>
    <path d="M 147 63 L136.5 63"/>
    <path d="M 150.5 52.5 L150.5 63"/>
    <path d="M 154 52.5 L154 63"/>
    <path d="M 157.5 52.5 L157.5 63"/>
    <path d="M 168 56 L157.5 56"/>
    <path d="M 168 59.5 L157.5 59.5"/>
    <path d="M 168 63 L157.5 63"/>
    <path d="M 171.5 52.5 L171.5 63"/>
    <path d="M 175 52.5 L175 63"/>
    <path d="M 178.5 52.5 L178.5 63"/>
    <path d="M 189 56 L178.5 56"/>
    <path d="M 189 59.5 L178.5 59.5"/>
    <path d="M 189 63 L178.5 63"/>
    <path d="M 199.5 56 L189 56"/>
    <path d="M 199.5 59.5 L189 59.5"/>
    <path d="M 199.5 63 L189 63"/>
    <path d="M 210 56 L199.5 56"/>
    <path d="M 210 59.5 L199.5 59.5"/>
    <path d="M 210 63 L199.5 63"/>
    <path d="M 213.5 52.5 L213.5 63"/>
    <path d="M 217 52.5 L217 63"/>
    <path d="M 220.5 52.5 L220.5 63"/>
    <path d="M 52.5 66.5 L42 66.5"/>
    <path d="M 52.5 70 L42 70"/>
    <path d="M 52.5 73.5 L42 73.5"/>
    <path d="M 56 63 L56 73.5"/>
    <path d="M 59.5 63 L59.5 73.5"/>
    <path d="M 63 63 L63 73.5"/>
    <path d="M 66.5 63 L66.5 73.5"/>
    <path d="M 70 63 L70 73.5"/>
    <path d="M 73.5 63 L73.5 73.5"/>
    <path d="M 77 63 L77 73.5"/>
    <path d="M 80.5 63 L80.5 73.5"/>
    <path d="M 84 63 L84 73.5"/>
    <path d="M 87.5 63 L87.5 73.5"/>
    <path d="M 91 63 L91 73.5"/>
    <path d="M 94.5 63 L94.5 73.5"/>
    <path d="M 105 66.5 L94.5 66.5"/>
    <path d="M 105 70 L94.5 70"/>
    <path d="M 105 73.5 L94.5 73.5"/>
    <path d="M 108.5 63 L108.5 73.5"/>
    <path d="M 112 63 L112 73.5"/>
    <path d="M 115.5 63 L115.5 73.5"/>
    <path d="M 119 63 L119 73.5"/>
    <path d="M 122.5 63 L122.5 73.5"/>
    <path d="M 126 63 L126 73.5"/>
    <path d="M 136.5 66.5 L126 66.5"/>
    <path d="M 136.5 70 L126 70"/>
    <path d="M 136.5 73.5 L126 73.5"/>
    <path d="M 147 66.5 L136.5 66.5"/>
    <path d="M 147 70 L136.5 70"/>
    <path d="M 147 73.5 L136.5 73.5"/>
    <path d="M 150.5 63 L150.5 73.5"/>
    <path d="M 154 63 L154 73.5"/>
    <path d="M 157.5 63 L157.5 73.5"/>
    <path d="M 168 66.5 L157.5 66.5"/>
    <path d="M 168 70 L157.5 70"/>
    <path d="M 168 73.5 L157.5 73.5"/>
    <path d="M 171.5 63 L171.5 73.5"/>
    <path d="M 175 63 L175 73.5"/>
    <path d="M 178.5 63 L178.5 73.5"/>
    <path d="M 189 66.5 L178.5 66.5"/>
    <path d="M 189 70 L178.5 70"/>
    <path d="M 189 73.5 L178.5 73.5"/>
    <path d="M 192.5 63 L192.5 73.5"/>
    <path d="M 196 63 L196 73.5"/>
    <path d="M 199.5 63 L199.5 73.5"/>
    <path d="M 210 66.5 L199.5 66.5"/>
    <path d="M 210 70 L199.5 70"/>
    <path d="M 210 73.5 L199.5 73.5"/>
    <path d="M 213.5 63 L213.5 73.5"/>
    <path d="M 217 63 L217 73.5"/>
    <path d="M 220.5 63 L220.5 73.5"/>
    <path d="M 45.5 73.5 L45.5 84"/>
    <path d="M 49 73.5 L49 84"/>
    <path d="M 52.5 73.5 L52.5 84"/>
    <path d="M 56 73.5 L56 84"/>
    <path d="M 59.5 73.5 L59.5 84"/>
    <path d="M 63 73.5 L63 84"/>
    <path d="M 66.5 73.5 L66.5 84"/>
    <path d="M 70 73.5 L70 84"/>
    <path d="M 73.5 73.5 L73.5 84"/>
    <path d="M 77 73.5 L77 84"/>
    <path d="M 80.5 73.5 L80.5 84"/>
    <path d="M 84 73.5 L84 84"/>
    <path d="M 94.5 77 L84 77"/>
    <path d="M 94.5 80.5 L84 80.5"/>
    <path d="M 94.5 84 L84 84"/>
    <path d="M 105 77 L94.5 77"/>
    <path d="M 105 80.5 L94.5 80.5"/>
    <path d="M 105 84 L94.5 84"/>
    <path d="M 115.5 77 L105 77"/>
    <path d="M 115.5 80.5 L105 80.5"/>
    <path d="M 115.5 84 L105 84"/>
    <path d="M 126 77 L115.5 77"/>
    <path d="M 126 80.5 L115.5 80.5"/>
    <path d="M 126 84 L115.5 84"/>
    <path d="M 136.5 77 L126 77"/>
    <path d="M 136.5 80.5 L126 80.5"/>
    <path d="M 136.5 84 L126 84"/>
    <path d="M 140 73.5 L140 84"/>
    <path d="M 143.5 73.5 L143.5 84"/>
    <path d="M 147 73.5 L147 84"/>
    <path d="M 157.5 77 L147 77"/>
    <path d="M 157.5 80.5 L147 80.5"/>
    <path d="M 157.5 84 L147 84"/>
    <path d="M 168 77 L157.5 77"/>
    <path d="M 168 80.5 L157.5 80.5"/>
    <path d="M 168 84 L157.5 84"/>
    <path d="M 178.5 77 L168 77"/>
    <path d="M 178.5 80.5 L168 80.5"/>
    <path d="M 178.5 84 L168 84"/>
    <path d="M 189 77 L178.5 77"/>
    <path d="M 189 80.5 L178.5 80.5"/>
    <path d="M 189 84 L178.5 84"/>
    <path d="M 192.5 73.5 L192.5 84"/>
    <path d="M 196 73.5 L196 84"/>
    <path d="M 199.5 73.5 L199.5 84"/>
    <path d="M 210 77 L199.5 77"/>
    <path d="M 210 80.5 L199.5 80.5"/>
    <path d="M 210 84 L199.5 84"/>
    <path d="M 220.5 77 L210 77"/>
    <path d="M 220.5 80.5 L210 80.5"/>
    <path d="M 220.5 84 L210 84"/>
    <path d="M 52.5 87.5 L42 87.5"/>
    <path d="M 52.5 91 L42 91"/>
    <path d="M 52.5 94.5 L42 94.5"/>
    <path d="M 56 84 L56 94.5"/>
    <path d="M 59.5 84 L59.5 94.5"/>
    <path d="M 63 84 L63 94.5"/>
    <path d="M 66.5 84 L66.5 94.5"/>
    <path d="M 70 84 L70 94.5"/>
    <path d="M 73.5 84 L73.5 94.5"/>
    <path d="M 84 87.5 L73.5 87.5"/>
    <path d="M 84 91 L73.5 91"/>
    <path d="M 84 94.5 L73.5 94.5"/>
    <path d="M 94.5 87.5 L84 87.5"/>
    <path d="M 94.5 91 L84 91"/>
    <path d="M 94.5 94.5 L84 94.5"/>
    <path d="M 105 87.5 L94.5 87.5"/>
    <path d="M 105 91 L94.5 91"/>
    <path d="M 105 94.5 L94.5 94.5"/>
    <path d="M 115.5 87.5 L105 87.5"/>
    <path d="M 115.5 91 L105 91"/>
    <path d="M 115.5 94.5 L105 94.5"/>
    <path d="M 119 84 L119 94.5"/>
    <path d="M 122.5 84 L122.5 94.5"/>
    <path d="M 126 84 L126 94.5"/>
    <path d="M 136.5 87.5 L126 87.5"/>
    <path d="M 136.5 91 L126 91"/>
    <path d="M 136.5 94.5 L126 94.5"/>
    <path d="M 147 87.5 L136.5 87.5"/>
    <path d="M 147 91 L136.5 91"/>
    <path d="M 147 94.5 L136.5 94.5"/>
    <path d="M 150.5 84 L150.5 94.5"/>
    <path d="M 154 84 L154 94.5"/>
    <path d="M 157.5 84 L157.5 94.5"/>
    <path d="M 161 84 L161 94.5"/>
    <path d="M 164.5 84 L164.5 94.5"/>
    <path d="M 168 84 L168 94.5"/>
    <path d="M 178.5 87.5 L168 87.5"/>
    <path d="M 178.5 91 L168 91"/>
    <path d="M 178.5 94.5 L168 94.5"/>
    <path d="M 182 84 L182 94.5"/>
    <path d="M 185.5 84 L185.5 94.5"/>
    <path d="M 189 84 L189 94.5"/>
    <path d="M 199.5 87.5 L189 87.5"/>
    <path d="M 199.5 91 L189 91"/>
    <path d="M 199.5 94.5 L189 94.5"/>
    <path d="M 210 87.5 L199.5 87.5"/>
    <path d="M 210 91 L199.5 91"/>
    <path d="M 210 94.5 L199.5 94.5"/>
    <path d="M 220.5 87.5 L210 87.5"/>
    <path d="M 220.5 91 L210 91"/>
    <path d="M 220.5 94.5 L210 94.5"/>
    <path d="M 45.5 94.5 L45.5 105"/>
    <path d="M 49 94.5 L49 105"/>
    <path d="M 52.5 94.5 L52.5 105"/>
    <path d="M 63 98 L52.5 98"/>
    <path d="M 63 101.5 L52.5 101.5"/>
    <path d="M 63 105 L52.5 105"/>
    <path d="M 73.5 98 L63 98"/>
    <path d="M 73.5 101.5 L63 101.5"/>
    <path d="M 73.5 105 L63 105"/>
    <path d="M 77 94.5 L77 105"/>
    <path d="M 80.5 94.5 L80.5 105"/>
    <path d="M 84 94.5 L84 105"/>
    <path d="M 87.5 94.5 L87.5 105"/>
    <path d="M 91 94.5 L91 105"/>
    <path d="M 94.5 94.5 L94.5 105"/>
    <path d="M 98 94.5 L98 105"/>
    <path d="M 101.5 94.5 L101.5 105"/>
    <path d="M 105 94.5 L105 105"/>
    <path d="M 115.5 98 L105 98"/>
    <path d="M 115.5 101.5 L105 101.5"/>
    <path d="M 115.5 105 L105 105"/>
    <path d="M 126 98 L115.5 98"/>
    <path d="M 126 101.5 L115.5 101.5"/>
    <path d="M 126 105 L115.5 105"/>
    <path d="M 129.5 94.5 L129.5 105"/>
    <path d="M 133 94.5 L133 105"/>
    <path d="M 136.5 94.5 L136.5 105"/>
    <path d="M 140 94.5 L140 105"/>
    <path d="M 143.5 94.5 L143.5 105"/>
    <path d="M 147 94.5 L147 105"/>
    <path d="M 157.5 98 L147 98"/>
    <path d="M 157.5 101.5 L147 101.5"/>
    <path d="M 157.5 105 L147 105"/>
    <path d="M 168 98 L157.5 98"/>
    <path d="M 168 101.5 L157.5 101.5"/>
    <path d="M 168 105 L157.5 105"/>
    <path d="M 178.5 98 L168 98"/>
    <path d="M 178.5 101.5 L168 101.5"/>
    <path d="M 178.5 105 L168 105"/>
    <path d="M 182 94.5 L182 105"/>
    <path d="M 185.5 94.5 L185.5 105"/>
    <path d="M 189 94.5 L189 105"/>
    <path d="M 199.5 98 L189 98"/>
    <path d="M 199.5 101.5 L189 101.5"/>
    <path d="M 199.5 105 L189 105"/>
    <path d="M 203 94.5 L203 105"/>
    <path d="M 206.5 94.5 L206.5 105"/>
    <path d="M 210 94.5 L210 105"/>
    <path d="M 220.5 98 L210 98"/>
    <path d="M 220.5 101.5 L210 101.5"/>
    <path d="M 220.5 105 L210 105"/>
    <path d="M 45.5 105 L45.5 115.5"/>
    <path d="M 49 105 L49 115.5"/>
    <path d="M 52.5 105 L52.5 115.5"/>
    <path d="M 56 105 L56 115.5"/>
    <path d="M 59.5 105 L59.5 115.5"/>
    <path d="M 63 105 L63 115.5"/>
    <path d="M 73.5 108.5 L63 108.5"/>
    <path d="M 73.5 112 L63 112"/>
    <path d="M 73.5 115.5 L63 115.5"/>
    <path d="M 77 105 L77 115.5"/>
    <path d="M 80.5 105 L80.5 115.5"/>
    <path d="M 84 105 L84 115.5"/>
    <path d="M 94.5 108.5 L84 108.5"/>
    <path d="M 94.5 112 L84 112"/>
    <path d="M 94.5 115.5 L84 115.5"/>
    <path d="M 98 105 L98 115.5"/>
    <path d="M 101.5 105 L101.5 115.5"/>
    <path d="M 105 105 L105 115.5"/>
    <path d="M 108.5 105 L108.5 115.5"/>
    <path d="M 112 105 L112 115.5"/>
    <path d="M 115.5 105 L115.5 115.5"/>
    <path d="M 126 108.5 L115.5 108.5"/>
    <path d="M 126 112 L115.5 112"/>
    <path d="M 126 115.5 L115.5 115.5"/>
    <path d="M 136.5 108.5 L126 108.5"/>
    <path d="M 136.5 112 L126 112"/>
    <path d="M 136.5 115.5 L126 115.5"/>
    <path d="M 140 105 L140 115.5"/>
    <path d="M 143.5 105 L143.5 115.5"/>
    <path d="M 147 105 L147 115.5"/>
    <path d="M 157.5 108.5 L147 108.5"/>
    <path d="M 157.5 112 L147 112"/>
    <path d="M 157.5 115.5 L147 115.5"/>
    <path d="M 168 108.5 L157.5 108.5"/>
    <path d="M 168 112 L157.5 112"/>
    <path d="M 168 115.5 L157.5 115.5"/>
    <path d="M 178.5 108.5 L168 108.5"/>
    <path d="M 178.5 112 L168 112"/>
    <path d="M 178.5 115.5 L168 115.5"/>
    <path d="M 189 108.5 L178.5 108.5"/>
    <path d="M 189 112 L178.5 112"/>
    <path d="M 189 115.5 L178.5 115.5"/>
    <path d="M 199.5 108.5 L189 108.5"/>
    <path d="M 199.5 112 L189 112"/>
    <path d="M 199.5 115.5 L189 115.5"/>
    <path d="M 203 105 L203 115.5"/>
    <path d="M 206.5 105 L206.5 115.5"/>
    <path d="M 210 105 L210 115.5"/>
    <path d="M 213.5 105 L213.5 115.5"/>
    <path d="M 217 105 L217 115.5"/>
    <path d="M 220.5 105 L220.5 115.5"/>
    <path d="M 52.5 119 L42 119"/>
    <path d="M 52.5 122.5 L42 122.5"/>
    <path d="M 52.5 126 L42 126"/>
    <path d="M 56 115.5 L56 126"/>
    <path d="M 59.5 115.5 L59.5 126"/>
    <path d="M 63 115.5 L63 126"/>
    <path d="M 66.5 115.5 L66.5 126"/>
    <path d="M 70 115.5 L70 126"/>
    <path d="M 73.5 115.5 L73.5 126"/>
    <path d="M 77 115.5 L77 126"/>
    <path d="M 80.5 115.5 L80.5 126"/>
    <path d="M 84 115.5 L84 126"/>
    <path d="M 94.5 119 L84 119"/>
    <path d="M 94.5 122.5 L84 122.5"/>
    <path d="M 94.5 126 L84 126"/>
    <path d="M 105 119 L94.5 119"/>
    <path d="M 105 122.5 L94.5 122.5"/>
    <path d="M 105 126 L94.5 126"/>
    <path d="M 108.5 115.5 L108.5 126"/>
    <path d="M 112 115.5 L112 126"/>
    <path d="M 115.5 115.5 L115.5 126"/>
    <path d="M 119 115.5 L119 126"/>
    <path d="M 122.5 115.5 L122.5 126"/>
    <path d="M 126 115.5 L126 126"/>
    <path d="M 129.5 115.5 L129.5 126"/>
    <path d="M 133 115.5 L133 126"/>
    <path d="M 136.5 115.5 L136.5 126"/>
    <path d="M 140 115.5 L140 126"/>
    <path d="M 143.5 115.5 L143.5 126"/>
    <path d="M 147 115.5 L147 126"/>
    <path d="M 157.5 119 L147 119"/>
    <path d="M 157.5 122.5 L147 122.5"/>
    <path d="M 157.5 126 L147 126"/>
    <path d="M 168 119 L157.5 119"/>
    <path d="M 168 122.5 L157.5 122.5"/>
    <path d="M 168 126 L157.5 126"/>
    <path d="M 178.5 119 L168 119"/>
    <path d="M 178.5 122.5 L168 122.5"/>
    <path d="M 178.5 126 L168 126"/>
    <path d="M 189 119 L178.5 119"/>
    <path d="M 189 122.5 L178.5 122.5"/>
    <path d="M 189 126 L178.5 126"/>
    <path d="M 199.5 119 L189 119"/>
    <path d="M 199.5 122.5 L189 122.5"/>
    <path d="M 199.5 126 L189 126"/>
    <path d="M 203 115.5 L203 126"/>
    <path d="M 206.5 115.5 L206.5 126"/>
    <path d="M 210 115.5 L210 126"/>
    <path d="M 213.5 115.5 L213.5 126"/>
    <path d="M 217 115.5 L217 126"/>
    <path d="M 220.5 115.5 L220.5 126"/>
    <path d="M 45.5 126 L45.5 136.5"/>
    <path d="M 49 126 L49 136.5"/>
    <path d="M 52.5 126 L52.5 136.5"/>
    <path d="M 63 129.5 L52.5 129.5"/>
    <path d="M 63 133 L52.5 133"/>
    <path d="M 63 136.5 L52.5 136.5"/>
    <path d="M 66.5 126 L66.5 136.5"/>
    <path d="M 70 126 L70 136.5"/>
    <path d="M 73.5 126 L73.5 136.5"/>
    <path d="M 77 126 L77 136.5"/>
    <path d="M 80.5 126 L80.5 136.5"/>
    <path d="M 84 126 L84 136.5"/>
    <path d="M 94.5 129.5 L84 129.5"/>
    <path d="M 94.5 133 L84 133"/>
    <path d="M 94.5 136.5 L84 136.5"/>
    <path d="M 105 129.5 L94.5 129.5"/>
    <path d="M 105 133 L94.5 133"/>
    <path d="M 105 136.5 L94.5 136.5"/>
    <path d="M 108.5 126 L108.5 136.5"/>
    <path d="M 112 126 L112 136.5"/>
    <path d="M 115.5 126 L115.5 136.5"/>
    <path d="M 126 129.5 L115.5 129.5"/>
    <path d="M 126 133 L115.5 133"/>
    <path d="M 126 136.5 L115.5 136.5"/>
    <path d="M 129.5 126 L129.5 136.5"/>
    <path d="M 133 126 L133 136.5"/>
    <path d="M 136.5 126 L136.5 136.5"/>
    <path d="M 147 129.5 L136.5 129.5"/>
    <path d="M 147 133 L136.5 133"/>
    <path d="M 147 136.5 L136.5 136.5"/>
    <path d="M 150.5 126 L150.5 136.5"/>
    <path d="M 154 126 L154 136.5"/>
    <path d="M 157.5 126 L157.5 136.5"/>
    <path d="M 168 129.5 L157.5 129.5"/>
    <path d="M 168 133 L157.5 133"/>
    <path d="M 168 136.5 L157.5 136.5"/>
    <path d="M 171.5 126 L171.5 136.5"/>
    <path d="M 175 126 L175 136.5"/>
    <path d="M 178.5 126 L178.5 136.5"/>
    <path d="M 189 129.5 L178.5 129.5"/>
    <path d="M 189 133 L178.5 133"/>
    <path d="M 189 136.5 L178.5 136.5"/>
    <path d="M 199.5 129.5 L189 129.5"/>
    <path d="M 199.5 133 L189 133"/>
    <path d="M 199.5 136.5 L189 136.5"/>
    <path d="M 203 126 L203 136.5"/>
    <path d="M 206.5 126 L206.5 136.5"/>
    <path d="M 210 126 L210 136.5"/>
    <path d="M 220.5 129.5 L210 129.5"/>
    <path d="M 220.5 133 L210 133"/>
    <path d="M 220.5 136.5 L210 136.5"/>
    <path d="M 45.5 136.5 L45.5 147"/>
    <path d="M 49 136.5 L49 147"/>
    <path d="M 52.5 136.5 L52.5 147"/>
    <path d="M 56 136.5 L56 147"/>
    <path d="M 59.5 136.5 L59.5 147"/>
    <path d="M 63 136.5 L63 147"/>
    <path d="M 73.5 140 L63 140"/>
    <path d="M 73.5 143.5 L63 143.5"/>
    <path d="M 73.5 147 L63 147"/>
    <path d="M 77 136.5 L77 147"/>
    <path d="M 80.5 136.5 L80.5 147"/>
    <path d="M 84 136.5 L84 147"/>
    <path d="M 87.5 136.5 L87.5 147"/>
    <path d="M 91 136.5 L91 147"/>
    <path d="M 94.5 136.5 L94.5 147"/>
    <path d="M 105 140 L94.5 140"/>
    <path d="M 105 143.5 L94.5 143.5"/>
    <path d="M 105 147 L94.5 147"/>
    <path d="M 115.5 140 L105 140"/>
    <path d="M 115.5 143.5 L105 143.5"/>
    <path d="M 115.5 147 L105 147"/>
    <path d="M 126 140 L115.5 140"/>
    <path d="M 126 143.5 L115.5 143.5"/>
    <path d="M 126 147 L115.5 147"/>
    <path d="M 129.5 136.5 L129.5 147"/>
    <path d="M 133 136.5 L133 147"/>
    <path d="M 136.5 136.5 L136.5 147"/>
    <path d="M 147 140 L136.5 140"/>
    <path d="M 147 143.5 L136.5 143.5"/>
    <path d="M 147 147 L136.5 147"/>
    <path d="M 157.5 140 L147 140"/>
    <path d="M 157.5 143.5 L147 143.5"/>
    <path d="M 157.5 147 L147 147"/>
    <path d="M 161 136.5 L161 147"/>
    <path d="M 164.5 136.5 L164.5 147"/>
    <path d="M 168 136.5 L168 147"/>
    <path d="M 171.5 136.5 L171.5 147"/>
    <path d="M 175 136.5 L175 147"/>
    <path d="M 178.5 136.5 L178.5 147"/>
    <path d="M 189 140 L178.5 140"/>
    <path d="M 189 143.5 L178.5 143.5"/>
    <path d="M 189 147 L178.5 147"/>
    <path d="M 199.5 140 L189 140"/>
    <path d="M 199.5 143.5 L189 143.5"/>
    <path d="M 199.5 147 L189 147"/>
    <path d="M 210 140 L199.5 140"/>
    <path d="M 210 143.5 L199.5 143.5"/>
    <path d="M 210 147 L199.5 147"/>
    <path d="M 220.5 140 L210 140"/>
    <path d="M 220.5 143.5 L210 143.5"/>
    <path d="M 220.5 147 L210 147"/>
    <path d="M 45.5 147 L45.5 157.5"/>
    <path d="M 49 147 L49 157.5"/>
    <path d="M 52.5 147 L52.5 157.5"/>
    <path d="M 63 150.5 L52.5 150.5"/>
    <path d="M 63 154 L52.5 154"/>
    <path d="M 63 157.5 L52.5 157.5"/>
    <path d="M 73.5 150.5 L63 150.5"/>
    <path d="M 73.5 154 L63 154"/>
    <path d="M 73.5 157.5 L63 157.5"/>
    <path d="M 84 150.5 L73.5 150.5"/>
    <path d="M 84 154 L73.5 154"/>
    <path d="M 84 157.5 L73.5 157.5"/>
    <path d="M 94.5 150.5 L84 150.5"/>
    <path d="M 94.5 154 L84 154"/>
    <path d="M 94.5 157.5 L84 157.5"/>
    <path d="M 98 147 L98 157.5"/>
    <path d="M 101.5 147 L101.5 157.5"/>
    <path d="M 105 147 L105 157.5"/>
    <path d="M 115.5 150.5 L105 150.5"/>
    <path d="M 115.5 154 L105 154"/>
    <path d="M 115.5 157.5 L105 157.5"/>
    <path d="M 119 147 L119 157.5"/>
    <path d="M 122.5 147 L122.5 157.5"/>
    <path d="M 126 147 L126 157.5"/>
    <path d="M 136.5 150.5 L126 150.5"/>
    <path d="M 136.5 154 L126 154"/>
    <path d="M 136.5 157.5 L126 157.5"/>
    <path d="M 140 147 L140 157.5"/>
    <path d="M 143.5 147 L143.5 157.5"/>
    <path d="M 147 147 L147 157.5"/>
    <path d="M 150.5 147 L150.5 157.5"/>
    <path d="M 154 147 L154 157.5"/>
    <path d="M 157.5 147 L157.5 157.5"/>
    <path d="M 168 150.5 L157.5 150.5"/>
    <path d="M 168 154 L157.5 154"/>
    <path d="M 168 157.5 L157.5 157.5"/>
    <path d="M 178.5 150.5 L168 150.5"/>
    <path d="M 178.5 154 L168 154"/>
    <path d="M 178.5 157.5 L168 157.5"/>
    <path d="M 182 147 L182 157.5"/>
    <path d="M 185.5 147 L185.5 157.5"/>
    <path d="M 189 147 L189 157.5"/>
    <path d="M 199.5 150.5 L189 150.5"/>
    <path d="M 199.5 154 L189 154"/>
    <path d="M 199.5 157.5 L189 157.5"/>
    <path d="M 210 150.5 L199.5 150.5"/>
    <path d="M 210 154 L199.5 154"/>
    <path d="M 210 157.5 L199.5 157.5"/>
    <path d="M 213.5 147 L213.5 157.5"/>
    <path d="M 217 147 L217 157.5"/>
    <path d="M 220.5 147 L220.5 157.5"/>
    <path d="M 52.5 161 L42 161"/>
    <path d="M 52.5 164.5 L42 164.5"/>
    <path d="M 52.5 168 L42 168"/>
    <path d="M 63 161 L52.5 161"/>
    <path d="M 63 164.5 L52.5 164.5"/>
    <path d="M 63 168 L52.5 168"/>
    <path d="M 66.5 157.5 L66.5 168"/>
    <path d="M 70 157.5 L70 168"/>
    <path d="M 73.5 157.5 L73.5 168"/>
    <path d="M 77 157.5 L77 168"/>
    <path d="M 80.5 157.5 L80.5 168"/>
    <path d="M 84 157.5 L84 168"/>
    <path d="M 94.5 161 L84 161"/>
    <path d="M 94.5 164.5 L84 164.5"/>
    <path d="M 94.5 168 L84 168"/>
    <path d="M 105 161 L94.5 161"/>
    <path d="M 105 164.5 L94.5 164.5"/>
    <path d="M 105 168 L94.5 168"/>
    <path d="M 108.5 157.5 L108.5 168"/>
    <path d="M 112 157.5 L112 168"/>
    <path d="M 115.5 157.5 L115.5 168"/>
    <path d="M 126 161 L115.5 161"/>
    <path d="M 126 164.5 L115.5 164.5"/>
    <path d="M 126 168 L115.5 168"/>
    <path d="M 136.5 161 L126 161"/>
    <path d="M 136.5 164.5 L126 164.5"/>
    <path d="M 136.5 168 L126 168"/>
    <path d="M 140 157.5 L140 168"/>
    <path d="M 143.5 157.5 L143.5 168"/>
    <path d="M 147 157.5 L147 168"/>
    <path d="M 150.5 157.5 L150.5 168"/>
    <path d="M 154 157.5 L154 168"/>
    <path d="M 157.5 157.5 L157.5 168"/>
    <path d="M 161 157.5 L161 168"/>
    <path d="M 164.5 157.5 L164.5 168"/>
    <path d="M 168 157.5 L168 168"/>
    <path d="M 171.5 157.5 L171.5 168"/>
    <path d="M 175 157.5 L175 168"/>
    <path d="M 178.5 157.5 L178.5 168"/>
    <path d="M 189 161 L178.5 161"/>
    <path d="M 189 164.5 L178.5 164.5"/>
    <path d="M 189 168 L178.5 168"/>
    <path d="M 199.5 161 L189 161"/>
    <path d="M 199.5 164.5 L189 164.5"/>
    <path d="M 199.5 168 L189 168"/>
    <path d="M 210 161 L199.5 161"/>
    <path d="M 210 164.5 L199.5 164.5"/>
    <path d="M 210 168 L199.5 168"/>
    <path d="M 213.5 157.5 L213.5 168"/>
    <path d="M 217 157.5 L217 168"/>
    <path d="M 220.5 157.5 L220.5 168"/>
    <path d="M 42 42 L220.5 42 L220.5 168 L42 168 Z"/>
  </g></svg>