<?xml version="1.0" encoding="utf-8"?><svg version="1.1" xmlns="http://www.w3.org/2000/svg" xmlns:xlink="http://www.w3.org/1999/xlink" width="160.000000" height="160.000000" viewbox="0 0 160.000000 160.000000">  <g style="stroke-width: 2.000000; stroke: rgba(0, 0, 0, 0.5) ;stroke-linecap: round; stroke-linejoin: round; fill: none;">  
    <path d="M 26.666666666667 20 L26.666666666667 40"/>
    <path d="M 33.333333333333 20 L33.333333333333 40"/>
    <path d="M 40 20 L40 40"/>
    <path d="M 60 26.666666666667 L40 26.666666666667"/>
    <path d="M 60 33.333333333333 L40 33.333333333333"/>
    <path d="M 60 40 L40 40"/>
    <path d="M 66.666666666667 20 L66.666666666667 40"/>
    <path d="M 73.333333333333 20 L73.333333333333 40"/>
    <path d="M 80 20 L80 40"/>
    <path d="M 86.666666666667 20 L86.666666666667 40"/>
    <path d="M 93.333333333333 20 L93.333333333333 40"/>
    <path d="M 100 20 L100 40"/>
    <path d="M 106.66666666667 20 L106.66666666667 40"/>
    <path d="M 113.33333333333 20 L113.33333333333 40"/>
    <path d="M 120 20 L120 40"/>
    <path d="M 126.66666666667 20 L126.66666666667 40"/>
    <path d="M 133.33333333333 20 L133.33333333333 40"/>
    <path d="M 140 20 L140 40"/>
    <path d="M 26.666666666667 40 L26.666666666667 60"/>
    <path d="M 33.333333333333 40 L33.333333333333 60"/>
    <path d="M 40 40 L40 60"/>
    <path d="M 46.666666666667 40 L46.666666666667 60"/>
    <path d="M 53.333333333333 40 L53.333333333333 60"/>
    <path d="M 60 40 L60 60"/>
    <path d="M 66.666666666667 40 L66.666666666667 60"/>
    <path d="M 73.333333333333 40 L73.333333333333 60"/>
    <path d="M 80 40 L80 60"/>
    <path d="M 100 46.666666666667 L80 46.666666666667"/>
    <path d="M 100 53.333333333333 L80 53.333333333333"/>
    <path d="M 100 60 L80 60"/>
    <path d="M 106.66666666667 40 L106.66666666667 60"/>
    <path d="M 113.33333333333 40 L113.33333333333 60"/>
    <path d="M 120 40 L120 60"/>
    <path d="M 140 46.666666666667 L120 46.666666666667"/>
    <path d="M 140 53.333333333333 L120 53.333333333333"/>
    <path d="M 140 60 L120 60"/>
    <path d="M 40 66.666666666667 L20 66.666666666667"/>
    <path d="M 40 73.333333333333 L20 73.333333333333"/>
    <path d="M 40 80 L20 80"/>
    <path d="M 46.666666666667 60 L46.666666666667 80"/>
    <path d="M 53.333333333333 60 L53.333333333333 80"/>
    <path d="M 60 60 L60 80"/>
    <path d="M 66.666666666667 60 L66.666666666667 80"/>
    <path d="M 73.333333333333 60 L73.333333333333 80"/>
    <path d="M 80 60 L80 80"/>
    <path d="M 100 66.666666666667 L80 66.666666666667"/>
    <path d="M 100 73.333333333333 L80 73.333333333333"/>
    <path d="M 100 80 L80 80"/>
    <path d="M 120 66.666666666667 L100 66.666666666667"/>
    <path d="M 120 73.333333333333 L100 73.333333333333"/>
    <path d="M 120 80 L100 80"/>
    <path d="M 140 66.666666666667 L120 66.666666666667"/>
    <path d="M 140 73.333333333333 L120 73.333333333333"/>
    <path d="M 140 80 L120 80"/>
    <path d="M 26.666666666667 80 L26.666666666667 100"/>
    <path d="M 33.333333333333 80 L33.333333333333 100"/>
    <path d="M 40 80 L40 100"/>
    <path d="M 60 86.666666666667 L40 86.666666666667"/>
    <path d="M 60 93.333333333333 L40 93.333333333333"/>
    <path d="M 60 100 L40 100"/>
    <path d="M 80 86.666666666667 L60 86.666666666667"/>
    <path d="M 80 93.333333333333 L60 93.333333333333"/>
    <path d="M 80 100 L60 100"/>
    <path d="M 86.666666666667 80 L86.666666666667 100"/>
    <path d="M 93.333333333333 80 L93.333333333333 100"/>
    <path d="M 100 80 L100 100"/>
    <path d="M 106.66666666667 80 L106.66666666667 100"/>
    <path d="M 113.33333333333 80 L113.33333333333 100"/>
    <path d="M 120 80 L120 100"/>
    <path d="M 140 86.666666666667 L120 86.666666666667"/>
    <path d="M 140 93.333333333333 L120 93.333333333333"/>
    <path d="M 140 100 L120 100"/>
    <path d="M 26.666666666667 100 L26.666666666667 120"/>
    <path d="M 33.333333333333 100 L33.333333333333 120"/>
    <path d="M 40 100 L40 120"/>
    <path d="M 46.666666666667 100 L46.666666666667 120"/>
    <path d="M 53.333333333333 100 L53.333333333333 120"/>
    <path d="M 60 100 L60 120"/>
    <path d="M 80 106.66666666667 L60 106.66666666667"/>
    <path d="M 80 113.33333333333 L60 113.33333333333"/>
    <path d="M 80 120 L60 120"/>
    <path d="M 86.666666666667 100 L86.666666666667 120"/>
    <path d="M 93.333333333333 100 L93.333333333333 120"/>
    <path d="M 100 100 L100 120"/>
    <path d="M 120 106.66666666667 L100 106.66666666667"/>
    <path d="M 120 113.33333333333 L100 113.33333333333"/>
    <path d="M 120 120 L100 120"/>
    <path d="M 140 106.66666666667 L120 106.66666666667"/>
    <path d="M 140 113.33333333333 L120 113.33333333333"/>
    <path d="M 140 120 L120 120"/>
    <path d="M 26.666666666667 120 L26.666666666667 140"/>
    <path d="M 33.333333333333 120 L33.333333333333 140"/>
    <path d="M 40 120 L40 140"/>
    <path d="M 46.666666666667 120 L46.666666666667 140"/>
    <path d="M 53.333333333333 120 L53.333333333333 140"/>
    <path d="M 60 120 L60 140"/>
    <path d="M 80 126.66666666667 L60 126.66666666667"/>
    <path d="M 80 133.33333333333 L60 133.33333333333"/>
    <path d="M 80 140 L60 140"/>
    <path d="M 86.666666666667 120 L86.666666666667 140"/>
    <path d="M 93.333333333333 120 L93.333333333333 140"/>
    <path d="M 100 120 L100 140"/>
    <path d="M 120 126.66666666667 L100 126.66666666667"/>
    <path d="M 120 133.33333333333 L100 133.33333333333"/>
    <path d="M 120 140 L100 140"/>
    <path d="M 126.66666666667 120 L126.66666666667 140"/>
    <path d="M 133.33333333333 120 L133.33333333333 140"/>
    <path d="M 140 120 L140 140"/>
    <path d="M 20 20 L140 20 L140 140 L20 140 Z"/>
  </g></svg>